#N canvas 602 25 761 573 12;
#X text 9 12 dream tent soundtrack startup;
#N canvas -1484 0 1017 563 fmchannel 0;
#X obj 52 64 cos;
#X floatatom 53 88 7 0 0 0 - - - 0;
#X obj 56 109 hsl 128 15 -1 1 0 0 empty empty empty -2 -8 0 10 #fcfcfc #000000 #000000 0 1;
#N canvas -2257 32 618 659 fm_pad_panner 0;
#X obj 112 308 fmsynth 1 0.1;
#X obj 170 270 vline~;
#X floatatom 107 229 5 0 0 0 - - - 0;
#X obj 107 252 mtof;
#X obj 169 228 bng 15 250 50 0 empty empty empty 17 7 0 10 #fcfcfc #000000 #000000;
#X msg 170 249 1 1000 \, 0 3000 1000;
#X obj 109 133 metro;
#X obj 65 98 tgl 15 0 empty empty empty 17 7 0 10 #fcfcfc #000000 #000000 0 1;
#X floatatom 149 133 5 0 0 0 - - - 0;
#X obj 142 74 bng 15 250 50 0 empty empty empty 17 7 0 10 #fcfcfc #000000 #000000;
#X obj 109 154 bng 15 250 50 0 empty empty empty 17 7 0 10 #fcfcfc #000000 #000000;
#X obj 142 113 + 4000;
#X obj 142 92 random 3000;
#X obj 108 177 random 28;
#X obj 64 58 loadbang;
#X msg 64 79 1;
#X obj 105 379 outlet~;
#X obj 167 380 outlet~;
#X obj 113 353 pan 0.5;
#X obj 317 59 inlet;
#X obj 113 330 *~ 0.3;
#X obj 359 114 loadbang;
#X obj 107 200 mixolydian 36;
#X obj 330 114 bng 19 250 50 0 empty empty empty 0 -10 0 12 #fcfcfc #000000 #000000;
#X floatatom 359 198 5 0 0 0 - - - 0;
#X obj 383 65 r base_key;
#X obj 387 90 r randomise_fmchannel_settings;
#X obj 426 209 r fmchannel_max_note_range;
#X obj 358 165 + 7;
#X obj 358 137 random 21;
#X connect 0 0 20 0;
#X connect 1 0 0 1;
#X connect 2 0 3 0;
#X connect 2 0 4 0;
#X connect 3 0 0 0;
#X connect 4 0 5 0;
#X connect 5 0 1 0;
#X connect 6 0 10 0;
#X connect 7 0 6 0;
#X connect 9 0 12 0;
#X connect 10 0 12 0;
#X connect 10 0 13 0;
#X connect 11 0 6 1;
#X connect 11 0 8 0;
#X connect 12 0 11 0;
#X connect 13 0 22 0;
#X connect 14 0 15 0;
#X connect 15 0 7 0;
#X connect 18 0 16 0;
#X connect 18 1 17 0;
#X connect 19 0 18 1;
#X connect 20 0 18 0;
#X connect 21 0 29 0;
#X connect 22 0 2 0;
#X connect 23 0 29 0;
#X connect 25 0 22 1;
#X connect 26 0 29 0;
#X connect 27 0 29 1;
#X connect 28 0 13 1;
#X connect 28 0 24 0;
#X connect 29 0 28 0;
#X restore 56 155 pd fm_pad_panner;
#X obj 52 18 r count;
#X obj 50 205 stereovol;
#X obj 209 24 r count;
#X obj 209 72 cos;
#X obj 211 100 + 1;
#X obj 211 122 / 2;
#X obj 211 147 * 150;
#X obj 211 172 min 100;
#X obj 275 24 vsl 19 162 0 150 0 0 empty empty empty 0 -9 0 12 #fcfcfc #000000 #000000 0 1;
#X obj 44 254 throw~ fmleft;
#X obj 87 283 throw~ fmright;
#X obj 336 97 random 300;
#X obj 336 71 bng 19 250 50 0 empty empty empty 0 -10 0 12 #fcfcfc #000000 #000000;
#X floatatom 342 171 5 0 0 0 - - - 0;
#X obj 427 71 bng 19 250 50 0 empty empty empty 0 -10 0 12 #fcfcfc #000000 #000000;
#X floatatom 436 168 5 0 0 0 - - - 0;
#X obj 437 124 + 100;
#X obj 427 97 random 200;
#X obj 338 126 + 50;
#X obj 52 41 /, f 6;
#X obj 209 48 /;
#X obj 335 34 loadbang;
#X obj 428 35 loadbang;
#X obj 507 30 bng 19 250 50 0 empty empty empty 0 -10 0 12 #fcfcfc #000000 #000000;
#X obj 567 38 r randomise_fmchannel_settings;
#X connect 0 0 1 0;
#X connect 1 0 2 0;
#X connect 2 0 3 0;
#X connect 3 0 5 0;
#X connect 3 1 5 1;
#X connect 4 0 23 0;
#X connect 5 0 13 0;
#X connect 5 1 14 0;
#X connect 6 0 24 0;
#X connect 7 0 8 0;
#X connect 8 0 9 0;
#X connect 9 0 10 0;
#X connect 10 0 11 0;
#X connect 10 0 12 0;
#X connect 11 0 5 2;
#X connect 15 0 22 0;
#X connect 16 0 15 0;
#X connect 17 0 23 1;
#X connect 18 0 21 0;
#X connect 19 0 24 1;
#X connect 20 0 19 0;
#X connect 21 0 20 0;
#X connect 22 0 17 0;
#X connect 23 0 0 0;
#X connect 24 0 7 0;
#X connect 25 0 16 0;
#X connect 26 0 18 0;
#X connect 27 0 18 0;
#X connect 27 0 16 0;
#X connect 28 0 27 0;
#X restore 42 63 pd fmchannel;
#N canvas -1484 0 1017 563 fmchannel 0;
#X obj 52 64 cos;
#X floatatom 53 88 7 0 0 0 - - - 0;
#X obj 56 109 hsl 128 15 -1 1 0 0 empty empty empty -2 -8 0 10 #fcfcfc #000000 #000000 0 1;
#N canvas -2257 32 618 659 fm_pad_panner 0;
#X obj 112 308 fmsynth 1 0.1;
#X obj 170 270 vline~;
#X floatatom 107 229 5 0 0 0 - - - 0;
#X obj 107 252 mtof;
#X obj 169 228 bng 15 250 50 0 empty empty empty 17 7 0 10 #fcfcfc #000000 #000000;
#X msg 170 249 1 1000 \, 0 3000 1000;
#X obj 109 133 metro;
#X obj 65 98 tgl 15 0 empty empty empty 17 7 0 10 #fcfcfc #000000 #000000 0 1;
#X floatatom 149 133 5 0 0 0 - - - 0;
#X obj 142 74 bng 15 250 50 0 empty empty empty 17 7 0 10 #fcfcfc #000000 #000000;
#X obj 109 154 bng 15 250 50 0 empty empty empty 17 7 0 10 #fcfcfc #000000 #000000;
#X obj 142 113 + 4000;
#X obj 142 92 random 3000;
#X obj 108 177 random 28;
#X obj 64 58 loadbang;
#X msg 64 79 1;
#X obj 105 379 outlet~;
#X obj 167 380 outlet~;
#X obj 113 353 pan 0.5;
#X obj 317 59 inlet;
#X obj 113 330 *~ 0.3;
#X obj 359 114 loadbang;
#X obj 107 200 mixolydian 36;
#X obj 330 114 bng 19 250 50 0 empty empty empty 0 -10 0 12 #fcfcfc #000000 #000000;
#X floatatom 359 198 5 0 0 0 - - - 0;
#X obj 383 65 r base_key;
#X obj 387 90 r randomise_fmchannel_settings;
#X obj 426 209 r fmchannel_max_note_range;
#X obj 358 165 + 7;
#X obj 358 137 random 21;
#X connect 0 0 20 0;
#X connect 1 0 0 1;
#X connect 2 0 3 0;
#X connect 2 0 4 0;
#X connect 3 0 0 0;
#X connect 4 0 5 0;
#X connect 5 0 1 0;
#X connect 6 0 10 0;
#X connect 7 0 6 0;
#X connect 9 0 12 0;
#X connect 10 0 12 0;
#X connect 10 0 13 0;
#X connect 11 0 6 1;
#X connect 11 0 8 0;
#X connect 12 0 11 0;
#X connect 13 0 22 0;
#X connect 14 0 15 0;
#X connect 15 0 7 0;
#X connect 18 0 16 0;
#X connect 18 1 17 0;
#X connect 19 0 18 1;
#X connect 20 0 18 0;
#X connect 21 0 29 0;
#X connect 22 0 2 0;
#X connect 23 0 29 0;
#X connect 25 0 22 1;
#X connect 26 0 29 0;
#X connect 27 0 29 1;
#X connect 28 0 13 1;
#X connect 28 0 24 0;
#X connect 29 0 28 0;
#X restore 56 155 pd fm_pad_panner;
#X obj 52 18 r count;
#X obj 50 205 stereovol;
#X obj 209 24 r count;
#X obj 209 72 cos;
#X obj 211 100 + 1;
#X obj 211 122 / 2;
#X obj 211 147 * 150;
#X obj 211 172 min 100;
#X obj 275 24 vsl 19 162 0 150 0 0 empty empty empty 0 -9 0 12 #fcfcfc #000000 #000000 0 1;
#X obj 44 254 throw~ fmleft;
#X obj 87 283 throw~ fmright;
#X obj 336 97 random 300;
#X obj 336 71 bng 19 250 50 0 empty empty empty 0 -10 0 12 #fcfcfc #000000 #000000;
#X floatatom 342 171 5 0 0 0 - - - 0;
#X obj 427 71 bng 19 250 50 0 empty empty empty 0 -10 0 12 #fcfcfc #000000 #000000;
#X floatatom 436 168 5 0 0 0 - - - 0;
#X obj 437 124 + 100;
#X obj 427 97 random 200;
#X obj 338 126 + 50;
#X obj 52 41 /, f 6;
#X obj 209 48 /;
#X obj 335 34 loadbang;
#X obj 428 35 loadbang;
#X obj 507 30 bng 19 250 50 0 empty empty empty 0 -10 0 12 #fcfcfc #000000 #000000;
#X obj 567 38 r randomise_fmchannel_settings;
#X connect 0 0 1 0;
#X connect 1 0 2 0;
#X connect 2 0 3 0;
#X connect 3 0 5 0;
#X connect 3 1 5 1;
#X connect 4 0 23 0;
#X connect 5 0 13 0;
#X connect 5 1 14 0;
#X connect 6 0 24 0;
#X connect 7 0 8 0;
#X connect 8 0 9 0;
#X connect 9 0 10 0;
#X connect 10 0 11 0;
#X connect 10 0 12 0;
#X connect 11 0 5 2;
#X connect 15 0 22 0;
#X connect 16 0 15 0;
#X connect 17 0 23 1;
#X connect 18 0 21 0;
#X connect 19 0 24 1;
#X connect 20 0 19 0;
#X connect 21 0 20 0;
#X connect 22 0 17 0;
#X connect 23 0 0 0;
#X connect 24 0 7 0;
#X connect 25 0 16 0;
#X connect 26 0 18 0;
#X connect 27 0 18 0;
#X connect 27 0 16 0;
#X connect 28 0 27 0;
#X restore 43 87 pd fmchannel;
#N canvas 0 38 1440 834 noiseshifter 0;
#X obj 16 14 r count;
#X obj 16 38 /;
#X obj 16 62 cos;
#X floatatom 16 86 5 0 0 0 - - - 0;
#X obj 19 110 hsl 162 19 0 127 0 0 empty empty empty -2 -10 0 12 #fcfcfc #000000 #000000 0 1;
#X obj 193 761 throw~ noiseright;
#X obj 30 760 throw~ noiseleft;
#X obj 207 244 noise~;
#X obj 125 264 vline~;
#X obj 103 292 *~;
#N canvas 0 541 450 300 filter 0;
#X obj 167 107 / 1000;
#X obj 166 127 + 0.3;
#X obj 168 85 random 700;
#X obj 118 41 t b b;
#X obj 109 169 *~;
#X obj 83 113 *;
#X obj 112 107 + 1;
#X obj 117 59 random 30;
#X obj 62 17 inlet~;
#X obj 92 211 outlet~;
#X obj 69 137 bp~ 1000 100;
#X obj 197 14 inlet;
#X obj 257 12 inlet;
#X connect 0 0 1 0;
#X connect 1 0 4 1;
#X connect 2 0 0 0;
#X connect 3 0 7 0;
#X connect 3 1 2 0;
#X connect 4 0 9 0;
#X connect 5 0 10 1;
#X connect 6 0 5 1;
#X connect 7 0 6 0;
#X connect 8 0 10 0;
#X connect 10 0 4 0;
#X connect 11 0 3 0;
#X connect 12 0 5 0;
#X restore 61 479 pd filter;
#X obj 212 268 stereovol;
#X obj 294 97 r count;
#X obj 294 145 cos;
#X obj 296 173 + 1;
#X obj 296 195 / 2;
#X obj 296 220 * 150;
#X obj 296 245 min 100;
#X obj 360 97 vsl 19 162 0 150 0 0 empty empty empty 0 -9 0 12 #fcfcfc #000000 #000000 0 1;
#X obj 421 170 random 300;
#X obj 421 144 bng 19 250 50 0 empty empty empty 0 -10 0 12 #fcfcfc #000000 #000000;
#X floatatom 427 244 5 0 0 0 - - - 0;
#X obj 512 144 bng 19 250 50 0 empty empty empty 0 -10 0 12 #fcfcfc #000000 #000000;
#X floatatom 521 241 5 0 0 0 - - - 0;
#X obj 522 197 + 100;
#X obj 512 170 random 200;
#X obj 423 199 + 50;
#X obj 294 121 /;
#X obj 420 107 loadbang;
#X obj 513 108 loadbang;
#X obj 592 103 bng 19 250 50 0 empty empty empty 0 -10 0 12 #fcfcfc #000000 #000000;
#X obj 652 111 r randomise_fmchannel_settings;
#X obj 39 144 tgl 15 0 empty empty empty 17 7 0 10 #fcfcfc #000000 #000000 0 1;
#X msg 63 141 1;
#X obj 40 175 metro 3000;
#X obj 42 717 pan 0.5;
#X obj 52 690 *~ 0.5;
#X obj 390 337 r count;
#X obj 390 385 cos;
#X obj 392 413 + 1;
#X obj 392 435 / 2;
#X obj 456 337 vsl 19 162 0 1 0 0 empty empty empty 0 -9 0 12 #fcfcfc #000000 #000000 0 1;
#X obj 390 361 /;
#X obj 392 485 min 8000;
#X floatatom 395 536 5 0 0 0 - - - 0;
#X obj 487 339 loadbang;
#X obj 487 363 random 300;
#X obj 487 387 + 50;
#X floatatom 487 411 5 0 0 0 - - - 0;
#X obj 487 434 bng 19 250 50 0 empty empty empty 0 -10 0 12 #fcfcfc #000000 #000000;
#X obj 557 338 bng 19 250 50 0 empty empty empty 0 -10 0 12 #fcfcfc #000000 #000000;
#X obj 82 209 f;
#X msg 84 235 1 10 \, 0 \$1 10;
#X obj 25 288 + 100;
#X floatatom 25 309 5 0 0 0 - - - 0;
#X obj 25 269 random 50;
#N canvas 0 541 450 300 filter 0;
#X obj 167 107 / 1000;
#X obj 166 127 + 0.3;
#X obj 168 85 random 700;
#X obj 118 41 t b b;
#X obj 109 169 *~;
#X obj 83 113 *;
#X obj 112 107 + 1;
#X obj 117 59 random 30;
#X obj 62 17 inlet~;
#X obj 92 211 outlet~;
#X obj 69 137 bp~ 1000 100;
#X obj 197 14 inlet;
#X obj 257 12 inlet;
#X connect 0 0 1 0;
#X connect 1 0 4 1;
#X connect 2 0 0 0;
#X connect 3 0 7 0;
#X connect 3 1 2 0;
#X connect 4 0 9 0;
#X connect 5 0 10 1;
#X connect 6 0 5 1;
#X connect 7 0 6 0;
#X connect 8 0 10 0;
#X connect 10 0 4 0;
#X connect 11 0 3 0;
#X connect 12 0 5 0;
#X restore 136 480 pd filter;
#N canvas 0 541 450 300 filter 0;
#X obj 167 107 / 1000;
#X obj 166 127 + 0.3;
#X obj 168 85 random 700;
#X obj 118 41 t b b;
#X obj 109 169 *~;
#X obj 83 113 *;
#X obj 112 107 + 1;
#X obj 117 59 random 30;
#X obj 62 17 inlet~;
#X obj 92 211 outlet~;
#X obj 69 137 bp~ 1000 100;
#X obj 197 14 inlet;
#X obj 257 12 inlet;
#X connect 0 0 1 0;
#X connect 1 0 4 1;
#X connect 2 0 0 0;
#X connect 3 0 7 0;
#X connect 3 1 2 0;
#X connect 4 0 9 0;
#X connect 5 0 10 1;
#X connect 6 0 5 1;
#X connect 7 0 6 0;
#X connect 8 0 10 0;
#X connect 10 0 4 0;
#X connect 11 0 3 0;
#X connect 12 0 5 0;
#X restore 210 477 pd filter;
#N canvas -1270 541 450 300 filter 0;
#X obj 167 107 / 1000;
#X obj 166 127 + 0.3;
#X obj 168 85 random 700;
#X obj 118 41 t b b;
#X obj 109 169 *~;
#X obj 83 113 *;
#X obj 112 107 + 1;
#X obj 117 59 random 30;
#X obj 62 17 inlet~;
#X obj 92 211 outlet~;
#X obj 69 137 bp~ 1000 100;
#X obj 197 14 inlet;
#X obj 257 12 inlet;
#X connect 0 0 1 0;
#X connect 1 0 4 1;
#X connect 2 0 0 0;
#X connect 3 0 7 0;
#X connect 3 1 2 0;
#X connect 4 0 9 0;
#X connect 5 0 10 1;
#X connect 6 0 5 1;
#X connect 7 0 6 0;
#X connect 8 0 10 0;
#X connect 10 0 4 0;
#X connect 11 0 3 0;
#X connect 12 0 5 0;
#X restore 285 478 pd filter;
#X obj 699 271 random 3000;
#X obj 708 309 + 2000;
#X obj 393 510 max 1000;
#X obj 392 460 * 10000;
#X connect 0 0 1 0;
#X connect 1 0 2 0;
#X connect 2 0 3 0;
#X connect 3 0 4 0;
#X connect 4 0 35 1;
#X connect 7 0 11 0;
#X connect 8 0 9 1;
#X connect 9 0 10 0;
#X connect 9 0 56 0;
#X connect 9 0 57 0;
#X connect 9 0 58 0;
#X connect 10 0 36 0;
#X connect 11 0 9 0;
#X connect 12 0 27 0;
#X connect 13 0 14 0;
#X connect 14 0 15 0;
#X connect 15 0 16 0;
#X connect 16 0 17 0;
#X connect 16 0 18 0;
#X connect 17 0 11 2;
#X connect 19 0 26 0;
#X connect 20 0 19 0;
#X connect 21 0 1 1;
#X connect 22 0 25 0;
#X connect 23 0 27 1;
#X connect 24 0 23 0;
#X connect 25 0 24 0;
#X connect 26 0 21 0;
#X connect 27 0 13 0;
#X connect 28 0 20 0;
#X connect 29 0 22 0;
#X connect 30 0 22 0;
#X connect 30 0 20 0;
#X connect 30 0 33 0;
#X connect 30 0 59 0;
#X connect 31 0 30 0;
#X connect 32 0 34 0;
#X connect 33 0 32 0;
#X connect 34 0 10 1;
#X connect 34 0 51 0;
#X connect 34 0 55 0;
#X connect 34 0 56 1;
#X connect 34 0 57 1;
#X connect 34 0 58 1;
#X connect 35 0 6 0;
#X connect 35 1 5 0;
#X connect 36 0 35 0;
#X connect 37 0 42 0;
#X connect 38 0 39 0;
#X connect 39 0 40 0;
#X connect 40 0 62 0;
#X connect 40 0 41 0;
#X connect 42 0 38 0;
#X connect 43 0 61 0;
#X connect 44 0 51 1;
#X connect 45 0 46 0;
#X connect 46 0 47 0;
#X connect 47 0 48 0;
#X connect 48 0 42 1;
#X connect 48 0 49 0;
#X connect 50 0 46 0;
#X connect 51 0 52 0;
#X connect 52 0 8 0;
#X connect 53 0 54 0;
#X connect 54 0 10 2;
#X connect 54 0 56 2;
#X connect 54 0 57 2;
#X connect 54 0 58 2;
#X connect 55 0 53 0;
#X connect 56 0 36 0;
#X connect 57 0 36 0;
#X connect 58 0 36 0;
#X connect 59 0 60 0;
#X connect 60 0 34 1;
#X connect 60 0 33 0;
#X connect 61 0 44 0;
#X connect 62 0 43 0;
#X restore 470 95 pd noiseshifter;
#N canvas 234 33 1206 732 sawshifter 0;
#X obj 273 144 cos;
#X floatatom 274 168 7 0 0 0 - - - 0;
#X obj 273 98 r count;
#X obj 126 603 stereovol;
#X obj 447 79 r count;
#X obj 447 127 cos;
#X obj 449 155 + 1;
#X obj 449 177 / 2;
#X obj 449 202 * 150;
#X obj 449 227 min 100;
#X obj 336 97 random 300;
#X obj 336 71 bng 19 250 50 0 empty empty empty 0 -10 0 12 #fcfcfc #000000 #000000;
#X floatatom 342 171 5 0 0 0 - - - 0;
#X obj 522 81 bng 19 250 50 0 empty empty empty 0 -10 0 12 #fcfcfc #000000 #000000;
#X floatatom 531 178 5 0 0 0 - - - 0;
#X obj 532 134 + 100;
#X obj 522 107 random 200;
#X obj 338 126 + 50;
#X obj 273 121 /, f 6;
#X obj 447 103 /;
#X obj 507 30 bng 19 250 50 0 empty empty empty 0 -10 0 12 #fcfcfc #000000 #000000;
#X obj 391 2 r randomise_fmchannel_settings;
#X obj 120 652 throw~ sawleft;
#X obj 163 681 throw~ sawright;
#X floatatom 71 439 5 0 0 0 - - - 0;
#X obj 73 343 metro;
#X obj 70 279 tgl 15 0 empty empty empty 17 7 0 10 #fcfcfc #000000 #000000 0 1;
#X floatatom 113 343 5 0 0 0 - - - 0;
#X obj 106 284 bng 15 250 50 0 empty empty empty 17 7 0 10 #fcfcfc #000000 #000000;
#X obj 73 364 bng 15 250 50 0 empty empty empty 17 7 0 10 #fcfcfc #000000 #000000;
#X obj 106 323 + 4000;
#X obj 106 302 random 3000;
#X obj 72 387 random 28;
#X obj 69 239 loadbang;
#X msg 69 260 1;
#X obj 77 563 pan 0.5;
#X obj 77 540 *~ 0.3;
#X obj 71 410 mixolydian 36;
#X floatatom 323 408 5 0 0 0 - - - 0;
#X obj 347 275 r base_key;
#X obj 323 302 r randomise_fmchannel_settings;
#X obj 337 325 r fmchannel_max_note_range;
#X obj 322 375 + 7;
#X obj 322 347 random 21;
#X obj 76 518 supersawsynth;
#X obj 941 104 r count;
#X obj 941 152 cos;
#X obj 940 181 * 0.2;
#X obj 696 74 r count;
#X obj 696 122 cos;
#X obj 698 150 + 1;
#X obj 698 172 / 2;
#X obj 698 197 * 5000;
#X obj 698 222 max 1000;
#X obj 698 246 sig~;
#X floatatom 939 205 5 0 0 0 - - - 0;
#X obj 802 74 bng 19 250 50 0 empty empty empty 0 -10 0 12 #fcfcfc #000000 #000000;
#X floatatom 811 171 5 0 0 0 - - - 0;
#X obj 802 100 random 200;
#X obj 1030 71 bng 19 250 50 0 empty empty empty 0 -10 0 12 #fcfcfc #000000 #000000;
#X floatatom 1039 168 5 0 0 0 - - - 0;
#X obj 1040 124 + 100;
#X obj 1030 97 random 200;
#X obj 941 128 /;
#X obj 696 98 /;
#X msg 192 443 1;
#X obj 192 467 sig~;
#X obj 102 481 line;
#X obj 116 453 pack f f;
#X floatatom 34 492 5 0 0 0 - - - 0;
#X obj 812 127 + 200;
#X floatatom 478 177 5 0 0 0 - - - 0;
#X floatatom 731 173 5 0 0 0 - - - 0;
#X connect 0 0 1 0;
#X connect 1 0 35 1;
#X connect 2 0 18 0;
#X connect 3 0 22 0;
#X connect 3 1 23 0;
#X connect 4 0 19 0;
#X connect 5 0 6 0;
#X connect 6 0 7 0;
#X connect 7 0 8 0;
#X connect 7 0 71 0;
#X connect 8 0 9 0;
#X connect 9 0 3 2;
#X connect 10 0 17 0;
#X connect 11 0 10 0;
#X connect 12 0 18 1;
#X connect 13 0 16 0;
#X connect 14 0 19 1;
#X connect 15 0 14 0;
#X connect 16 0 15 0;
#X connect 17 0 12 0;
#X connect 18 0 0 0;
#X connect 19 0 5 0;
#X connect 20 0 13 0;
#X connect 20 0 11 0;
#X connect 20 0 56 0;
#X connect 20 0 59 0;
#X connect 21 0 20 0;
#X connect 24 0 44 0;
#X connect 24 0 65 0;
#X connect 24 0 68 0;
#X connect 25 0 29 0;
#X connect 26 0 25 0;
#X connect 27 0 68 1;
#X connect 28 0 31 0;
#X connect 29 0 31 0;
#X connect 29 0 32 0;
#X connect 30 0 25 1;
#X connect 30 0 27 0;
#X connect 31 0 30 0;
#X connect 32 0 37 0;
#X connect 33 0 34 0;
#X connect 34 0 26 0;
#X connect 35 0 3 0;
#X connect 35 1 3 1;
#X connect 36 0 35 0;
#X connect 37 0 24 0;
#X connect 39 0 37 1;
#X connect 40 0 43 0;
#X connect 41 0 43 1;
#X connect 42 0 32 1;
#X connect 42 0 38 0;
#X connect 43 0 42 0;
#X connect 44 0 36 0;
#X connect 45 0 63 0;
#X connect 46 0 47 0;
#X connect 47 0 44 1;
#X connect 47 0 55 0;
#X connect 48 0 64 0;
#X connect 49 0 50 0;
#X connect 50 0 51 0;
#X connect 51 0 52 0;
#X connect 51 0 72 0;
#X connect 52 0 53 0;
#X connect 53 0 54 0;
#X connect 54 0 44 2;
#X connect 56 0 58 0;
#X connect 57 0 64 1;
#X connect 58 0 70 0;
#X connect 59 0 62 0;
#X connect 60 0 63 1;
#X connect 61 0 60 0;
#X connect 62 0 61 0;
#X connect 63 0 46 0;
#X connect 64 0 49 0;
#X connect 65 0 66 0;
#X connect 66 0 44 3;
#X connect 67 0 44 0;
#X connect 67 0 69 0;
#X connect 68 0 67 0;
#X connect 70 0 57 0;
#X restore 310 66 pd sawshifter;
#X obj 26 335 vu 30 200 master_snd_l empty -1 -8 0 10 #404040 #000000 1 0;
#X obj 94 335 vu 30 200 master_snd_r empty -1 -8 0 10 #404040 #000000 1 0;
#N canvas 824 150 586 464 output 0;
#X obj 45 7 catch~ mainleft;
#X obj 218 7 catch~ mainright;
#X floatatom 70 210 5 0 0 0 - - master_snd_l 0;
#X obj 70 189 - 100;
#X obj 110 132 *~;
#X obj 141 133 *~;
#X floatatom 170 206 5 0 0 0 - - master_snd_r 0;
#X obj 170 185 - 100;
#X obj 124 183 dac~;
#X obj 367 111 dbtorms;
#X obj 369 66 / 127;
#X obj 367 88 * 110;
#X floatatom 367 139 5 0 0 0 - - - 0;
#X obj 354 156 lop~ 3;
#X obj 484 8 loadbang;
#X msg 484 31 64;
#X obj 369 6 r master_fader;
#X obj 109 49 throw~ send_reverb;
#X obj 83 254 catch~ send_reverb;
#X obj 83 363 throw~ rev_return_left;
#X obj 134 388 throw~ rev_return_right;
#X obj 83 290 *~;
#X obj 83 337 rev2~ 100 90 3000 20, f 23;
#X obj 115 290 lop~ 3;
#X obj 330 322 / 127;
#X obj 328 344 * 110;
#X obj 322 266 r reverb_fader;
#X obj 329 373 dbtorms;
#X floatatom 329 397 5 0 0 0 - - - 0;
#X obj 83 314 expr~ tanh($v1);
#X floatatom 375 346 5 0 0 0 - - - 0;
#X floatatom 416 90 5 0 0 0 - - - 0;
#X obj 58 85 catch~ rev_return_left;
#X obj 158 107 catch~ rev_return_right;
#X connect 0 0 4 0;
#X connect 0 0 17 0;
#X connect 1 0 5 0;
#X connect 1 0 17 0;
#X connect 3 0 2 0;
#X connect 4 0 8 0;
#X connect 5 0 8 1;
#X connect 7 0 6 0;
#X connect 9 0 12 0;
#X connect 9 0 13 0;
#X connect 10 0 11 0;
#X connect 11 0 9 0;
#X connect 11 0 31 0;
#X connect 13 0 5 1;
#X connect 13 0 4 1;
#X connect 14 0 15 0;
#X connect 15 0 10 0;
#X connect 16 0 10 0;
#X connect 18 0 21 0;
#X connect 21 0 29 0;
#X connect 22 0 19 0;
#X connect 22 1 20 0;
#X connect 23 0 21 1;
#X connect 24 0 25 0;
#X connect 25 0 27 0;
#X connect 25 0 30 0;
#X connect 26 0 24 0;
#X connect 27 0 23 0;
#X connect 27 0 28 0;
#X connect 29 0 22 0;
#X connect 32 0 4 0;
#X connect 33 0 5 0;
#X restore 36 237 pd output;
#X obj 624 313 vsl 40 200 0 127 0 0 master_fader empty master 0 -9 0 10 #f80004 #000000 #000000 0 1;
#X floatatom 624 520 5 0 0 0 - - - 0;
#X obj 578 312 vsl 40 200 0 127 0 0 reverb_fader empty reverb 0 -9 0 10 #ff8300 #000000 #000000 0 1;
#X floatatom 578 519 5 0 0 0 - - - 0;
#N canvas 147 86 1180 347 mixers 0;
#X obj 714 71 catch~ sawleft;
#X obj 822 71 catch~ sawright;
#X obj 709 203 throw~ mainleft;
#X obj 824 202 throw~ mainright;
#X obj 44 69 catch~ fmleft;
#X obj 146 69 catch~ fmright;
#X obj 330 68 catch~ noiseleft;
#X obj 452 71 catch~ noiseright;
#X obj 341 230 throw~ mainleft;
#X obj 26 239 throw~ mainleft;
#X obj 462 230 throw~ mainright;
#X obj 144 241 throw~ mainright;
#X obj 1000 105 faderproc~;
#X obj 718 133 *~;
#X obj 825 135 *~;
#X obj 1000 81 r saw_fader;
#X obj 579 133 faderproc~;
#X obj 578 94 r noise_fader;
#X obj 197 151 faderproc~;
#X obj 196 112 r fm_fader;
#X obj 43 147 *~;
#X obj 144 149 *~;
#X obj 335 151 *~;
#X obj 461 147 *~;
#X connect 0 0 13 0;
#X connect 1 0 14 0;
#X connect 4 0 20 0;
#X connect 5 0 21 0;
#X connect 6 0 22 0;
#X connect 7 0 23 0;
#X connect 12 0 13 1;
#X connect 12 0 14 1;
#X connect 13 0 2 0;
#X connect 14 0 3 0;
#X connect 15 0 12 0;
#X connect 16 0 23 1;
#X connect 16 0 22 1;
#X connect 17 0 16 0;
#X connect 18 0 21 1;
#X connect 18 0 20 1;
#X connect 19 0 18 0;
#X connect 20 0 9 0;
#X connect 21 0 11 0;
#X connect 22 0 8 0;
#X connect 23 0 10 0;
#X restore 37 211 pd mixers;
#N canvas 558 118 882 503 drive_counter 0;
#N canvas 0 25 450 300 infcount 0;
#X obj 141 164 outlet;
#X obj 118 56 inlet;
#X obj 215 60 inlet;
#X obj 162 90 metro;
#X obj 145 122 f;
#X obj 178 122 + 1;
#X obj 175 36 t b;
#X msg 169 60 1;
#X connect 1 0 3 0;
#X connect 2 0 3 1;
#X connect 2 0 6 0;
#X connect 3 0 4 0;
#X connect 4 0 5 0;
#X connect 4 0 0 0;
#X connect 5 0 4 1;
#X connect 6 0 7 0;
#X connect 7 0 3 0;
#X restore 48 123 pd infcount;
#X msg 48 99 125;
#X floatatom 48 144 12 0 0 0 - - - 0;
#X obj 48 166 s count;
#X obj 181 287 s base_key;
#X obj 281 181 s randomise_fmchannel_settings;
#X obj 281 155 bng 19 250 50 0 empty empty empty 0 -10 0 12 #fcfcfc #000000 #000000;
#X obj 318 155 s fmchannel_max_note_range;
#X msg 318 131 28;
#X floatatom 182 264 5 0 0 0 - - - 0;
#X obj 182 164 random 24;
#X obj 182 192 + 20;
#X msg 182 216 \$1 300000;
#X obj 182 140 bng 19 250 50 0 empty empty empty 0 -10 0 12 #fcfcfc #000000 #000000;
#X floatatom 138 218 5 0 0 0 - - - 0;
#X obj 182 240 line;
#X obj 182 114 metro 100000;
#X obj 182 91 tgl 19 0 empty empty empty 0 -10 0 12 #fcfcfc #000000 #000000 0 1;
#X obj 258 16 loadbang;
#X obj 258 40 t b b b b;
#X obj 327 13 bng 19 250 50 0 empty empty empty 0 -10 0 12 #fcfcfc #000000 #000000;
#X connect 0 0 2 0;
#X connect 1 0 0 1;
#X connect 2 0 3 0;
#X connect 6 0 5 0;
#X connect 8 0 7 0;
#X connect 9 0 4 0;
#X connect 10 0 11 0;
#X connect 11 0 12 0;
#X connect 11 0 14 0;
#X connect 12 0 15 0;
#X connect 13 0 10 0;
#X connect 15 0 9 0;
#X connect 16 0 13 0;
#X connect 17 0 16 0;
#X connect 18 0 19 0;
#X connect 19 0 1 0;
#X connect 19 1 17 0;
#X connect 19 2 6 0;
#X connect 19 3 8 0;
#X connect 20 0 19 0;
#X restore 37 185 pd drive_counter;
#X msg 646 254 100;
#X obj 528 207 loadbang;
#X msg 585 249 95;
#N canvas -1484 0 1017 563 fmchannel 0;
#X obj 52 64 cos;
#X floatatom 53 88 7 0 0 0 - - - 0;
#X obj 56 109 hsl 128 15 -1 1 0 0 empty empty empty -2 -8 0 10 #fcfcfc #000000 #000000 0 1;
#N canvas -2257 32 618 659 fm_pad_panner 0;
#X obj 112 308 fmsynth 1 0.1;
#X obj 170 270 vline~;
#X floatatom 107 229 5 0 0 0 - - - 0;
#X obj 107 252 mtof;
#X obj 169 228 bng 15 250 50 0 empty empty empty 17 7 0 10 #fcfcfc #000000 #000000;
#X msg 170 249 1 1000 \, 0 3000 1000;
#X obj 109 133 metro;
#X obj 65 98 tgl 15 0 empty empty empty 17 7 0 10 #fcfcfc #000000 #000000 0 1;
#X floatatom 149 133 5 0 0 0 - - - 0;
#X obj 142 74 bng 15 250 50 0 empty empty empty 17 7 0 10 #fcfcfc #000000 #000000;
#X obj 109 154 bng 15 250 50 0 empty empty empty 17 7 0 10 #fcfcfc #000000 #000000;
#X obj 142 113 + 4000;
#X obj 142 92 random 3000;
#X obj 108 177 random 28;
#X obj 64 58 loadbang;
#X msg 64 79 1;
#X obj 105 379 outlet~;
#X obj 167 380 outlet~;
#X obj 113 353 pan 0.5;
#X obj 317 59 inlet;
#X obj 113 330 *~ 0.3;
#X obj 359 114 loadbang;
#X obj 107 200 mixolydian 36;
#X obj 330 114 bng 19 250 50 0 empty empty empty 0 -10 0 12 #fcfcfc #000000 #000000;
#X floatatom 359 198 5 0 0 0 - - - 0;
#X obj 383 65 r base_key;
#X obj 387 90 r randomise_fmchannel_settings;
#X obj 426 209 r fmchannel_max_note_range;
#X obj 358 165 + 7;
#X obj 358 137 random 21;
#X connect 0 0 20 0;
#X connect 1 0 0 1;
#X connect 2 0 3 0;
#X connect 2 0 4 0;
#X connect 3 0 0 0;
#X connect 4 0 5 0;
#X connect 5 0 1 0;
#X connect 6 0 10 0;
#X connect 7 0 6 0;
#X connect 9 0 12 0;
#X connect 10 0 12 0;
#X connect 10 0 13 0;
#X connect 11 0 6 1;
#X connect 11 0 8 0;
#X connect 12 0 11 0;
#X connect 13 0 22 0;
#X connect 14 0 15 0;
#X connect 15 0 7 0;
#X connect 18 0 16 0;
#X connect 18 1 17 0;
#X connect 19 0 18 1;
#X connect 20 0 18 0;
#X connect 21 0 29 0;
#X connect 22 0 2 0;
#X connect 23 0 29 0;
#X connect 25 0 22 1;
#X connect 26 0 29 0;
#X connect 27 0 29 1;
#X connect 28 0 13 1;
#X connect 28 0 24 0;
#X connect 29 0 28 0;
#X restore 56 155 pd fm_pad_panner;
#X obj 52 18 r count;
#X obj 50 205 stereovol;
#X obj 209 24 r count;
#X obj 209 72 cos;
#X obj 211 100 + 1;
#X obj 211 122 / 2;
#X obj 211 147 * 150;
#X obj 211 172 min 100;
#X obj 275 24 vsl 19 162 0 150 0 0 empty empty empty 0 -9 0 12 #fcfcfc #000000 #000000 0 1;
#X obj 44 254 throw~ fmleft;
#X obj 87 283 throw~ fmright;
#X obj 336 97 random 300;
#X obj 336 71 bng 19 250 50 0 empty empty empty 0 -10 0 12 #fcfcfc #000000 #000000;
#X floatatom 342 171 5 0 0 0 - - - 0;
#X obj 427 71 bng 19 250 50 0 empty empty empty 0 -10 0 12 #fcfcfc #000000 #000000;
#X floatatom 436 168 5 0 0 0 - - - 0;
#X obj 437 124 + 100;
#X obj 427 97 random 200;
#X obj 338 126 + 50;
#X obj 52 41 /, f 6;
#X obj 209 48 /;
#X obj 335 34 loadbang;
#X obj 428 35 loadbang;
#X obj 507 30 bng 19 250 50 0 empty empty empty 0 -10 0 12 #fcfcfc #000000 #000000;
#X obj 567 38 r randomise_fmchannel_settings;
#X connect 0 0 1 0;
#X connect 1 0 2 0;
#X connect 2 0 3 0;
#X connect 3 0 5 0;
#X connect 3 1 5 1;
#X connect 4 0 23 0;
#X connect 5 0 13 0;
#X connect 5 1 14 0;
#X connect 6 0 24 0;
#X connect 7 0 8 0;
#X connect 8 0 9 0;
#X connect 9 0 10 0;
#X connect 10 0 11 0;
#X connect 10 0 12 0;
#X connect 11 0 5 2;
#X connect 15 0 22 0;
#X connect 16 0 15 0;
#X connect 17 0 23 1;
#X connect 18 0 21 0;
#X connect 19 0 24 1;
#X connect 20 0 19 0;
#X connect 21 0 20 0;
#X connect 22 0 17 0;
#X connect 23 0 0 0;
#X connect 24 0 7 0;
#X connect 25 0 16 0;
#X connect 26 0 18 0;
#X connect 27 0 18 0;
#X connect 27 0 16 0;
#X connect 28 0 27 0;
#X restore 41 112 pd fmchannel;
#N canvas -1484 0 1017 563 fmchannel 0;
#X obj 52 64 cos;
#X floatatom 53 88 7 0 0 0 - - - 0;
#X obj 56 109 hsl 128 15 -1 1 0 0 empty empty empty -2 -8 0 10 #fcfcfc #000000 #000000 0 1;
#N canvas -2257 32 618 659 fm_pad_panner 0;
#X obj 112 308 fmsynth 1 0.1;
#X obj 170 270 vline~;
#X floatatom 107 229 5 0 0 0 - - - 0;
#X obj 107 252 mtof;
#X obj 169 228 bng 15 250 50 0 empty empty empty 17 7 0 10 #fcfcfc #000000 #000000;
#X msg 170 249 1 1000 \, 0 3000 1000;
#X obj 109 133 metro;
#X obj 65 98 tgl 15 0 empty empty empty 17 7 0 10 #fcfcfc #000000 #000000 0 1;
#X floatatom 149 133 5 0 0 0 - - - 0;
#X obj 142 74 bng 15 250 50 0 empty empty empty 17 7 0 10 #fcfcfc #000000 #000000;
#X obj 109 154 bng 15 250 50 0 empty empty empty 17 7 0 10 #fcfcfc #000000 #000000;
#X obj 142 113 + 4000;
#X obj 142 92 random 3000;
#X obj 108 177 random 28;
#X obj 64 58 loadbang;
#X msg 64 79 1;
#X obj 105 379 outlet~;
#X obj 167 380 outlet~;
#X obj 113 353 pan 0.5;
#X obj 317 59 inlet;
#X obj 113 330 *~ 0.3;
#X obj 359 114 loadbang;
#X obj 107 200 mixolydian 36;
#X obj 330 114 bng 19 250 50 0 empty empty empty 0 -10 0 12 #fcfcfc #000000 #000000;
#X floatatom 359 198 5 0 0 0 - - - 0;
#X obj 383 65 r base_key;
#X obj 387 90 r randomise_fmchannel_settings;
#X obj 426 209 r fmchannel_max_note_range;
#X obj 358 165 + 7;
#X obj 358 137 random 21;
#X connect 0 0 20 0;
#X connect 1 0 0 1;
#X connect 2 0 3 0;
#X connect 2 0 4 0;
#X connect 3 0 0 0;
#X connect 4 0 5 0;
#X connect 5 0 1 0;
#X connect 6 0 10 0;
#X connect 7 0 6 0;
#X connect 9 0 12 0;
#X connect 10 0 12 0;
#X connect 10 0 13 0;
#X connect 11 0 6 1;
#X connect 11 0 8 0;
#X connect 12 0 11 0;
#X connect 13 0 22 0;
#X connect 14 0 15 0;
#X connect 15 0 7 0;
#X connect 18 0 16 0;
#X connect 18 1 17 0;
#X connect 19 0 18 1;
#X connect 20 0 18 0;
#X connect 21 0 29 0;
#X connect 22 0 2 0;
#X connect 23 0 29 0;
#X connect 25 0 22 1;
#X connect 26 0 29 0;
#X connect 27 0 29 1;
#X connect 28 0 13 1;
#X connect 28 0 24 0;
#X connect 29 0 28 0;
#X restore 56 155 pd fm_pad_panner;
#X obj 52 18 r count;
#X obj 50 205 stereovol;
#X obj 209 24 r count;
#X obj 209 72 cos;
#X obj 211 100 + 1;
#X obj 211 122 / 2;
#X obj 211 147 * 150;
#X obj 211 172 min 100;
#X obj 275 24 vsl 19 162 0 150 0 0 empty empty empty 0 -9 0 12 #fcfcfc #000000 #000000 0 1;
#X obj 44 254 throw~ fmleft;
#X obj 87 283 throw~ fmright;
#X obj 336 97 random 300;
#X obj 336 71 bng 19 250 50 0 empty empty empty 0 -10 0 12 #fcfcfc #000000 #000000;
#X floatatom 342 171 5 0 0 0 - - - 0;
#X obj 427 71 bng 19 250 50 0 empty empty empty 0 -10 0 12 #fcfcfc #000000 #000000;
#X floatatom 436 168 5 0 0 0 - - - 0;
#X obj 437 124 + 100;
#X obj 427 97 random 200;
#X obj 338 126 + 50;
#X obj 52 41 /, f 6;
#X obj 209 48 /;
#X obj 335 34 loadbang;
#X obj 428 35 loadbang;
#X obj 507 30 bng 19 250 50 0 empty empty empty 0 -10 0 12 #fcfcfc #000000 #000000;
#X obj 567 38 r randomise_fmchannel_settings;
#X connect 0 0 1 0;
#X connect 1 0 2 0;
#X connect 2 0 3 0;
#X connect 3 0 5 0;
#X connect 3 1 5 1;
#X connect 4 0 23 0;
#X connect 5 0 13 0;
#X connect 5 1 14 0;
#X connect 6 0 24 0;
#X connect 7 0 8 0;
#X connect 8 0 9 0;
#X connect 9 0 10 0;
#X connect 10 0 11 0;
#X connect 10 0 12 0;
#X connect 11 0 5 2;
#X connect 15 0 22 0;
#X connect 16 0 15 0;
#X connect 17 0 23 1;
#X connect 18 0 21 0;
#X connect 19 0 24 1;
#X connect 20 0 19 0;
#X connect 21 0 20 0;
#X connect 22 0 17 0;
#X connect 23 0 0 0;
#X connect 24 0 7 0;
#X connect 25 0 16 0;
#X connect 26 0 18 0;
#X connect 27 0 18 0;
#X connect 27 0 16 0;
#X connect 28 0 27 0;
#X restore 42 136 pd fmchannel;
#X obj 529 311 vsl 40 200 0 127 0 0 saw_fader empty saw 0 -9 0 10 #0432ff #000000 #000000 0 1;
#X floatatom 529 518 5 0 0 0 - - - 0;
#X obj 478 311 vsl 40 200 0 127 0 0 noise_fader empty noise 0 -9 0 10 #00fcff #000000 #000000 0 1;
#X floatatom 478 518 5 0 0 0 - - - 0;
#X obj 429 311 vsl 40 200 0 127 0 0 fm_fader empty fm 0 -9 0 10 #00fa92 #000000 #000000 0 1;
#X floatatom 429 518 5 0 0 0 - - - 0;
#X msg 433 258 115;
#X msg 528 256 115;
#X msg 479 256 105;
#N canvas 0 38 1440 834 noiseshifter 0;
#X obj 16 14 r count;
#X obj 16 38 /;
#X obj 16 62 cos;
#X floatatom 16 86 5 0 0 0 - - - 0;
#X obj 19 110 hsl 162 19 0 127 0 0 empty empty empty -2 -10 0 12 #fcfcfc #000000 #000000 0 1;
#X obj 193 761 throw~ noiseright;
#X obj 30 760 throw~ noiseleft;
#X obj 207 244 noise~;
#X obj 125 264 vline~;
#X obj 103 292 *~;
#N canvas 0 541 450 300 filter 0;
#X obj 167 107 / 1000;
#X obj 166 127 + 0.3;
#X obj 168 85 random 700;
#X obj 118 41 t b b;
#X obj 109 169 *~;
#X obj 83 113 *;
#X obj 112 107 + 1;
#X obj 117 59 random 30;
#X obj 62 17 inlet~;
#X obj 92 211 outlet~;
#X obj 69 137 bp~ 1000 100;
#X obj 197 14 inlet;
#X obj 257 12 inlet;
#X connect 0 0 1 0;
#X connect 1 0 4 1;
#X connect 2 0 0 0;
#X connect 3 0 7 0;
#X connect 3 1 2 0;
#X connect 4 0 9 0;
#X connect 5 0 10 1;
#X connect 6 0 5 1;
#X connect 7 0 6 0;
#X connect 8 0 10 0;
#X connect 10 0 4 0;
#X connect 11 0 3 0;
#X connect 12 0 5 0;
#X restore 61 479 pd filter;
#X obj 212 268 stereovol;
#X obj 294 97 r count;
#X obj 294 145 cos;
#X obj 296 173 + 1;
#X obj 296 195 / 2;
#X obj 296 220 * 150;
#X obj 296 245 min 100;
#X obj 360 97 vsl 19 162 0 150 0 0 empty empty empty 0 -9 0 12 #fcfcfc #000000 #000000 0 1;
#X obj 421 170 random 300;
#X obj 421 144 bng 19 250 50 0 empty empty empty 0 -10 0 12 #fcfcfc #000000 #000000;
#X floatatom 427 244 5 0 0 0 - - - 0;
#X obj 512 144 bng 19 250 50 0 empty empty empty 0 -10 0 12 #fcfcfc #000000 #000000;
#X floatatom 521 241 5 0 0 0 - - - 0;
#X obj 522 197 + 100;
#X obj 512 170 random 200;
#X obj 423 199 + 50;
#X obj 294 121 /;
#X obj 420 107 loadbang;
#X obj 513 108 loadbang;
#X obj 592 103 bng 19 250 50 0 empty empty empty 0 -10 0 12 #fcfcfc #000000 #000000;
#X obj 652 111 r randomise_fmchannel_settings;
#X obj 39 144 tgl 15 0 empty empty empty 17 7 0 10 #fcfcfc #000000 #000000 0 1;
#X msg 63 141 1;
#X obj 40 175 metro 3000;
#X obj 42 717 pan 0.5;
#X obj 52 690 *~ 0.5;
#X obj 390 337 r count;
#X obj 390 385 cos;
#X obj 392 413 + 1;
#X obj 392 435 / 2;
#X obj 456 337 vsl 19 162 0 1 0 0 empty empty empty 0 -9 0 12 #fcfcfc #000000 #000000 0 1;
#X obj 390 361 /;
#X obj 392 485 min 8000;
#X floatatom 395 536 5 0 0 0 - - - 0;
#X obj 487 339 loadbang;
#X obj 487 363 random 300;
#X obj 487 387 + 50;
#X floatatom 487 411 5 0 0 0 - - - 0;
#X obj 487 434 bng 19 250 50 0 empty empty empty 0 -10 0 12 #fcfcfc #000000 #000000;
#X obj 557 338 bng 19 250 50 0 empty empty empty 0 -10 0 12 #fcfcfc #000000 #000000;
#X obj 82 209 f;
#X msg 84 235 1 10 \, 0 \$1 10;
#X obj 25 288 + 100;
#X floatatom 25 309 5 0 0 0 - - - 0;
#X obj 25 269 random 50;
#N canvas 0 541 450 300 filter 0;
#X obj 167 107 / 1000;
#X obj 166 127 + 0.3;
#X obj 168 85 random 700;
#X obj 118 41 t b b;
#X obj 109 169 *~;
#X obj 83 113 *;
#X obj 112 107 + 1;
#X obj 117 59 random 30;
#X obj 62 17 inlet~;
#X obj 92 211 outlet~;
#X obj 69 137 bp~ 1000 100;
#X obj 197 14 inlet;
#X obj 257 12 inlet;
#X connect 0 0 1 0;
#X connect 1 0 4 1;
#X connect 2 0 0 0;
#X connect 3 0 7 0;
#X connect 3 1 2 0;
#X connect 4 0 9 0;
#X connect 5 0 10 1;
#X connect 6 0 5 1;
#X connect 7 0 6 0;
#X connect 8 0 10 0;
#X connect 10 0 4 0;
#X connect 11 0 3 0;
#X connect 12 0 5 0;
#X restore 136 480 pd filter;
#N canvas 0 541 450 300 filter 0;
#X obj 167 107 / 1000;
#X obj 166 127 + 0.3;
#X obj 168 85 random 700;
#X obj 118 41 t b b;
#X obj 109 169 *~;
#X obj 83 113 *;
#X obj 112 107 + 1;
#X obj 117 59 random 30;
#X obj 62 17 inlet~;
#X obj 92 211 outlet~;
#X obj 69 137 bp~ 1000 100;
#X obj 197 14 inlet;
#X obj 257 12 inlet;
#X connect 0 0 1 0;
#X connect 1 0 4 1;
#X connect 2 0 0 0;
#X connect 3 0 7 0;
#X connect 3 1 2 0;
#X connect 4 0 9 0;
#X connect 5 0 10 1;
#X connect 6 0 5 1;
#X connect 7 0 6 0;
#X connect 8 0 10 0;
#X connect 10 0 4 0;
#X connect 11 0 3 0;
#X connect 12 0 5 0;
#X restore 210 477 pd filter;
#N canvas -1270 541 450 300 filter 0;
#X obj 167 107 / 1000;
#X obj 166 127 + 0.3;
#X obj 168 85 random 700;
#X obj 118 41 t b b;
#X obj 109 169 *~;
#X obj 83 113 *;
#X obj 112 107 + 1;
#X obj 117 59 random 30;
#X obj 62 17 inlet~;
#X obj 92 211 outlet~;
#X obj 69 137 bp~ 1000 100;
#X obj 197 14 inlet;
#X obj 257 12 inlet;
#X connect 0 0 1 0;
#X connect 1 0 4 1;
#X connect 2 0 0 0;
#X connect 3 0 7 0;
#X connect 3 1 2 0;
#X connect 4 0 9 0;
#X connect 5 0 10 1;
#X connect 6 0 5 1;
#X connect 7 0 6 0;
#X connect 8 0 10 0;
#X connect 10 0 4 0;
#X connect 11 0 3 0;
#X connect 12 0 5 0;
#X restore 285 478 pd filter;
#X obj 699 271 random 3000;
#X obj 708 309 + 2000;
#X obj 393 510 max 1000;
#X obj 392 460 * 10000;
#X connect 0 0 1 0;
#X connect 1 0 2 0;
#X connect 2 0 3 0;
#X connect 3 0 4 0;
#X connect 4 0 35 1;
#X connect 7 0 11 0;
#X connect 8 0 9 1;
#X connect 9 0 10 0;
#X connect 9 0 56 0;
#X connect 9 0 57 0;
#X connect 9 0 58 0;
#X connect 10 0 36 0;
#X connect 11 0 9 0;
#X connect 12 0 27 0;
#X connect 13 0 14 0;
#X connect 14 0 15 0;
#X connect 15 0 16 0;
#X connect 16 0 17 0;
#X connect 16 0 18 0;
#X connect 17 0 11 2;
#X connect 19 0 26 0;
#X connect 20 0 19 0;
#X connect 21 0 1 1;
#X connect 22 0 25 0;
#X connect 23 0 27 1;
#X connect 24 0 23 0;
#X connect 25 0 24 0;
#X connect 26 0 21 0;
#X connect 27 0 13 0;
#X connect 28 0 20 0;
#X connect 29 0 22 0;
#X connect 30 0 22 0;
#X connect 30 0 20 0;
#X connect 30 0 33 0;
#X connect 30 0 59 0;
#X connect 31 0 30 0;
#X connect 32 0 34 0;
#X connect 33 0 32 0;
#X connect 34 0 10 1;
#X connect 34 0 51 0;
#X connect 34 0 55 0;
#X connect 34 0 56 1;
#X connect 34 0 57 1;
#X connect 34 0 58 1;
#X connect 35 0 6 0;
#X connect 35 1 5 0;
#X connect 36 0 35 0;
#X connect 37 0 42 0;
#X connect 38 0 39 0;
#X connect 39 0 40 0;
#X connect 40 0 62 0;
#X connect 40 0 41 0;
#X connect 42 0 38 0;
#X connect 43 0 61 0;
#X connect 44 0 51 1;
#X connect 45 0 46 0;
#X connect 46 0 47 0;
#X connect 47 0 48 0;
#X connect 48 0 42 1;
#X connect 48 0 49 0;
#X connect 50 0 46 0;
#X connect 51 0 52 0;
#X connect 52 0 8 0;
#X connect 53 0 54 0;
#X connect 54 0 10 2;
#X connect 54 0 56 2;
#X connect 54 0 57 2;
#X connect 54 0 58 2;
#X connect 55 0 53 0;
#X connect 56 0 36 0;
#X connect 57 0 36 0;
#X connect 58 0 36 0;
#X connect 59 0 60 0;
#X connect 60 0 34 1;
#X connect 60 0 33 0;
#X connect 61 0 44 0;
#X connect 62 0 43 0;
#X restore 470 68 pd noiseshifter;
#N canvas 0 38 1440 834 noiseshifter 0;
#X obj 16 14 r count;
#X obj 16 38 /;
#X obj 16 62 cos;
#X floatatom 16 86 5 0 0 0 - - - 0;
#X obj 19 110 hsl 162 19 0 127 0 0 empty empty empty -2 -10 0 12 #fcfcfc #000000 #000000 0 1;
#X obj 193 761 throw~ noiseright;
#X obj 30 760 throw~ noiseleft;
#X obj 207 244 noise~;
#X obj 125 264 vline~;
#X obj 103 292 *~;
#N canvas 0 541 450 300 filter 0;
#X obj 167 107 / 1000;
#X obj 166 127 + 0.3;
#X obj 168 85 random 700;
#X obj 118 41 t b b;
#X obj 109 169 *~;
#X obj 83 113 *;
#X obj 112 107 + 1;
#X obj 117 59 random 30;
#X obj 62 17 inlet~;
#X obj 92 211 outlet~;
#X obj 69 137 bp~ 1000 100;
#X obj 197 14 inlet;
#X obj 257 12 inlet;
#X connect 0 0 1 0;
#X connect 1 0 4 1;
#X connect 2 0 0 0;
#X connect 3 0 7 0;
#X connect 3 1 2 0;
#X connect 4 0 9 0;
#X connect 5 0 10 1;
#X connect 6 0 5 1;
#X connect 7 0 6 0;
#X connect 8 0 10 0;
#X connect 10 0 4 0;
#X connect 11 0 3 0;
#X connect 12 0 5 0;
#X restore 61 479 pd filter;
#X obj 212 268 stereovol;
#X obj 294 97 r count;
#X obj 294 145 cos;
#X obj 296 173 + 1;
#X obj 296 195 / 2;
#X obj 296 220 * 150;
#X obj 296 245 min 100;
#X obj 360 97 vsl 19 162 0 150 0 0 empty empty empty 0 -9 0 12 #fcfcfc #000000 #000000 0 1;
#X obj 421 170 random 300;
#X obj 421 144 bng 19 250 50 0 empty empty empty 0 -10 0 12 #fcfcfc #000000 #000000;
#X floatatom 427 244 5 0 0 0 - - - 0;
#X obj 512 144 bng 19 250 50 0 empty empty empty 0 -10 0 12 #fcfcfc #000000 #000000;
#X floatatom 521 241 5 0 0 0 - - - 0;
#X obj 522 197 + 100;
#X obj 512 170 random 200;
#X obj 423 199 + 50;
#X obj 294 121 /;
#X obj 420 107 loadbang;
#X obj 513 108 loadbang;
#X obj 592 103 bng 19 250 50 0 empty empty empty 0 -10 0 12 #fcfcfc #000000 #000000;
#X obj 652 111 r randomise_fmchannel_settings;
#X obj 39 144 tgl 15 0 empty empty empty 17 7 0 10 #fcfcfc #000000 #000000 0 1;
#X msg 63 141 1;
#X obj 40 175 metro 3000;
#X obj 42 717 pan 0.5;
#X obj 52 690 *~ 0.5;
#X obj 390 337 r count;
#X obj 390 385 cos;
#X obj 392 413 + 1;
#X obj 392 435 / 2;
#X obj 456 337 vsl 19 162 0 1 0 0 empty empty empty 0 -9 0 12 #fcfcfc #000000 #000000 0 1;
#X obj 390 361 /;
#X obj 392 485 min 8000;
#X floatatom 395 536 5 0 0 0 - - - 0;
#X obj 487 339 loadbang;
#X obj 487 363 random 300;
#X obj 487 387 + 50;
#X floatatom 487 411 5 0 0 0 - - - 0;
#X obj 487 434 bng 19 250 50 0 empty empty empty 0 -10 0 12 #fcfcfc #000000 #000000;
#X obj 557 338 bng 19 250 50 0 empty empty empty 0 -10 0 12 #fcfcfc #000000 #000000;
#X obj 82 209 f;
#X msg 84 235 1 10 \, 0 \$1 10;
#X obj 25 288 + 100;
#X floatatom 25 309 5 0 0 0 - - - 0;
#X obj 25 269 random 50;
#N canvas 0 541 450 300 filter 0;
#X obj 167 107 / 1000;
#X obj 166 127 + 0.3;
#X obj 168 85 random 700;
#X obj 118 41 t b b;
#X obj 109 169 *~;
#X obj 83 113 *;
#X obj 112 107 + 1;
#X obj 117 59 random 30;
#X obj 62 17 inlet~;
#X obj 92 211 outlet~;
#X obj 69 137 bp~ 1000 100;
#X obj 197 14 inlet;
#X obj 257 12 inlet;
#X connect 0 0 1 0;
#X connect 1 0 4 1;
#X connect 2 0 0 0;
#X connect 3 0 7 0;
#X connect 3 1 2 0;
#X connect 4 0 9 0;
#X connect 5 0 10 1;
#X connect 6 0 5 1;
#X connect 7 0 6 0;
#X connect 8 0 10 0;
#X connect 10 0 4 0;
#X connect 11 0 3 0;
#X connect 12 0 5 0;
#X restore 136 480 pd filter;
#N canvas 0 541 450 300 filter 0;
#X obj 167 107 / 1000;
#X obj 166 127 + 0.3;
#X obj 168 85 random 700;
#X obj 118 41 t b b;
#X obj 109 169 *~;
#X obj 83 113 *;
#X obj 112 107 + 1;
#X obj 117 59 random 30;
#X obj 62 17 inlet~;
#X obj 92 211 outlet~;
#X obj 69 137 bp~ 1000 100;
#X obj 197 14 inlet;
#X obj 257 12 inlet;
#X connect 0 0 1 0;
#X connect 1 0 4 1;
#X connect 2 0 0 0;
#X connect 3 0 7 0;
#X connect 3 1 2 0;
#X connect 4 0 9 0;
#X connect 5 0 10 1;
#X connect 6 0 5 1;
#X connect 7 0 6 0;
#X connect 8 0 10 0;
#X connect 10 0 4 0;
#X connect 11 0 3 0;
#X connect 12 0 5 0;
#X restore 210 477 pd filter;
#N canvas -1270 541 450 300 filter 0;
#X obj 167 107 / 1000;
#X obj 166 127 + 0.3;
#X obj 168 85 random 700;
#X obj 118 41 t b b;
#X obj 109 169 *~;
#X obj 83 113 *;
#X obj 112 107 + 1;
#X obj 117 59 random 30;
#X obj 62 17 inlet~;
#X obj 92 211 outlet~;
#X obj 69 137 bp~ 1000 100;
#X obj 197 14 inlet;
#X obj 257 12 inlet;
#X connect 0 0 1 0;
#X connect 1 0 4 1;
#X connect 2 0 0 0;
#X connect 3 0 7 0;
#X connect 3 1 2 0;
#X connect 4 0 9 0;
#X connect 5 0 10 1;
#X connect 6 0 5 1;
#X connect 7 0 6 0;
#X connect 8 0 10 0;
#X connect 10 0 4 0;
#X connect 11 0 3 0;
#X connect 12 0 5 0;
#X restore 285 478 pd filter;
#X obj 699 271 random 3000;
#X obj 708 309 + 2000;
#X obj 393 510 max 1000;
#X obj 392 460 * 10000;
#X connect 0 0 1 0;
#X connect 1 0 2 0;
#X connect 2 0 3 0;
#X connect 3 0 4 0;
#X connect 4 0 35 1;
#X connect 7 0 11 0;
#X connect 8 0 9 1;
#X connect 9 0 10 0;
#X connect 9 0 56 0;
#X connect 9 0 57 0;
#X connect 9 0 58 0;
#X connect 10 0 36 0;
#X connect 11 0 9 0;
#X connect 12 0 27 0;
#X connect 13 0 14 0;
#X connect 14 0 15 0;
#X connect 15 0 16 0;
#X connect 16 0 17 0;
#X connect 16 0 18 0;
#X connect 17 0 11 2;
#X connect 19 0 26 0;
#X connect 20 0 19 0;
#X connect 21 0 1 1;
#X connect 22 0 25 0;
#X connect 23 0 27 1;
#X connect 24 0 23 0;
#X connect 25 0 24 0;
#X connect 26 0 21 0;
#X connect 27 0 13 0;
#X connect 28 0 20 0;
#X connect 29 0 22 0;
#X connect 30 0 22 0;
#X connect 30 0 20 0;
#X connect 30 0 33 0;
#X connect 30 0 59 0;
#X connect 31 0 30 0;
#X connect 32 0 34 0;
#X connect 33 0 32 0;
#X connect 34 0 10 1;
#X connect 34 0 51 0;
#X connect 34 0 55 0;
#X connect 34 0 56 1;
#X connect 34 0 57 1;
#X connect 34 0 58 1;
#X connect 35 0 6 0;
#X connect 35 1 5 0;
#X connect 36 0 35 0;
#X connect 37 0 42 0;
#X connect 38 0 39 0;
#X connect 39 0 40 0;
#X connect 40 0 62 0;
#X connect 40 0 41 0;
#X connect 42 0 38 0;
#X connect 43 0 61 0;
#X connect 44 0 51 1;
#X connect 45 0 46 0;
#X connect 46 0 47 0;
#X connect 47 0 48 0;
#X connect 48 0 42 1;
#X connect 48 0 49 0;
#X connect 50 0 46 0;
#X connect 51 0 52 0;
#X connect 52 0 8 0;
#X connect 53 0 54 0;
#X connect 54 0 10 2;
#X connect 54 0 56 2;
#X connect 54 0 57 2;
#X connect 54 0 58 2;
#X connect 55 0 53 0;
#X connect 56 0 36 0;
#X connect 57 0 36 0;
#X connect 58 0 36 0;
#X connect 59 0 60 0;
#X connect 60 0 34 1;
#X connect 60 0 33 0;
#X connect 61 0 44 0;
#X connect 62 0 43 0;
#X restore 586 95 pd noiseshifter;
#N canvas 0 38 1440 834 noiseshifter 0;
#X obj 16 14 r count;
#X obj 16 38 /;
#X obj 16 62 cos;
#X floatatom 16 86 5 0 0 0 - - - 0;
#X obj 19 110 hsl 162 19 0 127 0 0 empty empty empty -2 -10 0 12 #fcfcfc #000000 #000000 0 1;
#X obj 193 761 throw~ noiseright;
#X obj 30 760 throw~ noiseleft;
#X obj 207 244 noise~;
#X obj 125 264 vline~;
#X obj 103 292 *~;
#N canvas 0 541 450 300 filter 0;
#X obj 167 107 / 1000;
#X obj 166 127 + 0.3;
#X obj 168 85 random 700;
#X obj 118 41 t b b;
#X obj 109 169 *~;
#X obj 83 113 *;
#X obj 112 107 + 1;
#X obj 117 59 random 30;
#X obj 62 17 inlet~;
#X obj 92 211 outlet~;
#X obj 69 137 bp~ 1000 100;
#X obj 197 14 inlet;
#X obj 257 12 inlet;
#X connect 0 0 1 0;
#X connect 1 0 4 1;
#X connect 2 0 0 0;
#X connect 3 0 7 0;
#X connect 3 1 2 0;
#X connect 4 0 9 0;
#X connect 5 0 10 1;
#X connect 6 0 5 1;
#X connect 7 0 6 0;
#X connect 8 0 10 0;
#X connect 10 0 4 0;
#X connect 11 0 3 0;
#X connect 12 0 5 0;
#X restore 61 479 pd filter;
#X obj 212 268 stereovol;
#X obj 294 97 r count;
#X obj 294 145 cos;
#X obj 296 173 + 1;
#X obj 296 195 / 2;
#X obj 296 220 * 150;
#X obj 296 245 min 100;
#X obj 360 97 vsl 19 162 0 150 0 0 empty empty empty 0 -9 0 12 #fcfcfc #000000 #000000 0 1;
#X obj 421 170 random 300;
#X obj 421 144 bng 19 250 50 0 empty empty empty 0 -10 0 12 #fcfcfc #000000 #000000;
#X floatatom 427 244 5 0 0 0 - - - 0;
#X obj 512 144 bng 19 250 50 0 empty empty empty 0 -10 0 12 #fcfcfc #000000 #000000;
#X floatatom 521 241 5 0 0 0 - - - 0;
#X obj 522 197 + 100;
#X obj 512 170 random 200;
#X obj 423 199 + 50;
#X obj 294 121 /;
#X obj 420 107 loadbang;
#X obj 513 108 loadbang;
#X obj 592 103 bng 19 250 50 0 empty empty empty 0 -10 0 12 #fcfcfc #000000 #000000;
#X obj 652 111 r randomise_fmchannel_settings;
#X obj 39 144 tgl 15 0 empty empty empty 17 7 0 10 #fcfcfc #000000 #000000 0 1;
#X msg 63 141 1;
#X obj 40 175 metro 3000;
#X obj 42 717 pan 0.5;
#X obj 52 690 *~ 0.5;
#X obj 390 337 r count;
#X obj 390 385 cos;
#X obj 392 413 + 1;
#X obj 392 435 / 2;
#X obj 456 337 vsl 19 162 0 1 0 0 empty empty empty 0 -9 0 12 #fcfcfc #000000 #000000 0 1;
#X obj 390 361 /;
#X obj 392 485 min 8000;
#X floatatom 395 536 5 0 0 0 - - - 0;
#X obj 487 339 loadbang;
#X obj 487 363 random 300;
#X obj 487 387 + 50;
#X floatatom 487 411 5 0 0 0 - - - 0;
#X obj 487 434 bng 19 250 50 0 empty empty empty 0 -10 0 12 #fcfcfc #000000 #000000;
#X obj 557 338 bng 19 250 50 0 empty empty empty 0 -10 0 12 #fcfcfc #000000 #000000;
#X obj 82 209 f;
#X msg 84 235 1 10 \, 0 \$1 10;
#X obj 25 288 + 100;
#X floatatom 25 309 5 0 0 0 - - - 0;
#X obj 25 269 random 50;
#N canvas 0 541 450 300 filter 0;
#X obj 167 107 / 1000;
#X obj 166 127 + 0.3;
#X obj 168 85 random 700;
#X obj 118 41 t b b;
#X obj 109 169 *~;
#X obj 83 113 *;
#X obj 112 107 + 1;
#X obj 117 59 random 30;
#X obj 62 17 inlet~;
#X obj 92 211 outlet~;
#X obj 69 137 bp~ 1000 100;
#X obj 197 14 inlet;
#X obj 257 12 inlet;
#X connect 0 0 1 0;
#X connect 1 0 4 1;
#X connect 2 0 0 0;
#X connect 3 0 7 0;
#X connect 3 1 2 0;
#X connect 4 0 9 0;
#X connect 5 0 10 1;
#X connect 6 0 5 1;
#X connect 7 0 6 0;
#X connect 8 0 10 0;
#X connect 10 0 4 0;
#X connect 11 0 3 0;
#X connect 12 0 5 0;
#X restore 136 480 pd filter;
#N canvas 0 541 450 300 filter 0;
#X obj 167 107 / 1000;
#X obj 166 127 + 0.3;
#X obj 168 85 random 700;
#X obj 118 41 t b b;
#X obj 109 169 *~;
#X obj 83 113 *;
#X obj 112 107 + 1;
#X obj 117 59 random 30;
#X obj 62 17 inlet~;
#X obj 92 211 outlet~;
#X obj 69 137 bp~ 1000 100;
#X obj 197 14 inlet;
#X obj 257 12 inlet;
#X connect 0 0 1 0;
#X connect 1 0 4 1;
#X connect 2 0 0 0;
#X connect 3 0 7 0;
#X connect 3 1 2 0;
#X connect 4 0 9 0;
#X connect 5 0 10 1;
#X connect 6 0 5 1;
#X connect 7 0 6 0;
#X connect 8 0 10 0;
#X connect 10 0 4 0;
#X connect 11 0 3 0;
#X connect 12 0 5 0;
#X restore 210 477 pd filter;
#N canvas -1270 541 450 300 filter 0;
#X obj 167 107 / 1000;
#X obj 166 127 + 0.3;
#X obj 168 85 random 700;
#X obj 118 41 t b b;
#X obj 109 169 *~;
#X obj 83 113 *;
#X obj 112 107 + 1;
#X obj 117 59 random 30;
#X obj 62 17 inlet~;
#X obj 92 211 outlet~;
#X obj 69 137 bp~ 1000 100;
#X obj 197 14 inlet;
#X obj 257 12 inlet;
#X connect 0 0 1 0;
#X connect 1 0 4 1;
#X connect 2 0 0 0;
#X connect 3 0 7 0;
#X connect 3 1 2 0;
#X connect 4 0 9 0;
#X connect 5 0 10 1;
#X connect 6 0 5 1;
#X connect 7 0 6 0;
#X connect 8 0 10 0;
#X connect 10 0 4 0;
#X connect 11 0 3 0;
#X connect 12 0 5 0;
#X restore 285 478 pd filter;
#X obj 699 271 random 3000;
#X obj 708 309 + 2000;
#X obj 393 510 max 1000;
#X obj 392 460 * 10000;
#X connect 0 0 1 0;
#X connect 1 0 2 0;
#X connect 2 0 3 0;
#X connect 3 0 4 0;
#X connect 4 0 35 1;
#X connect 7 0 11 0;
#X connect 8 0 9 1;
#X connect 9 0 10 0;
#X connect 9 0 56 0;
#X connect 9 0 57 0;
#X connect 9 0 58 0;
#X connect 10 0 36 0;
#X connect 11 0 9 0;
#X connect 12 0 27 0;
#X connect 13 0 14 0;
#X connect 14 0 15 0;
#X connect 15 0 16 0;
#X connect 16 0 17 0;
#X connect 16 0 18 0;
#X connect 17 0 11 2;
#X connect 19 0 26 0;
#X connect 20 0 19 0;
#X connect 21 0 1 1;
#X connect 22 0 25 0;
#X connect 23 0 27 1;
#X connect 24 0 23 0;
#X connect 25 0 24 0;
#X connect 26 0 21 0;
#X connect 27 0 13 0;
#X connect 28 0 20 0;
#X connect 29 0 22 0;
#X connect 30 0 22 0;
#X connect 30 0 20 0;
#X connect 30 0 33 0;
#X connect 30 0 59 0;
#X connect 31 0 30 0;
#X connect 32 0 34 0;
#X connect 33 0 32 0;
#X connect 34 0 10 1;
#X connect 34 0 51 0;
#X connect 34 0 55 0;
#X connect 34 0 56 1;
#X connect 34 0 57 1;
#X connect 34 0 58 1;
#X connect 35 0 6 0;
#X connect 35 1 5 0;
#X connect 36 0 35 0;
#X connect 37 0 42 0;
#X connect 38 0 39 0;
#X connect 39 0 40 0;
#X connect 40 0 62 0;
#X connect 40 0 41 0;
#X connect 42 0 38 0;
#X connect 43 0 61 0;
#X connect 44 0 51 1;
#X connect 45 0 46 0;
#X connect 46 0 47 0;
#X connect 47 0 48 0;
#X connect 48 0 42 1;
#X connect 48 0 49 0;
#X connect 50 0 46 0;
#X connect 51 0 52 0;
#X connect 52 0 8 0;
#X connect 53 0 54 0;
#X connect 54 0 10 2;
#X connect 54 0 56 2;
#X connect 54 0 57 2;
#X connect 54 0 58 2;
#X connect 55 0 53 0;
#X connect 56 0 36 0;
#X connect 57 0 36 0;
#X connect 58 0 36 0;
#X connect 59 0 60 0;
#X connect 60 0 34 1;
#X connect 60 0 33 0;
#X connect 61 0 44 0;
#X connect 62 0 43 0;
#X restore 586 68 pd noiseshifter;
#N canvas -1484 0 1017 563 fmchannel 0;
#X obj 52 64 cos;
#X floatatom 53 88 7 0 0 0 - - - 0;
#X obj 56 109 hsl 128 15 -1 1 0 0 empty empty empty -2 -8 0 10 #fcfcfc #000000 #000000 0 1;
#N canvas -2257 32 618 659 fm_pad_panner 0;
#X obj 112 308 fmsynth 1 0.1;
#X obj 170 270 vline~;
#X floatatom 107 229 5 0 0 0 - - - 0;
#X obj 107 252 mtof;
#X obj 169 228 bng 15 250 50 0 empty empty empty 17 7 0 10 #fcfcfc #000000 #000000;
#X msg 170 249 1 1000 \, 0 3000 1000;
#X obj 109 133 metro;
#X obj 65 98 tgl 15 0 empty empty empty 17 7 0 10 #fcfcfc #000000 #000000 0 1;
#X floatatom 149 133 5 0 0 0 - - - 0;
#X obj 142 74 bng 15 250 50 0 empty empty empty 17 7 0 10 #fcfcfc #000000 #000000;
#X obj 109 154 bng 15 250 50 0 empty empty empty 17 7 0 10 #fcfcfc #000000 #000000;
#X obj 142 113 + 4000;
#X obj 142 92 random 3000;
#X obj 108 177 random 28;
#X obj 64 58 loadbang;
#X msg 64 79 1;
#X obj 105 379 outlet~;
#X obj 167 380 outlet~;
#X obj 113 353 pan 0.5;
#X obj 317 59 inlet;
#X obj 113 330 *~ 0.3;
#X obj 359 114 loadbang;
#X obj 107 200 mixolydian 36;
#X obj 330 114 bng 19 250 50 0 empty empty empty 0 -10 0 12 #fcfcfc #000000 #000000;
#X floatatom 359 198 5 0 0 0 - - - 0;
#X obj 383 65 r base_key;
#X obj 387 90 r randomise_fmchannel_settings;
#X obj 426 209 r fmchannel_max_note_range;
#X obj 358 165 + 7;
#X obj 358 137 random 21;
#X connect 0 0 20 0;
#X connect 1 0 0 1;
#X connect 2 0 3 0;
#X connect 2 0 4 0;
#X connect 3 0 0 0;
#X connect 4 0 5 0;
#X connect 5 0 1 0;
#X connect 6 0 10 0;
#X connect 7 0 6 0;
#X connect 9 0 12 0;
#X connect 10 0 12 0;
#X connect 10 0 13 0;
#X connect 11 0 6 1;
#X connect 11 0 8 0;
#X connect 12 0 11 0;
#X connect 13 0 22 0;
#X connect 14 0 15 0;
#X connect 15 0 7 0;
#X connect 18 0 16 0;
#X connect 18 1 17 0;
#X connect 19 0 18 1;
#X connect 20 0 18 0;
#X connect 21 0 29 0;
#X connect 22 0 2 0;
#X connect 23 0 29 0;
#X connect 25 0 22 1;
#X connect 26 0 29 0;
#X connect 27 0 29 1;
#X connect 28 0 13 1;
#X connect 28 0 24 0;
#X connect 29 0 28 0;
#X restore 56 155 pd fm_pad_panner;
#X obj 52 18 r count;
#X obj 50 205 stereovol;
#X obj 209 24 r count;
#X obj 209 72 cos;
#X obj 211 100 + 1;
#X obj 211 122 / 2;
#X obj 211 147 * 150;
#X obj 211 172 min 100;
#X obj 275 24 vsl 19 162 0 150 0 0 empty empty empty 0 -9 0 12 #fcfcfc #000000 #000000 0 1;
#X obj 44 254 throw~ fmleft;
#X obj 87 283 throw~ fmright;
#X obj 336 97 random 300;
#X obj 336 71 bng 19 250 50 0 empty empty empty 0 -10 0 12 #fcfcfc #000000 #000000;
#X floatatom 342 171 5 0 0 0 - - - 0;
#X obj 427 71 bng 19 250 50 0 empty empty empty 0 -10 0 12 #fcfcfc #000000 #000000;
#X floatatom 436 168 5 0 0 0 - - - 0;
#X obj 437 124 + 100;
#X obj 427 97 random 200;
#X obj 338 126 + 50;
#X obj 52 41 /, f 6;
#X obj 209 48 /;
#X obj 335 34 loadbang;
#X obj 428 35 loadbang;
#X obj 507 30 bng 19 250 50 0 empty empty empty 0 -10 0 12 #fcfcfc #000000 #000000;
#X obj 567 38 r randomise_fmchannel_settings;
#X connect 0 0 1 0;
#X connect 1 0 2 0;
#X connect 2 0 3 0;
#X connect 3 0 5 0;
#X connect 3 1 5 1;
#X connect 4 0 23 0;
#X connect 5 0 13 0;
#X connect 5 1 14 0;
#X connect 6 0 24 0;
#X connect 7 0 8 0;
#X connect 8 0 9 0;
#X connect 9 0 10 0;
#X connect 10 0 11 0;
#X connect 10 0 12 0;
#X connect 11 0 5 2;
#X connect 15 0 22 0;
#X connect 16 0 15 0;
#X connect 17 0 23 1;
#X connect 18 0 21 0;
#X connect 19 0 24 1;
#X connect 20 0 19 0;
#X connect 21 0 20 0;
#X connect 22 0 17 0;
#X connect 23 0 0 0;
#X connect 24 0 7 0;
#X connect 25 0 16 0;
#X connect 26 0 18 0;
#X connect 27 0 18 0;
#X connect 27 0 16 0;
#X connect 28 0 27 0;
#X restore 140 58 pd fmchannel;
#N canvas -1484 0 1017 563 fmchannel 0;
#X obj 52 64 cos;
#X floatatom 53 88 7 0 0 0 - - - 0;
#X obj 56 109 hsl 128 15 -1 1 0 0 empty empty empty -2 -8 0 10 #fcfcfc #000000 #000000 0 1;
#N canvas -2257 32 618 659 fm_pad_panner 0;
#X obj 112 308 fmsynth 1 0.1;
#X obj 170 270 vline~;
#X floatatom 107 229 5 0 0 0 - - - 0;
#X obj 107 252 mtof;
#X obj 169 228 bng 15 250 50 0 empty empty empty 17 7 0 10 #fcfcfc #000000 #000000;
#X msg 170 249 1 1000 \, 0 3000 1000;
#X obj 109 133 metro;
#X obj 65 98 tgl 15 0 empty empty empty 17 7 0 10 #fcfcfc #000000 #000000 0 1;
#X floatatom 149 133 5 0 0 0 - - - 0;
#X obj 142 74 bng 15 250 50 0 empty empty empty 17 7 0 10 #fcfcfc #000000 #000000;
#X obj 109 154 bng 15 250 50 0 empty empty empty 17 7 0 10 #fcfcfc #000000 #000000;
#X obj 142 113 + 4000;
#X obj 142 92 random 3000;
#X obj 108 177 random 28;
#X obj 64 58 loadbang;
#X msg 64 79 1;
#X obj 105 379 outlet~;
#X obj 167 380 outlet~;
#X obj 113 353 pan 0.5;
#X obj 317 59 inlet;
#X obj 113 330 *~ 0.3;
#X obj 359 114 loadbang;
#X obj 107 200 mixolydian 36;
#X obj 330 114 bng 19 250 50 0 empty empty empty 0 -10 0 12 #fcfcfc #000000 #000000;
#X floatatom 359 198 5 0 0 0 - - - 0;
#X obj 383 65 r base_key;
#X obj 387 90 r randomise_fmchannel_settings;
#X obj 426 209 r fmchannel_max_note_range;
#X obj 358 165 + 7;
#X obj 358 137 random 21;
#X connect 0 0 20 0;
#X connect 1 0 0 1;
#X connect 2 0 3 0;
#X connect 2 0 4 0;
#X connect 3 0 0 0;
#X connect 4 0 5 0;
#X connect 5 0 1 0;
#X connect 6 0 10 0;
#X connect 7 0 6 0;
#X connect 9 0 12 0;
#X connect 10 0 12 0;
#X connect 10 0 13 0;
#X connect 11 0 6 1;
#X connect 11 0 8 0;
#X connect 12 0 11 0;
#X connect 13 0 22 0;
#X connect 14 0 15 0;
#X connect 15 0 7 0;
#X connect 18 0 16 0;
#X connect 18 1 17 0;
#X connect 19 0 18 1;
#X connect 20 0 18 0;
#X connect 21 0 29 0;
#X connect 22 0 2 0;
#X connect 23 0 29 0;
#X connect 25 0 22 1;
#X connect 26 0 29 0;
#X connect 27 0 29 1;
#X connect 28 0 13 1;
#X connect 28 0 24 0;
#X connect 29 0 28 0;
#X restore 56 155 pd fm_pad_panner;
#X obj 52 18 r count;
#X obj 50 205 stereovol;
#X obj 209 24 r count;
#X obj 209 72 cos;
#X obj 211 100 + 1;
#X obj 211 122 / 2;
#X obj 211 147 * 150;
#X obj 211 172 min 100;
#X obj 275 24 vsl 19 162 0 150 0 0 empty empty empty 0 -9 0 12 #fcfcfc #000000 #000000 0 1;
#X obj 44 254 throw~ fmleft;
#X obj 87 283 throw~ fmright;
#X obj 336 97 random 300;
#X obj 336 71 bng 19 250 50 0 empty empty empty 0 -10 0 12 #fcfcfc #000000 #000000;
#X floatatom 342 171 5 0 0 0 - - - 0;
#X obj 427 71 bng 19 250 50 0 empty empty empty 0 -10 0 12 #fcfcfc #000000 #000000;
#X floatatom 436 168 5 0 0 0 - - - 0;
#X obj 437 124 + 100;
#X obj 427 97 random 200;
#X obj 338 126 + 50;
#X obj 52 41 /, f 6;
#X obj 209 48 /;
#X obj 335 34 loadbang;
#X obj 428 35 loadbang;
#X obj 507 30 bng 19 250 50 0 empty empty empty 0 -10 0 12 #fcfcfc #000000 #000000;
#X obj 567 38 r randomise_fmchannel_settings;
#X connect 0 0 1 0;
#X connect 1 0 2 0;
#X connect 2 0 3 0;
#X connect 3 0 5 0;
#X connect 3 1 5 1;
#X connect 4 0 23 0;
#X connect 5 0 13 0;
#X connect 5 1 14 0;
#X connect 6 0 24 0;
#X connect 7 0 8 0;
#X connect 8 0 9 0;
#X connect 9 0 10 0;
#X connect 10 0 11 0;
#X connect 10 0 12 0;
#X connect 11 0 5 2;
#X connect 15 0 22 0;
#X connect 16 0 15 0;
#X connect 17 0 23 1;
#X connect 18 0 21 0;
#X connect 19 0 24 1;
#X connect 20 0 19 0;
#X connect 21 0 20 0;
#X connect 22 0 17 0;
#X connect 23 0 0 0;
#X connect 24 0 7 0;
#X connect 25 0 16 0;
#X connect 26 0 18 0;
#X connect 27 0 18 0;
#X connect 27 0 16 0;
#X connect 28 0 27 0;
#X restore 141 82 pd fmchannel;
#N canvas 253 33 1206 732 sawshifter 0;
#X obj 273 144 cos;
#X floatatom 274 168 7 0 0 0 - - - 0;
#X obj 273 98 r count;
#X obj 126 603 stereovol;
#X obj 447 79 r count;
#X obj 447 127 cos;
#X obj 449 155 + 1;
#X obj 449 177 / 2;
#X obj 449 202 * 150;
#X obj 449 227 min 100;
#X obj 336 97 random 300;
#X obj 336 71 bng 19 250 50 0 empty empty empty 0 -10 0 12 #fcfcfc #000000 #000000;
#X floatatom 342 171 5 0 0 0 - - - 0;
#X obj 522 81 bng 19 250 50 0 empty empty empty 0 -10 0 12 #fcfcfc #000000 #000000;
#X floatatom 531 178 5 0 0 0 - - - 0;
#X obj 532 134 + 100;
#X obj 522 107 random 200;
#X obj 338 126 + 50;
#X obj 273 121 /, f 6;
#X obj 447 103 /;
#X obj 507 30 bng 19 250 50 0 empty empty empty 0 -10 0 12 #fcfcfc #000000 #000000;
#X obj 391 2 r randomise_fmchannel_settings;
#X obj 120 652 throw~ sawleft;
#X obj 163 681 throw~ sawright;
#X floatatom 71 439 5 0 0 0 - - - 0;
#X obj 73 343 metro;
#X obj 70 279 tgl 15 0 empty empty empty 17 7 0 10 #fcfcfc #000000 #000000 0 1;
#X floatatom 113 343 5 0 0 0 - - - 0;
#X obj 106 284 bng 15 250 50 0 empty empty empty 17 7 0 10 #fcfcfc #000000 #000000;
#X obj 73 364 bng 15 250 50 0 empty empty empty 17 7 0 10 #fcfcfc #000000 #000000;
#X obj 106 323 + 4000;
#X obj 106 302 random 3000;
#X obj 72 387 random 28;
#X obj 69 239 loadbang;
#X msg 69 260 1;
#X obj 77 563 pan 0.5;
#X obj 77 540 *~ 0.3;
#X obj 71 410 mixolydian 36;
#X floatatom 323 408 5 0 0 0 - - - 0;
#X obj 347 275 r base_key;
#X obj 323 302 r randomise_fmchannel_settings;
#X obj 337 325 r fmchannel_max_note_range;
#X obj 322 375 + 7;
#X obj 322 347 random 21;
#X obj 76 518 supersawsynth;
#X obj 941 104 r count;
#X obj 941 152 cos;
#X obj 940 181 * 0.2;
#X obj 696 74 r count;
#X obj 696 122 cos;
#X obj 698 150 + 1;
#X obj 698 172 / 2;
#X obj 698 197 * 5000;
#X obj 698 222 max 1000;
#X obj 698 246 sig~;
#X floatatom 939 205 5 0 0 0 - - - 0;
#X obj 802 74 bng 19 250 50 0 empty empty empty 0 -10 0 12 #fcfcfc #000000 #000000;
#X floatatom 811 171 5 0 0 0 - - - 0;
#X obj 802 100 random 200;
#X obj 1030 71 bng 19 250 50 0 empty empty empty 0 -10 0 12 #fcfcfc #000000 #000000;
#X floatatom 1039 168 5 0 0 0 - - - 0;
#X obj 1040 124 + 100;
#X obj 1030 97 random 200;
#X obj 941 128 /;
#X obj 696 98 /;
#X msg 192 443 1;
#X obj 192 467 sig~;
#X obj 102 481 line;
#X obj 116 453 pack f f;
#X floatatom 34 492 5 0 0 0 - - - 0;
#X obj 812 127 + 200;
#X floatatom 478 177 5 0 0 0 - - - 0;
#X floatatom 731 173 5 0 0 0 - - - 0;
#X connect 0 0 1 0;
#X connect 1 0 35 1;
#X connect 2 0 18 0;
#X connect 3 0 22 0;
#X connect 3 1 23 0;
#X connect 4 0 19 0;
#X connect 5 0 6 0;
#X connect 6 0 7 0;
#X connect 7 0 8 0;
#X connect 7 0 71 0;
#X connect 8 0 9 0;
#X connect 9 0 3 2;
#X connect 10 0 17 0;
#X connect 11 0 10 0;
#X connect 12 0 18 1;
#X connect 13 0 16 0;
#X connect 14 0 19 1;
#X connect 15 0 14 0;
#X connect 16 0 15 0;
#X connect 17 0 12 0;
#X connect 18 0 0 0;
#X connect 19 0 5 0;
#X connect 20 0 13 0;
#X connect 20 0 11 0;
#X connect 20 0 56 0;
#X connect 20 0 59 0;
#X connect 21 0 20 0;
#X connect 24 0 44 0;
#X connect 24 0 65 0;
#X connect 24 0 68 0;
#X connect 25 0 29 0;
#X connect 26 0 25 0;
#X connect 27 0 68 1;
#X connect 28 0 31 0;
#X connect 29 0 31 0;
#X connect 29 0 32 0;
#X connect 30 0 25 1;
#X connect 30 0 27 0;
#X connect 31 0 30 0;
#X connect 32 0 37 0;
#X connect 33 0 34 0;
#X connect 34 0 26 0;
#X connect 35 0 3 0;
#X connect 35 1 3 1;
#X connect 36 0 35 0;
#X connect 37 0 24 0;
#X connect 39 0 37 1;
#X connect 40 0 43 0;
#X connect 41 0 43 1;
#X connect 42 0 32 1;
#X connect 42 0 38 0;
#X connect 43 0 42 0;
#X connect 44 0 36 0;
#X connect 45 0 63 0;
#X connect 46 0 47 0;
#X connect 47 0 44 1;
#X connect 47 0 55 0;
#X connect 48 0 64 0;
#X connect 49 0 50 0;
#X connect 50 0 51 0;
#X connect 51 0 52 0;
#X connect 51 0 72 0;
#X connect 52 0 53 0;
#X connect 53 0 54 0;
#X connect 54 0 44 2;
#X connect 56 0 58 0;
#X connect 57 0 64 1;
#X connect 58 0 70 0;
#X connect 59 0 62 0;
#X connect 60 0 63 1;
#X connect 61 0 60 0;
#X connect 62 0 61 0;
#X connect 63 0 46 0;
#X connect 64 0 49 0;
#X connect 65 0 66 0;
#X connect 66 0 44 3;
#X connect 67 0 44 0;
#X connect 67 0 69 0;
#X connect 68 0 67 0;
#X connect 70 0 57 0;
#X restore 311 93 pd sawshifter;
#X connect 8 0 9 0;
#X connect 10 0 11 0;
#X connect 14 0 8 0;
#X connect 15 0 14 0;
#X connect 15 0 16 0;
#X connect 15 0 26 0;
#X connect 15 0 27 0;
#X connect 15 0 25 0;
#X connect 16 0 10 0;
#X connect 19 0 20 0;
#X connect 21 0 22 0;
#X connect 23 0 24 0;
#X connect 25 0 23 0;
#X connect 26 0 19 0;
#X connect 27 0 21 0;
