#N canvas 134 154 1832 880 12;
#X text 9 12 dream tent soundtrack startup;
#N canvas 0 25 450 300 infcount 0;
#X obj 141 164 outlet;
#X obj 118 56 inlet;
#X obj 215 60 inlet;
#X obj 162 90 metro;
#X obj 145 122 f;
#X obj 178 122 + 1;
#X connect 1 0 3 0;
#X connect 2 0 3 1;
#X connect 3 0 4 0;
#X connect 4 0 5 0;
#X connect 4 0 0 0;
#X connect 5 0 4 1;
#X restore 54 104 pd infcount;
#X obj 54 84 tgl 15 0 empty empty empty 17 7 0 10 #fcfcfc #000000 #000000 0 1;
#X msg 116 73 125;
#X obj 116 50 loadbang;
#X floatatom 54 125 12 0 0 0 - - - 0;
#X obj 180 261 cos;
#X floatatom 180 283 7 0 0 0 - - - 0;
#X obj 183 304 hsl 128 15 -1 1 0 0 empty empty empty -2 -8 0 10 #fcfcfc #000000 #000000 0 1;
#X obj 433 289 cos;
#X floatatom 434 313 7 0 0 0 - - - 0;
#X obj 437 334 hsl 128 15 -1 1 0 0 empty empty empty -2 -8 0 10 #fcfcfc #000000 #000000 0 1;
#X obj 725 260 cos;
#X floatatom 726 284 7 0 0 0 - - - 0;
#X obj 729 305 hsl 128 15 -1 1 0 0 empty empty empty -2 -8 0 10 #fcfcfc #000000 #000000 0 1;
#X obj 1146 300 cos;
#X floatatom 1147 324 7 0 0 0 - - - 0;
#X obj 1150 345 hsl 128 15 -1 1 0 0 empty empty empty -2 -8 0 10 #fcfcfc #000000 #000000 0 1;
#N canvas 1231 217 618 659 fm_pad_panner 0;
#X obj 112 308 fmsynth 1 0.1;
#X obj 170 270 vline~;
#X floatatom 107 229 5 0 0 0 - - - 0;
#X obj 107 252 mtof;
#X obj 169 228 bng 15 250 50 0 empty empty empty 17 7 0 10 #fcfcfc #000000 #000000;
#X msg 170 249 1 1000 \, 0 3000 1000;
#X obj 109 133 metro;
#X obj 65 98 tgl 15 0 empty empty empty 17 7 0 10 #fcfcfc #000000 #000000 0 1;
#X floatatom 149 133 5 0 0 0 - - - 0;
#X obj 142 74 bng 15 250 50 0 empty empty empty 17 7 0 10 #fcfcfc #000000 #000000;
#X obj 109 154 bng 15 250 50 0 empty empty empty 17 7 0 10 #fcfcfc #000000 #000000;
#X obj 142 113 + 4000;
#X obj 142 92 random 3000;
#X obj 108 177 random 28;
#X obj 64 58 loadbang;
#X msg 64 79 1;
#X obj 105 379 outlet~;
#X obj 167 380 outlet~;
#X obj 113 353 pan 0.5;
#X obj 317 59 inlet;
#X obj 113 330 *~ 0.2;
#X obj 107 200 mixolydian 36;
#X connect 0 0 20 0;
#X connect 1 0 0 1;
#X connect 2 0 3 0;
#X connect 2 0 4 0;
#X connect 3 0 0 0;
#X connect 4 0 5 0;
#X connect 5 0 1 0;
#X connect 6 0 10 0;
#X connect 7 0 6 0;
#X connect 9 0 12 0;
#X connect 10 0 12 0;
#X connect 10 0 13 0;
#X connect 11 0 6 1;
#X connect 11 0 8 0;
#X connect 12 0 11 0;
#X connect 13 0 21 0;
#X connect 14 0 15 0;
#X connect 15 0 7 0;
#X connect 18 0 16 0;
#X connect 18 1 17 0;
#X connect 19 0 18 1;
#X connect 20 0 18 0;
#X connect 21 0 2 0;
#X restore 187 346 pd fm_pad_panner;
#N canvas 0 25 618 659 fm_pad_panner 0;
#X obj 112 308 fmsynth 1 0.1;
#X obj 170 270 vline~;
#X floatatom 107 229 5 0 0 0 - - - 0;
#X obj 107 252 mtof;
#X obj 169 228 bng 15 250 50 0 empty empty empty 17 7 0 10 #fcfcfc #000000 #000000;
#X msg 170 249 1 1000 \, 0 3000 1000;
#X obj 109 133 metro;
#X obj 65 98 tgl 15 0 empty empty empty 17 7 0 10 #fcfcfc #000000 #000000 0 1;
#X floatatom 149 133 5 0 0 0 - - - 0;
#X obj 142 74 bng 15 250 50 0 empty empty empty 17 7 0 10 #fcfcfc #000000 #000000;
#X obj 109 154 bng 15 250 50 0 empty empty empty 17 7 0 10 #fcfcfc #000000 #000000;
#X obj 142 113 + 4000;
#X obj 142 92 random 3000;
#X obj 108 177 random 28;
#X obj 64 58 loadbang;
#X msg 64 79 1;
#X obj 105 379 outlet~;
#X obj 167 380 outlet~;
#X obj 113 353 pan 0.5;
#X obj 317 59 inlet;
#X obj 113 330 *~ 0.3;
#X obj 107 201 mixolydian 36;
#X connect 0 0 20 0;
#X connect 1 0 0 1;
#X connect 2 0 3 0;
#X connect 2 0 4 0;
#X connect 3 0 0 0;
#X connect 4 0 5 0;
#X connect 5 0 1 0;
#X connect 6 0 10 0;
#X connect 7 0 6 0;
#X connect 9 0 12 0;
#X connect 10 0 12 0;
#X connect 10 0 13 0;
#X connect 11 0 6 1;
#X connect 11 0 8 0;
#X connect 12 0 11 0;
#X connect 13 0 21 0;
#X connect 14 0 15 0;
#X connect 15 0 7 0;
#X connect 18 0 16 0;
#X connect 18 1 17 0;
#X connect 19 0 18 1;
#X connect 20 0 18 0;
#X connect 21 0 2 0;
#X restore 435 375 pd fm_pad_panner;
#N canvas 0 25 618 659 fm_pad_panner 0;
#X obj 112 308 fmsynth 1 0.1;
#X obj 170 270 vline~;
#X floatatom 107 229 5 0 0 0 - - - 0;
#X obj 107 252 mtof;
#X obj 169 228 bng 15 250 50 0 empty empty empty 17 7 0 10 #fcfcfc #000000 #000000;
#X msg 170 249 1 1000 \, 0 3000 1000;
#X obj 109 133 metro;
#X obj 65 98 tgl 15 0 empty empty empty 17 7 0 10 #fcfcfc #000000 #000000 0 1;
#X floatatom 149 133 5 0 0 0 - - - 0;
#X obj 142 74 bng 15 250 50 0 empty empty empty 17 7 0 10 #fcfcfc #000000 #000000;
#X obj 109 154 bng 15 250 50 0 empty empty empty 17 7 0 10 #fcfcfc #000000 #000000;
#X obj 142 113 + 4000;
#X obj 142 92 random 3000;
#X obj 108 177 random 28;
#X obj 64 58 loadbang;
#X msg 64 79 1;
#X obj 105 379 outlet~;
#X obj 167 380 outlet~;
#X obj 113 353 pan 0.5;
#X obj 317 59 inlet;
#X obj 113 330 *~ 0.3;
#X obj 107 200 mixolydian 36;
#X connect 0 0 20 0;
#X connect 1 0 0 1;
#X connect 2 0 3 0;
#X connect 2 0 4 0;
#X connect 3 0 0 0;
#X connect 4 0 5 0;
#X connect 5 0 1 0;
#X connect 6 0 10 0;
#X connect 7 0 6 0;
#X connect 9 0 12 0;
#X connect 10 0 12 0;
#X connect 10 0 13 0;
#X connect 11 0 6 1;
#X connect 11 0 8 0;
#X connect 12 0 11 0;
#X connect 13 0 21 0;
#X connect 14 0 15 0;
#X connect 15 0 7 0;
#X connect 18 0 16 0;
#X connect 18 1 17 0;
#X connect 19 0 18 1;
#X connect 20 0 18 0;
#X connect 21 0 2 0;
#X restore 729 351 pd fm_pad_panner;
#N canvas 43 43 618 659 fm_pad_panner 0;
#X obj 112 308 fmsynth 1 0.1;
#X obj 170 270 vline~;
#X floatatom 107 229 5 0 0 0 - - - 0;
#X obj 107 252 mtof;
#X obj 169 228 bng 15 250 50 0 empty empty empty 17 7 0 10 #fcfcfc #000000 #000000;
#X msg 170 249 1 1000 \, 0 3000 1000;
#X obj 109 133 metro;
#X obj 65 98 tgl 15 0 empty empty empty 17 7 0 10 #fcfcfc #000000 #000000 0 1;
#X floatatom 149 133 5 0 0 0 - - - 0;
#X obj 142 74 bng 15 250 50 0 empty empty empty 17 7 0 10 #fcfcfc #000000 #000000;
#X obj 109 154 bng 15 250 50 0 empty empty empty 17 7 0 10 #fcfcfc #000000 #000000;
#X obj 142 113 + 4000;
#X obj 142 92 random 3000;
#X obj 108 177 random 28;
#X obj 64 58 loadbang;
#X msg 64 79 1;
#X obj 105 379 outlet~;
#X obj 167 380 outlet~;
#X obj 113 353 pan 0.5;
#X obj 317 59 inlet;
#X obj 113 330 *~ 0.3;
#X obj 107 200 mixolydian 36;
#X connect 0 0 20 0;
#X connect 1 0 0 1;
#X connect 2 0 3 0;
#X connect 2 0 4 0;
#X connect 3 0 0 0;
#X connect 4 0 5 0;
#X connect 5 0 1 0;
#X connect 6 0 10 0;
#X connect 7 0 6 0;
#X connect 9 0 12 0;
#X connect 10 0 12 0;
#X connect 10 0 13 0;
#X connect 11 0 6 1;
#X connect 11 0 8 0;
#X connect 12 0 11 0;
#X connect 13 0 21 0;
#X connect 14 0 15 0;
#X connect 15 0 7 0;
#X connect 18 0 16 0;
#X connect 18 1 17 0;
#X connect 19 0 18 1;
#X connect 20 0 18 0;
#X connect 21 0 2 0;
#X restore 1164 391 pd fm_pad_panner;
#X obj 432 270 / 33;
#X obj 725 237 / 57, f 6;
#X obj 1148 275 / 49;
#X msg 53 64 1;
#X obj 179 242 / 13;
#X obj 186 389 stereovol;
#X obj 54 147 s count;
#X obj 179 217 r count;
#X obj 432 247 r count;
#X obj 725 214 r count;
#X obj 1148 252 r count;
#X obj 318 225 r count;
#X obj 318 273 cos;
#X obj 320 301 + 1;
#X obj 320 323 / 2;
#X obj 320 348 * 150;
#X obj 320 373 min 100;
#X obj 318 249 / 101;
#X obj 384 225 vsl 19 162 0 150 0 0 empty empty empty 0 -9 0 12 #fcfcfc #000000 #000000 0 1;
#X obj 1685 203 r count;
#X obj 1685 251 cos;
#X obj 1687 279 + 1;
#X obj 1687 301 / 2;
#X obj 1687 326 * 150;
#X obj 1687 351 min 100;
#X obj 1685 227 / 101;
#X obj 1751 203 vsl 19 162 0 150 0 0 empty empty empty 0 -9 0 12 #fcfcfc #000000 #000000 0 1;
#X obj 1631 382 stereovol;
#N canvas 608 142 528 556 noiseshifter 1;
#X obj 16 14 r count;
#X obj 58 498 outlet~;
#X obj 158 498 outlet~;
#X obj 72 156 noise~;
#X obj 126 193 *;
#X obj 138 163 noise~;
#X obj 136 203 *;
#X restore 1633 538 pd noiseshifter;
#X obj 435 430 stereovol;
#X obj 723 401 stereovol;
#X obj 1200 512 dac~;
#X obj 1204 458 stereovol;
#X obj 581 241 r count;
#X obj 581 289 cos;
#X obj 583 317 + 1;
#X obj 583 339 / 2;
#X obj 583 364 * 150;
#X obj 583 389 min 100;
#X obj 647 241 vsl 19 162 0 150 0 0 empty empty empty 0 -9 0 12 #fcfcfc #000000 #000000 0 1;
#X obj 581 265 / 103;
#X obj 882 220 r count;
#X obj 882 268 cos;
#X obj 884 296 + 1;
#X obj 884 318 / 2;
#X obj 884 343 * 150;
#X obj 884 368 min 100;
#X obj 948 220 vsl 19 162 0 150 0 0 empty empty empty 0 -9 0 12 #fcfcfc #000000 #000000 0 1;
#N canvas 127 181 557 365 fmchannel 0;
#X obj 52 64 cos;
#X floatatom 53 88 7 0 0 0 - - - 0;
#X obj 56 109 hsl 128 15 -1 1 0 0 empty empty empty -2 -8 0 10 #fcfcfc #000000 #000000 0 1;
#N canvas 0 25 618 659 fm_pad_panner 0;
#X obj 112 308 fmsynth 1 0.1;
#X obj 170 270 vline~;
#X floatatom 107 229 5 0 0 0 - - - 0;
#X obj 107 252 mtof;
#X obj 169 228 bng 15 250 50 0 empty empty empty 17 7 0 10 #fcfcfc #000000 #000000;
#X msg 170 249 1 1000 \, 0 3000 1000;
#X obj 109 133 metro;
#X obj 65 98 tgl 15 0 empty empty empty 17 7 0 10 #fcfcfc #000000 #000000 0 1;
#X floatatom 149 133 5 0 0 0 - - - 0;
#X obj 142 74 bng 15 250 50 0 empty empty empty 17 7 0 10 #fcfcfc #000000 #000000;
#X obj 109 154 bng 15 250 50 0 empty empty empty 17 7 0 10 #fcfcfc #000000 #000000;
#X obj 142 113 + 4000;
#X obj 142 92 random 3000;
#X obj 108 177 random 28;
#X obj 64 58 loadbang;
#X msg 64 79 1;
#X obj 105 379 outlet~;
#X obj 167 380 outlet~;
#X obj 113 353 pan 0.5;
#X obj 317 59 inlet;
#X obj 113 330 *~ 0.3;
#X obj 107 200 mixolydian 36;
#X connect 0 0 20 0;
#X connect 1 0 0 1;
#X connect 2 0 3 0;
#X connect 2 0 4 0;
#X connect 3 0 0 0;
#X connect 4 0 5 0;
#X connect 5 0 1 0;
#X connect 6 0 10 0;
#X connect 7 0 6 0;
#X connect 9 0 12 0;
#X connect 10 0 12 0;
#X connect 10 0 13 0;
#X connect 11 0 6 1;
#X connect 11 0 8 0;
#X connect 12 0 11 0;
#X connect 13 0 21 0;
#X connect 14 0 15 0;
#X connect 15 0 7 0;
#X connect 18 0 16 0;
#X connect 18 1 17 0;
#X connect 19 0 18 1;
#X connect 20 0 18 0;
#X connect 21 0 2 0;
#X restore 56 155 pd fm_pad_panner;
#X obj 52 41 / 57, f 6;
#X obj 52 18 r count;
#X obj 50 205 stereovol;
#X obj 209 24 r count;
#X obj 209 72 cos;
#X obj 211 100 + 1;
#X obj 211 122 / 2;
#X obj 211 147 * 150;
#X obj 211 172 min 100;
#X obj 275 24 vsl 19 162 0 150 0 0 empty empty empty 0 -9 0 12 #fcfcfc #000000 #000000 0 1;
#X obj 209 48 / 107;
#X obj 44 254 throw~ fmleft;
#X obj 87 283 throw~ fmright;
#X connect 0 0 1 0;
#X connect 1 0 2 0;
#X connect 2 0 3 0;
#X connect 3 0 6 0;
#X connect 3 1 6 1;
#X connect 4 0 0 0;
#X connect 5 0 4 0;
#X connect 6 0 15 0;
#X connect 6 1 16 0;
#X connect 7 0 14 0;
#X connect 8 0 9 0;
#X connect 9 0 10 0;
#X connect 10 0 11 0;
#X connect 11 0 12 0;
#X connect 11 0 13 0;
#X connect 12 0 6 2;
#X connect 14 0 8 0;
#X restore 48 247 pd fmchannel;
#X obj 882 244 / 105;
#X obj 67 622 dac~;
#X obj 53 558 catch~ fmleft;
#X obj 155 558 catch~ fmright;
#X obj 52 589 rev2~ 30 90 3000 20, f 23;
#X obj 186 432 throw~ fmleft;
#X obj 186 456 throw~ fmright;
#X obj 435 472 throw~ fmleft;
#X obj 435 496 throw~ fmright;
#X obj 723 443 throw~ fmleft;
#X obj 723 467 throw~ fmright;
#N canvas 239 597 557 365 fmchannel 0;
#X obj 52 64 cos;
#X floatatom 53 88 7 0 0 0 - - - 0;
#X obj 56 109 hsl 128 15 -1 1 0 0 empty empty empty -2 -8 0 10 #fcfcfc #000000 #000000 0 1;
#N canvas 0 25 618 659 fm_pad_panner 0;
#X obj 112 308 fmsynth 1 0.1;
#X obj 170 270 vline~;
#X floatatom 107 229 5 0 0 0 - - - 0;
#X obj 107 252 mtof;
#X obj 169 228 bng 15 250 50 0 empty empty empty 17 7 0 10 #fcfcfc #000000 #000000;
#X msg 170 249 1 1000 \, 0 3000 1000;
#X obj 109 133 metro;
#X obj 65 98 tgl 15 0 empty empty empty 17 7 0 10 #fcfcfc #000000 #000000 0 1;
#X floatatom 149 133 5 0 0 0 - - - 0;
#X obj 142 74 bng 15 250 50 0 empty empty empty 17 7 0 10 #fcfcfc #000000 #000000;
#X obj 109 154 bng 15 250 50 0 empty empty empty 17 7 0 10 #fcfcfc #000000 #000000;
#X obj 142 113 + 4000;
#X obj 142 92 random 3000;
#X obj 108 177 random 28;
#X obj 64 58 loadbang;
#X msg 64 79 1;
#X obj 105 379 outlet~;
#X obj 167 380 outlet~;
#X obj 113 353 pan 0.5;
#X obj 317 59 inlet;
#X obj 113 330 *~ 0.3;
#X obj 107 200 mixolydian 36;
#X connect 0 0 20 0;
#X connect 1 0 0 1;
#X connect 2 0 3 0;
#X connect 2 0 4 0;
#X connect 3 0 0 0;
#X connect 4 0 5 0;
#X connect 5 0 1 0;
#X connect 6 0 10 0;
#X connect 7 0 6 0;
#X connect 9 0 12 0;
#X connect 10 0 12 0;
#X connect 10 0 13 0;
#X connect 11 0 6 1;
#X connect 11 0 8 0;
#X connect 12 0 11 0;
#X connect 13 0 21 0;
#X connect 14 0 15 0;
#X connect 15 0 7 0;
#X connect 18 0 16 0;
#X connect 18 1 17 0;
#X connect 19 0 18 1;
#X connect 20 0 18 0;
#X connect 21 0 2 0;
#X restore 56 155 pd fm_pad_panner;
#X obj 52 41 / 57, f 6;
#X obj 52 18 r count;
#X obj 50 205 stereovol;
#X obj 209 24 r count;
#X obj 209 72 cos;
#X obj 211 100 + 1;
#X obj 211 122 / 2;
#X obj 211 147 * 150;
#X obj 211 172 min 100;
#X obj 275 24 vsl 19 162 0 150 0 0 empty empty empty 0 -9 0 12 #fcfcfc #000000 #000000 0 1;
#X obj 44 254 throw~ fmleft;
#X obj 87 283 throw~ fmright;
#X obj 209 48 / 109;
#X connect 0 0 1 0;
#X connect 1 0 2 0;
#X connect 2 0 3 0;
#X connect 3 0 6 0;
#X connect 3 1 6 1;
#X connect 4 0 0 0;
#X connect 5 0 4 0;
#X connect 6 0 14 0;
#X connect 6 1 15 0;
#X connect 7 0 16 0;
#X connect 8 0 9 0;
#X connect 9 0 10 0;
#X connect 10 0 11 0;
#X connect 11 0 12 0;
#X connect 11 0 13 0;
#X connect 12 0 6 2;
#X connect 16 0 8 0;
#X restore 50 276 pd fmchannel;
#N canvas 127 181 557 365 fmchannel 0;
#X obj 52 64 cos;
#X floatatom 53 88 7 0 0 0 - - - 0;
#X obj 56 109 hsl 128 15 -1 1 0 0 empty empty empty -2 -8 0 10 #fcfcfc #000000 #000000 0 1;
#N canvas 0 25 618 659 fm_pad_panner 0;
#X obj 112 308 fmsynth 1 0.1;
#X obj 170 270 vline~;
#X floatatom 107 229 5 0 0 0 - - - 0;
#X obj 107 252 mtof;
#X obj 169 228 bng 15 250 50 0 empty empty empty 17 7 0 10 #fcfcfc #000000 #000000;
#X msg 170 249 1 1000 \, 0 3000 1000;
#X obj 109 133 metro;
#X obj 65 98 tgl 15 0 empty empty empty 17 7 0 10 #fcfcfc #000000 #000000 0 1;
#X floatatom 149 133 5 0 0 0 - - - 0;
#X obj 142 74 bng 15 250 50 0 empty empty empty 17 7 0 10 #fcfcfc #000000 #000000;
#X obj 109 154 bng 15 250 50 0 empty empty empty 17 7 0 10 #fcfcfc #000000 #000000;
#X obj 142 113 + 4000;
#X obj 142 92 random 3000;
#X obj 108 177 random 28;
#X obj 64 58 loadbang;
#X msg 64 79 1;
#X obj 105 379 outlet~;
#X obj 167 380 outlet~;
#X obj 113 353 pan 0.5;
#X obj 317 59 inlet;
#X obj 113 330 *~ 0.3;
#X obj 107 200 mixolydian 36;
#X connect 0 0 20 0;
#X connect 1 0 0 1;
#X connect 2 0 3 0;
#X connect 2 0 4 0;
#X connect 3 0 0 0;
#X connect 4 0 5 0;
#X connect 5 0 1 0;
#X connect 6 0 10 0;
#X connect 7 0 6 0;
#X connect 9 0 12 0;
#X connect 10 0 12 0;
#X connect 10 0 13 0;
#X connect 11 0 6 1;
#X connect 11 0 8 0;
#X connect 12 0 11 0;
#X connect 13 0 21 0;
#X connect 14 0 15 0;
#X connect 15 0 7 0;
#X connect 18 0 16 0;
#X connect 18 1 17 0;
#X connect 19 0 18 1;
#X connect 20 0 18 0;
#X connect 21 0 2 0;
#X restore 56 155 pd fm_pad_panner;
#X obj 52 41 / 57, f 6;
#X obj 52 18 r count;
#X obj 50 205 stereovol;
#X obj 209 24 r count;
#X obj 209 72 cos;
#X obj 211 100 + 1;
#X obj 211 122 / 2;
#X obj 211 147 * 150;
#X obj 211 172 min 100;
#X obj 275 24 vsl 19 162 0 150 0 0 empty empty empty 0 -9 0 12 #fcfcfc #000000 #000000 0 1;
#X obj 44 254 throw~ fmleft;
#X obj 87 283 throw~ fmright;
#X obj 209 48 / 113;
#X connect 0 0 1 0;
#X connect 1 0 2 0;
#X connect 2 0 3 0;
#X connect 3 0 6 0;
#X connect 3 1 6 1;
#X connect 4 0 0 0;
#X connect 5 0 4 0;
#X connect 6 0 14 0;
#X connect 6 1 15 0;
#X connect 7 0 16 0;
#X connect 8 0 9 0;
#X connect 9 0 10 0;
#X connect 10 0 11 0;
#X connect 11 0 12 0;
#X connect 11 0 13 0;
#X connect 12 0 6 2;
#X connect 16 0 8 0;
#X restore 50 309 pd fmchannel;
#N canvas 239 597 557 365 fmchannel 0;
#X obj 52 64 cos;
#X floatatom 53 88 7 0 0 0 - - - 0;
#X obj 56 109 hsl 128 15 -1 1 0 0 empty empty empty -2 -8 0 10 #fcfcfc #000000 #000000 0 1;
#N canvas 0 25 618 659 fm_pad_panner 0;
#X obj 112 308 fmsynth 1 0.1;
#X obj 170 270 vline~;
#X floatatom 107 229 5 0 0 0 - - - 0;
#X obj 107 252 mtof;
#X obj 169 228 bng 15 250 50 0 empty empty empty 17 7 0 10 #fcfcfc #000000 #000000;
#X msg 170 249 1 1000 \, 0 3000 1000;
#X obj 109 133 metro;
#X obj 65 98 tgl 15 0 empty empty empty 17 7 0 10 #fcfcfc #000000 #000000 0 1;
#X floatatom 149 133 5 0 0 0 - - - 0;
#X obj 142 74 bng 15 250 50 0 empty empty empty 17 7 0 10 #fcfcfc #000000 #000000;
#X obj 109 154 bng 15 250 50 0 empty empty empty 17 7 0 10 #fcfcfc #000000 #000000;
#X obj 142 113 + 4000;
#X obj 142 92 random 3000;
#X obj 108 177 random 28;
#X obj 64 58 loadbang;
#X msg 64 79 1;
#X obj 105 379 outlet~;
#X obj 167 380 outlet~;
#X obj 113 353 pan 0.5;
#X obj 317 59 inlet;
#X obj 113 330 *~ 0.3;
#X obj 107 200 mixolydian 36;
#X connect 0 0 20 0;
#X connect 1 0 0 1;
#X connect 2 0 3 0;
#X connect 2 0 4 0;
#X connect 3 0 0 0;
#X connect 4 0 5 0;
#X connect 5 0 1 0;
#X connect 6 0 10 0;
#X connect 7 0 6 0;
#X connect 9 0 12 0;
#X connect 10 0 12 0;
#X connect 10 0 13 0;
#X connect 11 0 6 1;
#X connect 11 0 8 0;
#X connect 12 0 11 0;
#X connect 13 0 21 0;
#X connect 14 0 15 0;
#X connect 15 0 7 0;
#X connect 18 0 16 0;
#X connect 18 1 17 0;
#X connect 19 0 18 1;
#X connect 20 0 18 0;
#X connect 21 0 2 0;
#X restore 56 155 pd fm_pad_panner;
#X obj 52 41 / 57, f 6;
#X obj 52 18 r count;
#X obj 50 205 stereovol;
#X obj 209 24 r count;
#X obj 209 72 cos;
#X obj 211 100 + 1;
#X obj 211 122 / 2;
#X obj 211 147 * 150;
#X obj 211 172 min 100;
#X obj 275 24 vsl 19 162 0 150 0 0 empty empty empty 0 -9 0 12 #fcfcfc #000000 #000000 0 1;
#X obj 44 254 throw~ fmleft;
#X obj 87 283 throw~ fmright;
#X obj 209 48 / 115;
#X connect 0 0 1 0;
#X connect 1 0 2 0;
#X connect 2 0 3 0;
#X connect 3 0 6 0;
#X connect 3 1 6 1;
#X connect 4 0 0 0;
#X connect 5 0 4 0;
#X connect 6 0 14 0;
#X connect 6 1 15 0;
#X connect 7 0 16 0;
#X connect 8 0 9 0;
#X connect 9 0 10 0;
#X connect 10 0 11 0;
#X connect 11 0 12 0;
#X connect 11 0 13 0;
#X connect 12 0 6 2;
#X connect 16 0 8 0;
#X restore 52 338 pd fmchannel;
#X connect 1 0 5 0;
#X connect 2 0 1 0;
#X connect 3 0 1 1;
#X connect 4 0 3 0;
#X connect 4 0 25 0;
#X connect 5 0 28 0;
#X connect 6 0 7 0;
#X connect 7 0 8 0;
#X connect 8 0 18 0;
#X connect 9 0 10 0;
#X connect 10 0 11 0;
#X connect 11 0 19 0;
#X connect 12 0 13 0;
#X connect 13 0 14 0;
#X connect 14 0 20 0;
#X connect 15 0 16 0;
#X connect 16 0 17 0;
#X connect 17 0 21 0;
#X connect 18 0 27 0;
#X connect 18 1 27 1;
#X connect 19 0 51 0;
#X connect 19 1 51 1;
#X connect 20 0 52 0;
#X connect 20 1 52 1;
#X connect 22 0 9 0;
#X connect 23 0 12 0;
#X connect 24 0 15 0;
#X connect 25 0 2 0;
#X connect 26 0 6 0;
#X connect 27 0 76 0;
#X connect 27 1 77 0;
#X connect 29 0 26 0;
#X connect 30 0 22 0;
#X connect 31 0 23 0;
#X connect 32 0 24 0;
#X connect 33 0 39 0;
#X connect 34 0 35 0;
#X connect 35 0 36 0;
#X connect 36 0 37 0;
#X connect 37 0 38 0;
#X connect 37 0 40 0;
#X connect 38 0 27 2;
#X connect 39 0 34 0;
#X connect 41 0 47 0;
#X connect 42 0 43 0;
#X connect 43 0 44 0;
#X connect 44 0 45 0;
#X connect 45 0 46 0;
#X connect 45 0 48 0;
#X connect 46 0 49 2;
#X connect 47 0 42 0;
#X connect 51 0 78 0;
#X connect 51 1 79 0;
#X connect 52 0 80 0;
#X connect 52 1 81 0;
#X connect 54 0 53 0;
#X connect 54 1 53 1;
#X connect 55 0 62 0;
#X connect 56 0 57 0;
#X connect 57 0 58 0;
#X connect 58 0 59 0;
#X connect 59 0 60 0;
#X connect 59 0 61 0;
#X connect 60 0 51 2;
#X connect 62 0 56 0;
#X connect 63 0 71 0;
#X connect 64 0 65 0;
#X connect 65 0 66 0;
#X connect 66 0 67 0;
#X connect 67 0 68 0;
#X connect 67 0 69 0;
#X connect 68 0 52 2;
#X connect 71 0 64 0;
#X connect 73 0 72 0;
#X connect 73 0 75 0;
#X connect 74 0 72 1;
#X connect 74 0 75 0;
#X connect 75 0 72 0;
#X connect 75 1 72 1;
