#N canvas -2374 -42 1728 880 12;
#X text 9 12 dream tent soundtrack startup;
#N canvas 0 25 450 300 infcount 0;
#X obj 141 164 outlet;
#X obj 118 56 inlet;
#X obj 215 60 inlet;
#X obj 162 90 metro;
#X obj 145 122 f;
#X obj 178 122 + 1;
#X connect 1 0 3 0;
#X connect 2 0 3 1;
#X connect 3 0 4 0;
#X connect 4 0 5 0;
#X connect 4 0 0 0;
#X connect 5 0 4 1;
#X restore 54 104 pd infcount;
#X obj 54 84 tgl 15 0 empty empty empty 17 7 0 10 #fcfcfc #000000 #000000 0 1;
#X msg 116 73 125;
#X obj 116 50 loadbang;
#X floatatom 54 125 12 0 0 0 - - - 0;
#X msg 53 64 1;
#X obj 54 147 s count;
#N canvas -1747 142 1490 834 noiseshifter 0;
#X obj 16 14 r count;
#X obj 16 38 /;
#X obj 16 62 cos;
#X floatatom 16 86 5 0 0 0 - - - 0;
#X obj 19 110 hsl 162 19 0 127 0 0 empty empty empty -2 -10 0 12 #fcfcfc #000000 #000000 0 1;
#X obj 193 761 throw~ noiseright;
#X obj 30 760 throw~ noiseleft;
#X obj 207 244 noise~;
#X obj 125 264 vline~;
#X obj 103 292 *~;
#N canvas -1270 541 450 300 filter 0;
#X obj 167 107 / 1000;
#X obj 166 127 + 0.3;
#X obj 168 85 random 700;
#X obj 118 41 t b b;
#X obj 109 169 *~;
#X obj 83 113 *;
#X obj 112 107 + 1;
#X obj 117 59 random 30;
#X obj 62 17 inlet~;
#X obj 92 211 outlet~;
#X obj 69 137 bp~ 1000 100;
#X obj 197 14 inlet;
#X obj 257 12 inlet;
#X connect 0 0 1 0;
#X connect 1 0 4 1;
#X connect 2 0 0 0;
#X connect 3 0 7 0;
#X connect 3 1 2 0;
#X connect 4 0 9 0;
#X connect 5 0 10 1;
#X connect 6 0 5 1;
#X connect 7 0 6 0;
#X connect 8 0 10 0;
#X connect 10 0 4 0;
#X connect 11 0 3 0;
#X connect 12 0 5 0;
#X restore 61 479 pd filter;
#X obj 212 268 stereovol;
#X obj 294 97 r count;
#X obj 294 145 cos;
#X obj 296 173 + 1;
#X obj 296 195 / 2;
#X obj 296 220 * 150;
#X obj 296 245 min 100;
#X obj 360 97 vsl 19 162 0 150 0 0 empty empty empty 0 -9 0 12 #fcfcfc #000000 #000000 0 1;
#X obj 421 170 random 300;
#X obj 421 144 bng 19 250 50 0 empty empty empty 0 -10 0 12 #fcfcfc #000000 #000000;
#X floatatom 427 244 5 0 0 0 - - - 0;
#X obj 512 144 bng 19 250 50 0 empty empty empty 0 -10 0 12 #fcfcfc #000000 #000000;
#X floatatom 521 241 5 0 0 0 - - - 0;
#X obj 522 197 + 100;
#X obj 512 170 random 200;
#X obj 423 199 + 50;
#X obj 294 121 /;
#X obj 420 107 loadbang;
#X obj 513 108 loadbang;
#X obj 592 103 bng 19 250 50 0 empty empty empty 0 -10 0 12 #fcfcfc #000000 #000000;
#X obj 652 111 r randomise_fmchannel_settings;
#X obj 39 144 tgl 15 0 empty empty empty 17 7 0 10 #fcfcfc #000000 #000000 0 1;
#X msg 63 141 1;
#X obj 40 175 metro 3000;
#X obj 42 717 pan 0.5;
#X obj 52 690 *~ 0.5;
#X obj 390 337 r count;
#X obj 390 385 cos;
#X obj 392 413 + 1;
#X obj 392 435 / 2;
#X obj 456 337 vsl 19 162 0 150 0 0 empty empty empty 0 -9 0 12 #fcfcfc #000000 #000000 0 1;
#X obj 390 361 /;
#X obj 392 460 * 9000;
#X obj 392 485 min 8000;
#X floatatom 395 536 5 0 0 0 - - - 0;
#X obj 487 339 loadbang;
#X obj 487 363 random 300;
#X obj 487 387 + 50;
#X floatatom 487 411 5 0 0 0 - - - 0;
#X obj 487 434 bng 19 250 50 0 empty empty empty 0 -10 0 12 #fcfcfc #000000 #000000;
#X obj 557 338 bng 19 250 50 0 empty empty empty 0 -10 0 12 #fcfcfc #000000 #000000;
#X obj 82 209 f;
#X msg 84 235 1 10 \, 0 \$1 10;
#X obj 393 510 max 200;
#X obj 25 288 + 100;
#X floatatom 25 309 5 0 0 0 - - - 0;
#X obj 25 269 random 50;
#N canvas -1270 541 450 300 filter 0;
#X obj 167 107 / 1000;
#X obj 166 127 + 0.3;
#X obj 168 85 random 700;
#X obj 118 41 t b b;
#X obj 109 169 *~;
#X obj 83 113 *;
#X obj 112 107 + 1;
#X obj 117 59 random 30;
#X obj 62 17 inlet~;
#X obj 92 211 outlet~;
#X obj 69 137 bp~ 1000 100;
#X obj 197 14 inlet;
#X obj 257 12 inlet;
#X connect 0 0 1 0;
#X connect 1 0 4 1;
#X connect 2 0 0 0;
#X connect 3 0 7 0;
#X connect 3 1 2 0;
#X connect 4 0 9 0;
#X connect 5 0 10 1;
#X connect 6 0 5 1;
#X connect 7 0 6 0;
#X connect 8 0 10 0;
#X connect 10 0 4 0;
#X connect 11 0 3 0;
#X connect 12 0 5 0;
#X restore 136 480 pd filter;
#N canvas -1270 541 450 300 filter 0;
#X obj 167 107 / 1000;
#X obj 166 127 + 0.3;
#X obj 168 85 random 700;
#X obj 118 41 t b b;
#X obj 109 169 *~;
#X obj 83 113 *;
#X obj 112 107 + 1;
#X obj 117 59 random 30;
#X obj 62 17 inlet~;
#X obj 92 211 outlet~;
#X obj 69 137 bp~ 1000 100;
#X obj 197 14 inlet;
#X obj 257 12 inlet;
#X connect 0 0 1 0;
#X connect 1 0 4 1;
#X connect 2 0 0 0;
#X connect 3 0 7 0;
#X connect 3 1 2 0;
#X connect 4 0 9 0;
#X connect 5 0 10 1;
#X connect 6 0 5 1;
#X connect 7 0 6 0;
#X connect 8 0 10 0;
#X connect 10 0 4 0;
#X connect 11 0 3 0;
#X connect 12 0 5 0;
#X restore 210 477 pd filter;
#N canvas -1270 541 450 300 filter 0;
#X obj 167 107 / 1000;
#X obj 166 127 + 0.3;
#X obj 168 85 random 700;
#X obj 118 41 t b b;
#X obj 109 169 *~;
#X obj 83 113 *;
#X obj 112 107 + 1;
#X obj 117 59 random 30;
#X obj 62 17 inlet~;
#X obj 92 211 outlet~;
#X obj 69 137 bp~ 1000 100;
#X obj 197 14 inlet;
#X obj 257 12 inlet;
#X connect 0 0 1 0;
#X connect 1 0 4 1;
#X connect 2 0 0 0;
#X connect 3 0 7 0;
#X connect 3 1 2 0;
#X connect 4 0 9 0;
#X connect 5 0 10 1;
#X connect 6 0 5 1;
#X connect 7 0 6 0;
#X connect 8 0 10 0;
#X connect 10 0 4 0;
#X connect 11 0 3 0;
#X connect 12 0 5 0;
#X restore 285 478 pd filter;
#X obj 699 271 random 3000;
#X obj 708 309 + 2000;
#X connect 0 0 1 0;
#X connect 1 0 2 0;
#X connect 2 0 3 0;
#X connect 3 0 4 0;
#X connect 4 0 35 1;
#X connect 7 0 11 0;
#X connect 8 0 9 1;
#X connect 9 0 10 0;
#X connect 9 0 58 0;
#X connect 9 0 59 0;
#X connect 9 0 60 0;
#X connect 10 0 36 0;
#X connect 11 0 9 0;
#X connect 12 0 27 0;
#X connect 13 0 14 0;
#X connect 14 0 15 0;
#X connect 15 0 16 0;
#X connect 16 0 17 0;
#X connect 16 0 18 0;
#X connect 17 0 11 2;
#X connect 19 0 26 0;
#X connect 20 0 19 0;
#X connect 21 0 1 1;
#X connect 22 0 25 0;
#X connect 23 0 27 1;
#X connect 24 0 23 0;
#X connect 25 0 24 0;
#X connect 26 0 21 0;
#X connect 27 0 13 0;
#X connect 28 0 20 0;
#X connect 29 0 22 0;
#X connect 30 0 22 0;
#X connect 30 0 20 0;
#X connect 30 0 33 0;
#X connect 30 0 61 0;
#X connect 31 0 30 0;
#X connect 32 0 34 0;
#X connect 33 0 32 0;
#X connect 34 0 10 1;
#X connect 34 0 52 0;
#X connect 34 0 57 0;
#X connect 34 0 58 1;
#X connect 34 0 59 1;
#X connect 34 0 60 1;
#X connect 35 0 6 0;
#X connect 35 1 5 0;
#X connect 36 0 35 0;
#X connect 37 0 42 0;
#X connect 38 0 39 0;
#X connect 39 0 40 0;
#X connect 40 0 43 0;
#X connect 42 0 38 0;
#X connect 43 0 41 0;
#X connect 43 0 44 0;
#X connect 44 0 54 0;
#X connect 45 0 52 1;
#X connect 46 0 47 0;
#X connect 47 0 48 0;
#X connect 48 0 49 0;
#X connect 49 0 42 1;
#X connect 49 0 50 0;
#X connect 51 0 47 0;
#X connect 52 0 53 0;
#X connect 53 0 8 0;
#X connect 54 0 45 0;
#X connect 55 0 56 0;
#X connect 56 0 10 2;
#X connect 56 0 58 2;
#X connect 56 0 59 2;
#X connect 56 0 60 2;
#X connect 57 0 55 0;
#X connect 58 0 36 0;
#X connect 59 0 36 0;
#X connect 60 0 36 0;
#X connect 61 0 62 0;
#X connect 62 0 34 1;
#X connect 62 0 33 0;
#X restore 494 206 pd noiseshifter;
#N canvas -1484 0 1017 563 fmchannel 0;
#X obj 52 64 cos;
#X floatatom 53 88 7 0 0 0 - - - 0;
#X obj 56 109 hsl 128 15 -1 1 0 0 empty empty empty -2 -8 0 10 #fcfcfc #000000 #000000 0 1;
#N canvas -2257 32 618 659 fm_pad_panner 0;
#X obj 112 308 fmsynth 1 0.1;
#X obj 170 270 vline~;
#X floatatom 107 229 5 0 0 0 - - - 0;
#X obj 107 252 mtof;
#X obj 169 228 bng 15 250 50 0 empty empty empty 17 7 0 10 #fcfcfc #000000 #000000;
#X msg 170 249 1 1000 \, 0 3000 1000;
#X obj 109 133 metro;
#X obj 65 98 tgl 15 0 empty empty empty 17 7 0 10 #fcfcfc #000000 #000000 0 1;
#X floatatom 149 133 5 0 0 0 - - - 0;
#X obj 142 74 bng 15 250 50 0 empty empty empty 17 7 0 10 #fcfcfc #000000 #000000;
#X obj 109 154 bng 15 250 50 0 empty empty empty 17 7 0 10 #fcfcfc #000000 #000000;
#X obj 142 113 + 4000;
#X obj 142 92 random 3000;
#X obj 108 177 random 28;
#X obj 64 58 loadbang;
#X msg 64 79 1;
#X obj 105 379 outlet~;
#X obj 167 380 outlet~;
#X obj 113 353 pan 0.5;
#X obj 317 59 inlet;
#X obj 113 330 *~ 0.3;
#X obj 359 114 loadbang;
#X obj 107 200 mixolydian 36;
#X obj 330 114 bng 19 250 50 0 empty empty empty 0 -10 0 12 #fcfcfc #000000 #000000;
#X floatatom 359 198 5 0 0 0 - - - 0;
#X obj 383 65 r base_key;
#X obj 387 90 r randomise_fmchannel_settings;
#X obj 426 209 r fmchannel_max_note_range;
#X obj 358 165 + 7;
#X obj 358 137 random 21;
#X connect 0 0 20 0;
#X connect 1 0 0 1;
#X connect 2 0 3 0;
#X connect 2 0 4 0;
#X connect 3 0 0 0;
#X connect 4 0 5 0;
#X connect 5 0 1 0;
#X connect 6 0 10 0;
#X connect 7 0 6 0;
#X connect 9 0 12 0;
#X connect 10 0 12 0;
#X connect 10 0 13 0;
#X connect 11 0 6 1;
#X connect 11 0 8 0;
#X connect 12 0 11 0;
#X connect 13 0 22 0;
#X connect 14 0 15 0;
#X connect 15 0 7 0;
#X connect 18 0 16 0;
#X connect 18 1 17 0;
#X connect 19 0 18 1;
#X connect 20 0 18 0;
#X connect 21 0 29 0;
#X connect 22 0 2 0;
#X connect 23 0 29 0;
#X connect 25 0 22 1;
#X connect 26 0 29 0;
#X connect 27 0 29 1;
#X connect 28 0 13 1;
#X connect 28 0 24 0;
#X connect 29 0 28 0;
#X restore 56 155 pd fm_pad_panner;
#X obj 52 18 r count;
#X obj 50 205 stereovol;
#X obj 209 24 r count;
#X obj 209 72 cos;
#X obj 211 100 + 1;
#X obj 211 122 / 2;
#X obj 211 147 * 150;
#X obj 211 172 min 100;
#X obj 275 24 vsl 19 162 0 150 0 0 empty empty empty 0 -9 0 12 #fcfcfc #000000 #000000 0 1;
#X obj 44 254 throw~ fmleft;
#X obj 87 283 throw~ fmright;
#X obj 336 97 random 300;
#X obj 336 71 bng 19 250 50 0 empty empty empty 0 -10 0 12 #fcfcfc #000000 #000000;
#X floatatom 342 171 5 0 0 0 - - - 0;
#X obj 427 71 bng 19 250 50 0 empty empty empty 0 -10 0 12 #fcfcfc #000000 #000000;
#X floatatom 436 168 5 0 0 0 - - - 0;
#X obj 437 124 + 100;
#X obj 427 97 random 200;
#X obj 338 126 + 50;
#X obj 52 41 /, f 6;
#X obj 209 48 /;
#X obj 335 34 loadbang;
#X obj 428 35 loadbang;
#X obj 507 30 bng 19 250 50 0 empty empty empty 0 -10 0 12 #fcfcfc #000000 #000000;
#X obj 567 38 r randomise_fmchannel_settings;
#X connect 0 0 1 0;
#X connect 1 0 2 0;
#X connect 2 0 3 0;
#X connect 3 0 5 0;
#X connect 3 1 5 1;
#X connect 4 0 23 0;
#X connect 5 0 13 0;
#X connect 5 1 14 0;
#X connect 6 0 24 0;
#X connect 7 0 8 0;
#X connect 8 0 9 0;
#X connect 9 0 10 0;
#X connect 10 0 11 0;
#X connect 10 0 12 0;
#X connect 11 0 5 2;
#X connect 15 0 22 0;
#X connect 16 0 15 0;
#X connect 17 0 23 1;
#X connect 18 0 21 0;
#X connect 19 0 24 1;
#X connect 20 0 19 0;
#X connect 21 0 20 0;
#X connect 22 0 17 0;
#X connect 23 0 0 0;
#X connect 24 0 7 0;
#X connect 25 0 16 0;
#X connect 26 0 18 0;
#X connect 27 0 18 0;
#X connect 27 0 16 0;
#X connect 28 0 27 0;
#X restore 65 199 pd fmchannel;
#X obj 67 653 dac~;
#X obj 53 558 catch~ fmleft;
#X obj 155 558 catch~ fmright;
#X obj 52 589 rev2~ 30 90 3000 20, f 23;
#X obj 1158 81 s base_key;
#X obj 1269 87 s randomise_fmchannel_settings;
#X obj 1267 44 bng 19 250 50 0 empty empty empty 0 -10 0 12 #fcfcfc #000000 #000000;
#X msg 1158 55 28;
#X obj 1263 174 s fmchannel_max_note_range;
#N canvas -1484 0 1017 563 fmchannel 0;
#X obj 52 64 cos;
#X floatatom 53 88 7 0 0 0 - - - 0;
#X obj 56 109 hsl 128 15 -1 1 0 0 empty empty empty -2 -8 0 10 #fcfcfc #000000 #000000 0 1;
#N canvas -2257 32 618 659 fm_pad_panner 0;
#X obj 112 308 fmsynth 1 0.1;
#X obj 170 270 vline~;
#X floatatom 107 229 5 0 0 0 - - - 0;
#X obj 107 252 mtof;
#X obj 169 228 bng 15 250 50 0 empty empty empty 17 7 0 10 #fcfcfc #000000 #000000;
#X msg 170 249 1 1000 \, 0 3000 1000;
#X obj 109 133 metro;
#X obj 65 98 tgl 15 0 empty empty empty 17 7 0 10 #fcfcfc #000000 #000000 0 1;
#X floatatom 149 133 5 0 0 0 - - - 0;
#X obj 142 74 bng 15 250 50 0 empty empty empty 17 7 0 10 #fcfcfc #000000 #000000;
#X obj 109 154 bng 15 250 50 0 empty empty empty 17 7 0 10 #fcfcfc #000000 #000000;
#X obj 142 113 + 4000;
#X obj 142 92 random 3000;
#X obj 108 177 random 28;
#X obj 64 58 loadbang;
#X msg 64 79 1;
#X obj 105 379 outlet~;
#X obj 167 380 outlet~;
#X obj 113 353 pan 0.5;
#X obj 317 59 inlet;
#X obj 113 330 *~ 0.3;
#X obj 359 114 loadbang;
#X obj 107 200 mixolydian 36;
#X obj 330 114 bng 19 250 50 0 empty empty empty 0 -10 0 12 #fcfcfc #000000 #000000;
#X floatatom 359 198 5 0 0 0 - - - 0;
#X obj 383 65 r base_key;
#X obj 387 90 r randomise_fmchannel_settings;
#X obj 426 209 r fmchannel_max_note_range;
#X obj 358 165 + 7;
#X obj 358 137 random 21;
#X connect 0 0 20 0;
#X connect 1 0 0 1;
#X connect 2 0 3 0;
#X connect 2 0 4 0;
#X connect 3 0 0 0;
#X connect 4 0 5 0;
#X connect 5 0 1 0;
#X connect 6 0 10 0;
#X connect 7 0 6 0;
#X connect 9 0 12 0;
#X connect 10 0 12 0;
#X connect 10 0 13 0;
#X connect 11 0 6 1;
#X connect 11 0 8 0;
#X connect 12 0 11 0;
#X connect 13 0 22 0;
#X connect 14 0 15 0;
#X connect 15 0 7 0;
#X connect 18 0 16 0;
#X connect 18 1 17 0;
#X connect 19 0 18 1;
#X connect 20 0 18 0;
#X connect 21 0 29 0;
#X connect 22 0 2 0;
#X connect 23 0 29 0;
#X connect 25 0 22 1;
#X connect 26 0 29 0;
#X connect 27 0 29 1;
#X connect 28 0 13 1;
#X connect 28 0 24 0;
#X connect 29 0 28 0;
#X restore 56 155 pd fm_pad_panner;
#X obj 52 18 r count;
#X obj 50 205 stereovol;
#X obj 209 24 r count;
#X obj 209 72 cos;
#X obj 211 100 + 1;
#X obj 211 122 / 2;
#X obj 211 147 * 150;
#X obj 211 172 min 100;
#X obj 275 24 vsl 19 162 0 150 0 0 empty empty empty 0 -9 0 12 #fcfcfc #000000 #000000 0 1;
#X obj 44 254 throw~ fmleft;
#X obj 87 283 throw~ fmright;
#X obj 336 97 random 300;
#X obj 336 71 bng 19 250 50 0 empty empty empty 0 -10 0 12 #fcfcfc #000000 #000000;
#X floatatom 342 171 5 0 0 0 - - - 0;
#X obj 427 71 bng 19 250 50 0 empty empty empty 0 -10 0 12 #fcfcfc #000000 #000000;
#X floatatom 436 168 5 0 0 0 - - - 0;
#X obj 437 124 + 100;
#X obj 427 97 random 200;
#X obj 338 126 + 50;
#X obj 52 41 /, f 6;
#X obj 209 48 /;
#X obj 335 34 loadbang;
#X obj 428 35 loadbang;
#X obj 507 30 bng 19 250 50 0 empty empty empty 0 -10 0 12 #fcfcfc #000000 #000000;
#X obj 567 38 r randomise_fmchannel_settings;
#X connect 0 0 1 0;
#X connect 1 0 2 0;
#X connect 2 0 3 0;
#X connect 3 0 5 0;
#X connect 3 1 5 1;
#X connect 4 0 23 0;
#X connect 5 0 13 0;
#X connect 5 1 14 0;
#X connect 6 0 24 0;
#X connect 7 0 8 0;
#X connect 8 0 9 0;
#X connect 9 0 10 0;
#X connect 10 0 11 0;
#X connect 10 0 12 0;
#X connect 11 0 5 2;
#X connect 15 0 22 0;
#X connect 16 0 15 0;
#X connect 17 0 23 1;
#X connect 18 0 21 0;
#X connect 19 0 24 1;
#X connect 20 0 19 0;
#X connect 21 0 20 0;
#X connect 22 0 17 0;
#X connect 23 0 0 0;
#X connect 24 0 7 0;
#X connect 25 0 16 0;
#X connect 26 0 18 0;
#X connect 27 0 18 0;
#X connect 27 0 16 0;
#X connect 28 0 27 0;
#X restore 66 223 pd fmchannel;
#N canvas -1484 0 1017 563 fmchannel 0;
#X obj 52 64 cos;
#X floatatom 53 88 7 0 0 0 - - - 0;
#X obj 56 109 hsl 128 15 -1 1 0 0 empty empty empty -2 -8 0 10 #fcfcfc #000000 #000000 0 1;
#N canvas -2257 32 618 659 fm_pad_panner 0;
#X obj 112 308 fmsynth 1 0.1;
#X obj 170 270 vline~;
#X floatatom 107 229 5 0 0 0 - - - 0;
#X obj 107 252 mtof;
#X obj 169 228 bng 15 250 50 0 empty empty empty 17 7 0 10 #fcfcfc #000000 #000000;
#X msg 170 249 1 1000 \, 0 3000 1000;
#X obj 109 133 metro;
#X obj 65 98 tgl 15 0 empty empty empty 17 7 0 10 #fcfcfc #000000 #000000 0 1;
#X floatatom 149 133 5 0 0 0 - - - 0;
#X obj 142 74 bng 15 250 50 0 empty empty empty 17 7 0 10 #fcfcfc #000000 #000000;
#X obj 109 154 bng 15 250 50 0 empty empty empty 17 7 0 10 #fcfcfc #000000 #000000;
#X obj 142 113 + 4000;
#X obj 142 92 random 3000;
#X obj 108 177 random 28;
#X obj 64 58 loadbang;
#X msg 64 79 1;
#X obj 105 379 outlet~;
#X obj 167 380 outlet~;
#X obj 113 353 pan 0.5;
#X obj 317 59 inlet;
#X obj 113 330 *~ 0.3;
#X obj 359 114 loadbang;
#X obj 107 200 mixolydian 36;
#X obj 330 114 bng 19 250 50 0 empty empty empty 0 -10 0 12 #fcfcfc #000000 #000000;
#X floatatom 359 198 5 0 0 0 - - - 0;
#X obj 383 65 r base_key;
#X obj 387 90 r randomise_fmchannel_settings;
#X obj 426 209 r fmchannel_max_note_range;
#X obj 358 165 + 7;
#X obj 358 137 random 21;
#X connect 0 0 20 0;
#X connect 1 0 0 1;
#X connect 2 0 3 0;
#X connect 2 0 4 0;
#X connect 3 0 0 0;
#X connect 4 0 5 0;
#X connect 5 0 1 0;
#X connect 6 0 10 0;
#X connect 7 0 6 0;
#X connect 9 0 12 0;
#X connect 10 0 12 0;
#X connect 10 0 13 0;
#X connect 11 0 6 1;
#X connect 11 0 8 0;
#X connect 12 0 11 0;
#X connect 13 0 22 0;
#X connect 14 0 15 0;
#X connect 15 0 7 0;
#X connect 18 0 16 0;
#X connect 18 1 17 0;
#X connect 19 0 18 1;
#X connect 20 0 18 0;
#X connect 21 0 29 0;
#X connect 22 0 2 0;
#X connect 23 0 29 0;
#X connect 25 0 22 1;
#X connect 26 0 29 0;
#X connect 27 0 29 1;
#X connect 28 0 13 1;
#X connect 28 0 24 0;
#X connect 29 0 28 0;
#X restore 56 155 pd fm_pad_panner;
#X obj 52 18 r count;
#X obj 50 205 stereovol;
#X obj 209 24 r count;
#X obj 209 72 cos;
#X obj 211 100 + 1;
#X obj 211 122 / 2;
#X obj 211 147 * 150;
#X obj 211 172 min 100;
#X obj 275 24 vsl 19 162 0 150 0 0 empty empty empty 0 -9 0 12 #fcfcfc #000000 #000000 0 1;
#X obj 44 254 throw~ fmleft;
#X obj 87 283 throw~ fmright;
#X obj 336 97 random 300;
#X obj 336 71 bng 19 250 50 0 empty empty empty 0 -10 0 12 #fcfcfc #000000 #000000;
#X floatatom 342 171 5 0 0 0 - - - 0;
#X obj 427 71 bng 19 250 50 0 empty empty empty 0 -10 0 12 #fcfcfc #000000 #000000;
#X floatatom 436 168 5 0 0 0 - - - 0;
#X obj 437 124 + 100;
#X obj 427 97 random 200;
#X obj 338 126 + 50;
#X obj 52 41 /, f 6;
#X obj 209 48 /;
#X obj 335 34 loadbang;
#X obj 428 35 loadbang;
#X obj 507 30 bng 19 250 50 0 empty empty empty 0 -10 0 12 #fcfcfc #000000 #000000;
#X obj 567 38 r randomise_fmchannel_settings;
#X connect 0 0 1 0;
#X connect 1 0 2 0;
#X connect 2 0 3 0;
#X connect 3 0 5 0;
#X connect 3 1 5 1;
#X connect 4 0 23 0;
#X connect 5 0 13 0;
#X connect 5 1 14 0;
#X connect 6 0 24 0;
#X connect 7 0 8 0;
#X connect 8 0 9 0;
#X connect 9 0 10 0;
#X connect 10 0 11 0;
#X connect 10 0 12 0;
#X connect 11 0 5 2;
#X connect 15 0 22 0;
#X connect 16 0 15 0;
#X connect 17 0 23 1;
#X connect 18 0 21 0;
#X connect 19 0 24 1;
#X connect 20 0 19 0;
#X connect 21 0 20 0;
#X connect 22 0 17 0;
#X connect 23 0 0 0;
#X connect 24 0 7 0;
#X connect 25 0 16 0;
#X connect 26 0 18 0;
#X connect 27 0 18 0;
#X connect 27 0 16 0;
#X connect 28 0 27 0;
#X restore 67 250 pd fmchannel;
#N canvas -1484 0 1017 563 fmchannel 0;
#X obj 52 64 cos;
#X floatatom 53 88 7 0 0 0 - - - 0;
#X obj 56 109 hsl 128 15 -1 1 0 0 empty empty empty -2 -8 0 10 #fcfcfc #000000 #000000 0 1;
#N canvas -2257 32 618 659 fm_pad_panner 0;
#X obj 112 308 fmsynth 1 0.1;
#X obj 170 270 vline~;
#X floatatom 107 229 5 0 0 0 - - - 0;
#X obj 107 252 mtof;
#X obj 169 228 bng 15 250 50 0 empty empty empty 17 7 0 10 #fcfcfc #000000 #000000;
#X msg 170 249 1 1000 \, 0 3000 1000;
#X obj 109 133 metro;
#X obj 65 98 tgl 15 0 empty empty empty 17 7 0 10 #fcfcfc #000000 #000000 0 1;
#X floatatom 149 133 5 0 0 0 - - - 0;
#X obj 142 74 bng 15 250 50 0 empty empty empty 17 7 0 10 #fcfcfc #000000 #000000;
#X obj 109 154 bng 15 250 50 0 empty empty empty 17 7 0 10 #fcfcfc #000000 #000000;
#X obj 142 113 + 4000;
#X obj 142 92 random 3000;
#X obj 108 177 random 28;
#X obj 64 58 loadbang;
#X msg 64 79 1;
#X obj 105 379 outlet~;
#X obj 167 380 outlet~;
#X obj 113 353 pan 0.5;
#X obj 317 59 inlet;
#X obj 113 330 *~ 0.3;
#X obj 359 114 loadbang;
#X obj 107 200 mixolydian 36;
#X obj 330 114 bng 19 250 50 0 empty empty empty 0 -10 0 12 #fcfcfc #000000 #000000;
#X floatatom 359 198 5 0 0 0 - - - 0;
#X obj 383 65 r base_key;
#X obj 387 90 r randomise_fmchannel_settings;
#X obj 426 209 r fmchannel_max_note_range;
#X obj 358 165 + 7;
#X obj 358 137 random 21;
#X connect 0 0 20 0;
#X connect 1 0 0 1;
#X connect 2 0 3 0;
#X connect 2 0 4 0;
#X connect 3 0 0 0;
#X connect 4 0 5 0;
#X connect 5 0 1 0;
#X connect 6 0 10 0;
#X connect 7 0 6 0;
#X connect 9 0 12 0;
#X connect 10 0 12 0;
#X connect 10 0 13 0;
#X connect 11 0 6 1;
#X connect 11 0 8 0;
#X connect 12 0 11 0;
#X connect 13 0 22 0;
#X connect 14 0 15 0;
#X connect 15 0 7 0;
#X connect 18 0 16 0;
#X connect 18 1 17 0;
#X connect 19 0 18 1;
#X connect 20 0 18 0;
#X connect 21 0 29 0;
#X connect 22 0 2 0;
#X connect 23 0 29 0;
#X connect 25 0 22 1;
#X connect 26 0 29 0;
#X connect 27 0 29 1;
#X connect 28 0 13 1;
#X connect 28 0 24 0;
#X connect 29 0 28 0;
#X restore 56 155 pd fm_pad_panner;
#X obj 52 18 r count;
#X obj 50 205 stereovol;
#X obj 209 24 r count;
#X obj 209 72 cos;
#X obj 211 100 + 1;
#X obj 211 122 / 2;
#X obj 211 147 * 150;
#X obj 211 172 min 100;
#X obj 275 24 vsl 19 162 0 150 0 0 empty empty empty 0 -9 0 12 #fcfcfc #000000 #000000 0 1;
#X obj 44 254 throw~ fmleft;
#X obj 87 283 throw~ fmright;
#X obj 336 97 random 300;
#X obj 336 71 bng 19 250 50 0 empty empty empty 0 -10 0 12 #fcfcfc #000000 #000000;
#X floatatom 342 171 5 0 0 0 - - - 0;
#X obj 427 71 bng 19 250 50 0 empty empty empty 0 -10 0 12 #fcfcfc #000000 #000000;
#X floatatom 436 168 5 0 0 0 - - - 0;
#X obj 437 124 + 100;
#X obj 427 97 random 200;
#X obj 338 126 + 50;
#X obj 52 41 /, f 6;
#X obj 209 48 /;
#X obj 335 34 loadbang;
#X obj 428 35 loadbang;
#X obj 507 30 bng 19 250 50 0 empty empty empty 0 -10 0 12 #fcfcfc #000000 #000000;
#X obj 567 38 r randomise_fmchannel_settings;
#X connect 0 0 1 0;
#X connect 1 0 2 0;
#X connect 2 0 3 0;
#X connect 3 0 5 0;
#X connect 3 1 5 1;
#X connect 4 0 23 0;
#X connect 5 0 13 0;
#X connect 5 1 14 0;
#X connect 6 0 24 0;
#X connect 7 0 8 0;
#X connect 8 0 9 0;
#X connect 9 0 10 0;
#X connect 10 0 11 0;
#X connect 10 0 12 0;
#X connect 11 0 5 2;
#X connect 15 0 22 0;
#X connect 16 0 15 0;
#X connect 17 0 23 1;
#X connect 18 0 21 0;
#X connect 19 0 24 1;
#X connect 20 0 19 0;
#X connect 21 0 20 0;
#X connect 22 0 17 0;
#X connect 23 0 0 0;
#X connect 24 0 7 0;
#X connect 25 0 16 0;
#X connect 26 0 18 0;
#X connect 27 0 18 0;
#X connect 27 0 16 0;
#X connect 28 0 27 0;
#X restore 68 274 pd fmchannel;
#N canvas -1484 0 1017 563 fmchannel 0;
#X obj 52 64 cos;
#X floatatom 53 88 7 0 0 0 - - - 0;
#X obj 56 109 hsl 128 15 -1 1 0 0 empty empty empty -2 -8 0 10 #fcfcfc #000000 #000000 0 1;
#N canvas -2257 32 618 659 fm_pad_panner 0;
#X obj 112 308 fmsynth 1 0.1;
#X obj 170 270 vline~;
#X floatatom 107 229 5 0 0 0 - - - 0;
#X obj 107 252 mtof;
#X obj 169 228 bng 15 250 50 0 empty empty empty 17 7 0 10 #fcfcfc #000000 #000000;
#X msg 170 249 1 1000 \, 0 3000 1000;
#X obj 109 133 metro;
#X obj 65 98 tgl 15 0 empty empty empty 17 7 0 10 #fcfcfc #000000 #000000 0 1;
#X floatatom 149 133 5 0 0 0 - - - 0;
#X obj 142 74 bng 15 250 50 0 empty empty empty 17 7 0 10 #fcfcfc #000000 #000000;
#X obj 109 154 bng 15 250 50 0 empty empty empty 17 7 0 10 #fcfcfc #000000 #000000;
#X obj 142 113 + 4000;
#X obj 142 92 random 3000;
#X obj 108 177 random 28;
#X obj 64 58 loadbang;
#X msg 64 79 1;
#X obj 105 379 outlet~;
#X obj 167 380 outlet~;
#X obj 113 353 pan 0.5;
#X obj 317 59 inlet;
#X obj 113 330 *~ 0.3;
#X obj 359 114 loadbang;
#X obj 107 200 mixolydian 36;
#X obj 330 114 bng 19 250 50 0 empty empty empty 0 -10 0 12 #fcfcfc #000000 #000000;
#X floatatom 359 198 5 0 0 0 - - - 0;
#X obj 383 65 r base_key;
#X obj 387 90 r randomise_fmchannel_settings;
#X obj 426 209 r fmchannel_max_note_range;
#X obj 358 165 + 7;
#X obj 358 137 random 21;
#X connect 0 0 20 0;
#X connect 1 0 0 1;
#X connect 2 0 3 0;
#X connect 2 0 4 0;
#X connect 3 0 0 0;
#X connect 4 0 5 0;
#X connect 5 0 1 0;
#X connect 6 0 10 0;
#X connect 7 0 6 0;
#X connect 9 0 12 0;
#X connect 10 0 12 0;
#X connect 10 0 13 0;
#X connect 11 0 6 1;
#X connect 11 0 8 0;
#X connect 12 0 11 0;
#X connect 13 0 22 0;
#X connect 14 0 15 0;
#X connect 15 0 7 0;
#X connect 18 0 16 0;
#X connect 18 1 17 0;
#X connect 19 0 18 1;
#X connect 20 0 18 0;
#X connect 21 0 29 0;
#X connect 22 0 2 0;
#X connect 23 0 29 0;
#X connect 25 0 22 1;
#X connect 26 0 29 0;
#X connect 27 0 29 1;
#X connect 28 0 13 1;
#X connect 28 0 24 0;
#X connect 29 0 28 0;
#X restore 56 155 pd fm_pad_panner;
#X obj 52 18 r count;
#X obj 50 205 stereovol;
#X obj 209 24 r count;
#X obj 209 72 cos;
#X obj 211 100 + 1;
#X obj 211 122 / 2;
#X obj 211 147 * 150;
#X obj 211 172 min 100;
#X obj 275 24 vsl 19 162 0 150 0 0 empty empty empty 0 -9 0 12 #fcfcfc #000000 #000000 0 1;
#X obj 44 254 throw~ fmleft;
#X obj 87 283 throw~ fmright;
#X obj 336 97 random 300;
#X obj 336 71 bng 19 250 50 0 empty empty empty 0 -10 0 12 #fcfcfc #000000 #000000;
#X floatatom 342 171 5 0 0 0 - - - 0;
#X obj 427 71 bng 19 250 50 0 empty empty empty 0 -10 0 12 #fcfcfc #000000 #000000;
#X floatatom 436 168 5 0 0 0 - - - 0;
#X obj 437 124 + 100;
#X obj 427 97 random 200;
#X obj 338 126 + 50;
#X obj 52 41 /, f 6;
#X obj 209 48 /;
#X obj 335 34 loadbang;
#X obj 428 35 loadbang;
#X obj 507 30 bng 19 250 50 0 empty empty empty 0 -10 0 12 #fcfcfc #000000 #000000;
#X obj 567 38 r randomise_fmchannel_settings;
#X connect 0 0 1 0;
#X connect 1 0 2 0;
#X connect 2 0 3 0;
#X connect 3 0 5 0;
#X connect 3 1 5 1;
#X connect 4 0 23 0;
#X connect 5 0 13 0;
#X connect 5 1 14 0;
#X connect 6 0 24 0;
#X connect 7 0 8 0;
#X connect 8 0 9 0;
#X connect 9 0 10 0;
#X connect 10 0 11 0;
#X connect 10 0 12 0;
#X connect 11 0 5 2;
#X connect 15 0 22 0;
#X connect 16 0 15 0;
#X connect 17 0 23 1;
#X connect 18 0 21 0;
#X connect 19 0 24 1;
#X connect 20 0 19 0;
#X connect 21 0 20 0;
#X connect 22 0 17 0;
#X connect 23 0 0 0;
#X connect 24 0 7 0;
#X connect 25 0 16 0;
#X connect 26 0 18 0;
#X connect 27 0 18 0;
#X connect 27 0 16 0;
#X connect 28 0 27 0;
#X restore 168 200 pd fmchannel;
#N canvas -1484 0 1017 563 fmchannel 0;
#X obj 52 64 cos;
#X floatatom 53 88 7 0 0 0 - - - 0;
#X obj 56 109 hsl 128 15 -1 1 0 0 empty empty empty -2 -8 0 10 #fcfcfc #000000 #000000 0 1;
#N canvas -2257 32 618 659 fm_pad_panner 0;
#X obj 112 308 fmsynth 1 0.1;
#X obj 170 270 vline~;
#X floatatom 107 229 5 0 0 0 - - - 0;
#X obj 107 252 mtof;
#X obj 169 228 bng 15 250 50 0 empty empty empty 17 7 0 10 #fcfcfc #000000 #000000;
#X msg 170 249 1 1000 \, 0 3000 1000;
#X obj 109 133 metro;
#X obj 65 98 tgl 15 0 empty empty empty 17 7 0 10 #fcfcfc #000000 #000000 0 1;
#X floatatom 149 133 5 0 0 0 - - - 0;
#X obj 142 74 bng 15 250 50 0 empty empty empty 17 7 0 10 #fcfcfc #000000 #000000;
#X obj 109 154 bng 15 250 50 0 empty empty empty 17 7 0 10 #fcfcfc #000000 #000000;
#X obj 142 113 + 4000;
#X obj 142 92 random 3000;
#X obj 108 177 random 28;
#X obj 64 58 loadbang;
#X msg 64 79 1;
#X obj 105 379 outlet~;
#X obj 167 380 outlet~;
#X obj 113 353 pan 0.5;
#X obj 317 59 inlet;
#X obj 113 330 *~ 0.3;
#X obj 359 114 loadbang;
#X obj 107 200 mixolydian 36;
#X obj 330 114 bng 19 250 50 0 empty empty empty 0 -10 0 12 #fcfcfc #000000 #000000;
#X floatatom 359 198 5 0 0 0 - - - 0;
#X obj 383 65 r base_key;
#X obj 387 90 r randomise_fmchannel_settings;
#X obj 426 209 r fmchannel_max_note_range;
#X obj 358 165 + 7;
#X obj 358 137 random 21;
#X connect 0 0 20 0;
#X connect 1 0 0 1;
#X connect 2 0 3 0;
#X connect 2 0 4 0;
#X connect 3 0 0 0;
#X connect 4 0 5 0;
#X connect 5 0 1 0;
#X connect 6 0 10 0;
#X connect 7 0 6 0;
#X connect 9 0 12 0;
#X connect 10 0 12 0;
#X connect 10 0 13 0;
#X connect 11 0 6 1;
#X connect 11 0 8 0;
#X connect 12 0 11 0;
#X connect 13 0 22 0;
#X connect 14 0 15 0;
#X connect 15 0 7 0;
#X connect 18 0 16 0;
#X connect 18 1 17 0;
#X connect 19 0 18 1;
#X connect 20 0 18 0;
#X connect 21 0 29 0;
#X connect 22 0 2 0;
#X connect 23 0 29 0;
#X connect 25 0 22 1;
#X connect 26 0 29 0;
#X connect 27 0 29 1;
#X connect 28 0 13 1;
#X connect 28 0 24 0;
#X connect 29 0 28 0;
#X restore 56 155 pd fm_pad_panner;
#X obj 52 18 r count;
#X obj 50 205 stereovol;
#X obj 209 24 r count;
#X obj 209 72 cos;
#X obj 211 100 + 1;
#X obj 211 122 / 2;
#X obj 211 147 * 150;
#X obj 211 172 min 100;
#X obj 275 24 vsl 19 162 0 150 0 0 empty empty empty 0 -9 0 12 #fcfcfc #000000 #000000 0 1;
#X obj 44 254 throw~ fmleft;
#X obj 87 283 throw~ fmright;
#X obj 336 97 random 300;
#X obj 336 71 bng 19 250 50 0 empty empty empty 0 -10 0 12 #fcfcfc #000000 #000000;
#X floatatom 342 171 5 0 0 0 - - - 0;
#X obj 427 71 bng 19 250 50 0 empty empty empty 0 -10 0 12 #fcfcfc #000000 #000000;
#X floatatom 436 168 5 0 0 0 - - - 0;
#X obj 437 124 + 100;
#X obj 427 97 random 200;
#X obj 338 126 + 50;
#X obj 52 41 /, f 6;
#X obj 209 48 /;
#X obj 335 34 loadbang;
#X obj 428 35 loadbang;
#X obj 507 30 bng 19 250 50 0 empty empty empty 0 -10 0 12 #fcfcfc #000000 #000000;
#X obj 567 38 r randomise_fmchannel_settings;
#X connect 0 0 1 0;
#X connect 1 0 2 0;
#X connect 2 0 3 0;
#X connect 3 0 5 0;
#X connect 3 1 5 1;
#X connect 4 0 23 0;
#X connect 5 0 13 0;
#X connect 5 1 14 0;
#X connect 6 0 24 0;
#X connect 7 0 8 0;
#X connect 8 0 9 0;
#X connect 9 0 10 0;
#X connect 10 0 11 0;
#X connect 10 0 12 0;
#X connect 11 0 5 2;
#X connect 15 0 22 0;
#X connect 16 0 15 0;
#X connect 17 0 23 1;
#X connect 18 0 21 0;
#X connect 19 0 24 1;
#X connect 20 0 19 0;
#X connect 21 0 20 0;
#X connect 22 0 17 0;
#X connect 23 0 0 0;
#X connect 24 0 7 0;
#X connect 25 0 16 0;
#X connect 26 0 18 0;
#X connect 27 0 18 0;
#X connect 27 0 16 0;
#X connect 28 0 27 0;
#X restore 169 224 pd fmchannel;
#N canvas -1484 0 1017 563 fmchannel 0;
#X obj 52 64 cos;
#X floatatom 53 88 7 0 0 0 - - - 0;
#X obj 56 109 hsl 128 15 -1 1 0 0 empty empty empty -2 -8 0 10 #fcfcfc #000000 #000000 0 1;
#N canvas -2257 32 618 659 fm_pad_panner 0;
#X obj 112 308 fmsynth 1 0.1;
#X obj 170 270 vline~;
#X floatatom 107 229 5 0 0 0 - - - 0;
#X obj 107 252 mtof;
#X obj 169 228 bng 15 250 50 0 empty empty empty 17 7 0 10 #fcfcfc #000000 #000000;
#X msg 170 249 1 1000 \, 0 3000 1000;
#X obj 109 133 metro;
#X obj 65 98 tgl 15 0 empty empty empty 17 7 0 10 #fcfcfc #000000 #000000 0 1;
#X floatatom 149 133 5 0 0 0 - - - 0;
#X obj 142 74 bng 15 250 50 0 empty empty empty 17 7 0 10 #fcfcfc #000000 #000000;
#X obj 109 154 bng 15 250 50 0 empty empty empty 17 7 0 10 #fcfcfc #000000 #000000;
#X obj 142 113 + 4000;
#X obj 142 92 random 3000;
#X obj 108 177 random 28;
#X obj 64 58 loadbang;
#X msg 64 79 1;
#X obj 105 379 outlet~;
#X obj 167 380 outlet~;
#X obj 113 353 pan 0.5;
#X obj 317 59 inlet;
#X obj 113 330 *~ 0.3;
#X obj 359 114 loadbang;
#X obj 107 200 mixolydian 36;
#X obj 330 114 bng 19 250 50 0 empty empty empty 0 -10 0 12 #fcfcfc #000000 #000000;
#X floatatom 359 198 5 0 0 0 - - - 0;
#X obj 383 65 r base_key;
#X obj 387 90 r randomise_fmchannel_settings;
#X obj 426 209 r fmchannel_max_note_range;
#X obj 358 165 + 7;
#X obj 358 137 random 21;
#X connect 0 0 20 0;
#X connect 1 0 0 1;
#X connect 2 0 3 0;
#X connect 2 0 4 0;
#X connect 3 0 0 0;
#X connect 4 0 5 0;
#X connect 5 0 1 0;
#X connect 6 0 10 0;
#X connect 7 0 6 0;
#X connect 9 0 12 0;
#X connect 10 0 12 0;
#X connect 10 0 13 0;
#X connect 11 0 6 1;
#X connect 11 0 8 0;
#X connect 12 0 11 0;
#X connect 13 0 22 0;
#X connect 14 0 15 0;
#X connect 15 0 7 0;
#X connect 18 0 16 0;
#X connect 18 1 17 0;
#X connect 19 0 18 1;
#X connect 20 0 18 0;
#X connect 21 0 29 0;
#X connect 22 0 2 0;
#X connect 23 0 29 0;
#X connect 25 0 22 1;
#X connect 26 0 29 0;
#X connect 27 0 29 1;
#X connect 28 0 13 1;
#X connect 28 0 24 0;
#X connect 29 0 28 0;
#X restore 56 155 pd fm_pad_panner;
#X obj 52 18 r count;
#X obj 50 205 stereovol;
#X obj 209 24 r count;
#X obj 209 72 cos;
#X obj 211 100 + 1;
#X obj 211 122 / 2;
#X obj 211 147 * 150;
#X obj 211 172 min 100;
#X obj 275 24 vsl 19 162 0 150 0 0 empty empty empty 0 -9 0 12 #fcfcfc #000000 #000000 0 1;
#X obj 44 254 throw~ fmleft;
#X obj 87 283 throw~ fmright;
#X obj 336 97 random 300;
#X obj 336 71 bng 19 250 50 0 empty empty empty 0 -10 0 12 #fcfcfc #000000 #000000;
#X floatatom 342 171 5 0 0 0 - - - 0;
#X obj 427 71 bng 19 250 50 0 empty empty empty 0 -10 0 12 #fcfcfc #000000 #000000;
#X floatatom 436 168 5 0 0 0 - - - 0;
#X obj 437 124 + 100;
#X obj 427 97 random 200;
#X obj 338 126 + 50;
#X obj 52 41 /, f 6;
#X obj 209 48 /;
#X obj 335 34 loadbang;
#X obj 428 35 loadbang;
#X obj 507 30 bng 19 250 50 0 empty empty empty 0 -10 0 12 #fcfcfc #000000 #000000;
#X obj 567 38 r randomise_fmchannel_settings;
#X connect 0 0 1 0;
#X connect 1 0 2 0;
#X connect 2 0 3 0;
#X connect 3 0 5 0;
#X connect 3 1 5 1;
#X connect 4 0 23 0;
#X connect 5 0 13 0;
#X connect 5 1 14 0;
#X connect 6 0 24 0;
#X connect 7 0 8 0;
#X connect 8 0 9 0;
#X connect 9 0 10 0;
#X connect 10 0 11 0;
#X connect 10 0 12 0;
#X connect 11 0 5 2;
#X connect 15 0 22 0;
#X connect 16 0 15 0;
#X connect 17 0 23 1;
#X connect 18 0 21 0;
#X connect 19 0 24 1;
#X connect 20 0 19 0;
#X connect 21 0 20 0;
#X connect 22 0 17 0;
#X connect 23 0 0 0;
#X connect 24 0 7 0;
#X connect 25 0 16 0;
#X connect 26 0 18 0;
#X connect 27 0 18 0;
#X connect 27 0 16 0;
#X connect 28 0 27 0;
#X restore 170 251 pd fmchannel;
#N canvas -1484 0 1017 563 fmchannel 0;
#X obj 52 64 cos;
#X floatatom 53 88 7 0 0 0 - - - 0;
#X obj 56 109 hsl 128 15 -1 1 0 0 empty empty empty -2 -8 0 10 #fcfcfc #000000 #000000 0 1;
#N canvas -2257 32 618 659 fm_pad_panner 0;
#X obj 112 308 fmsynth 1 0.1;
#X obj 170 270 vline~;
#X floatatom 107 229 5 0 0 0 - - - 0;
#X obj 107 252 mtof;
#X obj 169 228 bng 15 250 50 0 empty empty empty 17 7 0 10 #fcfcfc #000000 #000000;
#X msg 170 249 1 1000 \, 0 3000 1000;
#X obj 109 133 metro;
#X obj 65 98 tgl 15 0 empty empty empty 17 7 0 10 #fcfcfc #000000 #000000 0 1;
#X floatatom 149 133 5 0 0 0 - - - 0;
#X obj 142 74 bng 15 250 50 0 empty empty empty 17 7 0 10 #fcfcfc #000000 #000000;
#X obj 109 154 bng 15 250 50 0 empty empty empty 17 7 0 10 #fcfcfc #000000 #000000;
#X obj 142 113 + 4000;
#X obj 142 92 random 3000;
#X obj 108 177 random 28;
#X obj 64 58 loadbang;
#X msg 64 79 1;
#X obj 105 379 outlet~;
#X obj 167 380 outlet~;
#X obj 113 353 pan 0.5;
#X obj 317 59 inlet;
#X obj 113 330 *~ 0.3;
#X obj 359 114 loadbang;
#X obj 107 200 mixolydian 36;
#X obj 330 114 bng 19 250 50 0 empty empty empty 0 -10 0 12 #fcfcfc #000000 #000000;
#X floatatom 359 198 5 0 0 0 - - - 0;
#X obj 383 65 r base_key;
#X obj 387 90 r randomise_fmchannel_settings;
#X obj 426 209 r fmchannel_max_note_range;
#X obj 358 165 + 7;
#X obj 358 137 random 21;
#X connect 0 0 20 0;
#X connect 1 0 0 1;
#X connect 2 0 3 0;
#X connect 2 0 4 0;
#X connect 3 0 0 0;
#X connect 4 0 5 0;
#X connect 5 0 1 0;
#X connect 6 0 10 0;
#X connect 7 0 6 0;
#X connect 9 0 12 0;
#X connect 10 0 12 0;
#X connect 10 0 13 0;
#X connect 11 0 6 1;
#X connect 11 0 8 0;
#X connect 12 0 11 0;
#X connect 13 0 22 0;
#X connect 14 0 15 0;
#X connect 15 0 7 0;
#X connect 18 0 16 0;
#X connect 18 1 17 0;
#X connect 19 0 18 1;
#X connect 20 0 18 0;
#X connect 21 0 29 0;
#X connect 22 0 2 0;
#X connect 23 0 29 0;
#X connect 25 0 22 1;
#X connect 26 0 29 0;
#X connect 27 0 29 1;
#X connect 28 0 13 1;
#X connect 28 0 24 0;
#X connect 29 0 28 0;
#X restore 56 155 pd fm_pad_panner;
#X obj 52 18 r count;
#X obj 50 205 stereovol;
#X obj 209 24 r count;
#X obj 209 72 cos;
#X obj 211 100 + 1;
#X obj 211 122 / 2;
#X obj 211 147 * 150;
#X obj 211 172 min 100;
#X obj 275 24 vsl 19 162 0 150 0 0 empty empty empty 0 -9 0 12 #fcfcfc #000000 #000000 0 1;
#X obj 44 254 throw~ fmleft;
#X obj 87 283 throw~ fmright;
#X obj 336 97 random 300;
#X obj 336 71 bng 19 250 50 0 empty empty empty 0 -10 0 12 #fcfcfc #000000 #000000;
#X floatatom 342 171 5 0 0 0 - - - 0;
#X obj 427 71 bng 19 250 50 0 empty empty empty 0 -10 0 12 #fcfcfc #000000 #000000;
#X floatatom 436 168 5 0 0 0 - - - 0;
#X obj 437 124 + 100;
#X obj 427 97 random 200;
#X obj 338 126 + 50;
#X obj 52 41 /, f 6;
#X obj 209 48 /;
#X obj 335 34 loadbang;
#X obj 428 35 loadbang;
#X obj 507 30 bng 19 250 50 0 empty empty empty 0 -10 0 12 #fcfcfc #000000 #000000;
#X obj 567 38 r randomise_fmchannel_settings;
#X connect 0 0 1 0;
#X connect 1 0 2 0;
#X connect 2 0 3 0;
#X connect 3 0 5 0;
#X connect 3 1 5 1;
#X connect 4 0 23 0;
#X connect 5 0 13 0;
#X connect 5 1 14 0;
#X connect 6 0 24 0;
#X connect 7 0 8 0;
#X connect 8 0 9 0;
#X connect 9 0 10 0;
#X connect 10 0 11 0;
#X connect 10 0 12 0;
#X connect 11 0 5 2;
#X connect 15 0 22 0;
#X connect 16 0 15 0;
#X connect 17 0 23 1;
#X connect 18 0 21 0;
#X connect 19 0 24 1;
#X connect 20 0 19 0;
#X connect 21 0 20 0;
#X connect 22 0 17 0;
#X connect 23 0 0 0;
#X connect 24 0 7 0;
#X connect 25 0 16 0;
#X connect 26 0 18 0;
#X connect 27 0 18 0;
#X connect 27 0 16 0;
#X connect 28 0 27 0;
#X restore 171 275 pd fmchannel;
#N canvas -2484 -63 1017 563 fmchannel 0;
#X obj 52 64 cos;
#X floatatom 53 88 7 0 0 0 - - - 0;
#X obj 56 109 hsl 128 15 -1 1 0 0 empty empty empty -2 -8 0 10 #fcfcfc #000000 #000000 0 1;
#N canvas -2257 32 618 659 fm_pad_panner 0;
#X obj 112 308 fmsynth 1 0.1;
#X obj 170 270 vline~;
#X floatatom 107 229 5 0 0 0 - - - 0;
#X obj 107 252 mtof;
#X obj 169 228 bng 15 250 50 0 empty empty empty 17 7 0 10 #fcfcfc #000000 #000000;
#X msg 170 249 1 1000 \, 0 3000 1000;
#X obj 109 133 metro;
#X obj 65 98 tgl 15 0 empty empty empty 17 7 0 10 #fcfcfc #000000 #000000 0 1;
#X floatatom 149 133 5 0 0 0 - - - 0;
#X obj 142 74 bng 15 250 50 0 empty empty empty 17 7 0 10 #fcfcfc #000000 #000000;
#X obj 109 154 bng 15 250 50 0 empty empty empty 17 7 0 10 #fcfcfc #000000 #000000;
#X obj 142 113 + 4000;
#X obj 142 92 random 3000;
#X obj 108 177 random 28;
#X obj 64 58 loadbang;
#X msg 64 79 1;
#X obj 105 379 outlet~;
#X obj 167 380 outlet~;
#X obj 113 353 pan 0.5;
#X obj 317 59 inlet;
#X obj 113 330 *~ 0.3;
#X obj 359 114 loadbang;
#X obj 107 200 mixolydian 36;
#X obj 330 114 bng 19 250 50 0 empty empty empty 0 -10 0 12 #fcfcfc #000000 #000000;
#X floatatom 359 198 5 0 0 0 - - - 0;
#X obj 383 65 r base_key;
#X obj 387 90 r randomise_fmchannel_settings;
#X obj 426 209 r fmchannel_max_note_range;
#X obj 358 165 + 7;
#X obj 358 137 random 21;
#X connect 0 0 20 0;
#X connect 1 0 0 1;
#X connect 2 0 3 0;
#X connect 2 0 4 0;
#X connect 3 0 0 0;
#X connect 4 0 5 0;
#X connect 5 0 1 0;
#X connect 6 0 10 0;
#X connect 7 0 6 0;
#X connect 9 0 12 0;
#X connect 10 0 12 0;
#X connect 10 0 13 0;
#X connect 11 0 6 1;
#X connect 11 0 8 0;
#X connect 12 0 11 0;
#X connect 13 0 22 0;
#X connect 14 0 15 0;
#X connect 15 0 7 0;
#X connect 18 0 16 0;
#X connect 18 1 17 0;
#X connect 19 0 18 1;
#X connect 20 0 18 0;
#X connect 21 0 29 0;
#X connect 22 0 2 0;
#X connect 23 0 29 0;
#X connect 25 0 22 1;
#X connect 26 0 29 0;
#X connect 27 0 29 1;
#X connect 28 0 13 1;
#X connect 28 0 24 0;
#X connect 29 0 28 0;
#X restore 56 155 pd fm_pad_panner;
#X obj 52 18 r count;
#X obj 50 205 stereovol;
#X obj 209 24 r count;
#X obj 209 72 cos;
#X obj 211 100 + 1;
#X obj 211 122 / 2;
#X obj 211 147 * 150;
#X obj 211 172 min 100;
#X obj 275 24 vsl 19 162 0 150 0 0 empty empty empty 0 -9 0 12 #fcfcfc #000000 #000000 0 1;
#X obj 44 254 throw~ fmleft;
#X obj 87 283 throw~ fmright;
#X obj 336 97 random 300;
#X obj 336 71 bng 19 250 50 0 empty empty empty 0 -10 0 12 #fcfcfc #000000 #000000;
#X floatatom 342 171 5 0 0 0 - - - 0;
#X obj 427 71 bng 19 250 50 0 empty empty empty 0 -10 0 12 #fcfcfc #000000 #000000;
#X floatatom 436 168 5 0 0 0 - - - 0;
#X obj 437 124 + 100;
#X obj 427 97 random 200;
#X obj 338 126 + 50;
#X obj 52 41 /, f 6;
#X obj 209 48 /;
#X obj 335 34 loadbang;
#X obj 428 35 loadbang;
#X obj 507 30 bng 19 250 50 0 empty empty empty 0 -10 0 12 #fcfcfc #000000 #000000;
#X obj 567 38 r randomise_fmchannel_settings;
#X connect 0 0 1 0;
#X connect 1 0 2 0;
#X connect 2 0 3 0;
#X connect 3 0 5 0;
#X connect 3 1 5 1;
#X connect 4 0 23 0;
#X connect 5 0 13 0;
#X connect 5 1 14 0;
#X connect 6 0 24 0;
#X connect 7 0 8 0;
#X connect 8 0 9 0;
#X connect 9 0 10 0;
#X connect 10 0 11 0;
#X connect 10 0 12 0;
#X connect 11 0 5 2;
#X connect 15 0 22 0;
#X connect 16 0 15 0;
#X connect 17 0 23 1;
#X connect 18 0 21 0;
#X connect 19 0 24 1;
#X connect 20 0 19 0;
#X connect 21 0 20 0;
#X connect 22 0 17 0;
#X connect 23 0 0 0;
#X connect 24 0 7 0;
#X connect 25 0 16 0;
#X connect 26 0 18 0;
#X connect 27 0 18 0;
#X connect 27 0 16 0;
#X connect 28 0 27 0;
#X restore 267 201 pd fmchannel;
#N canvas -1484 0 1017 563 fmchannel 0;
#X obj 52 64 cos;
#X floatatom 53 88 7 0 0 0 - - - 0;
#X obj 56 109 hsl 128 15 -1 1 0 0 empty empty empty -2 -8 0 10 #fcfcfc #000000 #000000 0 1;
#N canvas -2257 32 618 659 fm_pad_panner 0;
#X obj 112 308 fmsynth 1 0.1;
#X obj 170 270 vline~;
#X floatatom 107 229 5 0 0 0 - - - 0;
#X obj 107 252 mtof;
#X obj 169 228 bng 15 250 50 0 empty empty empty 17 7 0 10 #fcfcfc #000000 #000000;
#X msg 170 249 1 1000 \, 0 3000 1000;
#X obj 109 133 metro;
#X obj 65 98 tgl 15 0 empty empty empty 17 7 0 10 #fcfcfc #000000 #000000 0 1;
#X floatatom 149 133 5 0 0 0 - - - 0;
#X obj 142 74 bng 15 250 50 0 empty empty empty 17 7 0 10 #fcfcfc #000000 #000000;
#X obj 109 154 bng 15 250 50 0 empty empty empty 17 7 0 10 #fcfcfc #000000 #000000;
#X obj 142 113 + 4000;
#X obj 142 92 random 3000;
#X obj 108 177 random 28;
#X obj 64 58 loadbang;
#X msg 64 79 1;
#X obj 105 379 outlet~;
#X obj 167 380 outlet~;
#X obj 113 353 pan 0.5;
#X obj 317 59 inlet;
#X obj 113 330 *~ 0.3;
#X obj 359 114 loadbang;
#X obj 107 200 mixolydian 36;
#X obj 330 114 bng 19 250 50 0 empty empty empty 0 -10 0 12 #fcfcfc #000000 #000000;
#X floatatom 359 198 5 0 0 0 - - - 0;
#X obj 383 65 r base_key;
#X obj 387 90 r randomise_fmchannel_settings;
#X obj 426 209 r fmchannel_max_note_range;
#X obj 358 165 + 7;
#X obj 358 137 random 21;
#X connect 0 0 20 0;
#X connect 1 0 0 1;
#X connect 2 0 3 0;
#X connect 2 0 4 0;
#X connect 3 0 0 0;
#X connect 4 0 5 0;
#X connect 5 0 1 0;
#X connect 6 0 10 0;
#X connect 7 0 6 0;
#X connect 9 0 12 0;
#X connect 10 0 12 0;
#X connect 10 0 13 0;
#X connect 11 0 6 1;
#X connect 11 0 8 0;
#X connect 12 0 11 0;
#X connect 13 0 22 0;
#X connect 14 0 15 0;
#X connect 15 0 7 0;
#X connect 18 0 16 0;
#X connect 18 1 17 0;
#X connect 19 0 18 1;
#X connect 20 0 18 0;
#X connect 21 0 29 0;
#X connect 22 0 2 0;
#X connect 23 0 29 0;
#X connect 25 0 22 1;
#X connect 26 0 29 0;
#X connect 27 0 29 1;
#X connect 28 0 13 1;
#X connect 28 0 24 0;
#X connect 29 0 28 0;
#X restore 56 155 pd fm_pad_panner;
#X obj 52 18 r count;
#X obj 50 205 stereovol;
#X obj 209 24 r count;
#X obj 209 72 cos;
#X obj 211 100 + 1;
#X obj 211 122 / 2;
#X obj 211 147 * 150;
#X obj 211 172 min 100;
#X obj 275 24 vsl 19 162 0 150 0 0 empty empty empty 0 -9 0 12 #fcfcfc #000000 #000000 0 1;
#X obj 44 254 throw~ fmleft;
#X obj 87 283 throw~ fmright;
#X obj 336 97 random 300;
#X obj 336 71 bng 19 250 50 0 empty empty empty 0 -10 0 12 #fcfcfc #000000 #000000;
#X floatatom 342 171 5 0 0 0 - - - 0;
#X obj 427 71 bng 19 250 50 0 empty empty empty 0 -10 0 12 #fcfcfc #000000 #000000;
#X floatatom 436 168 5 0 0 0 - - - 0;
#X obj 437 124 + 100;
#X obj 427 97 random 200;
#X obj 338 126 + 50;
#X obj 52 41 /, f 6;
#X obj 209 48 /;
#X obj 335 34 loadbang;
#X obj 428 35 loadbang;
#X obj 507 30 bng 19 250 50 0 empty empty empty 0 -10 0 12 #fcfcfc #000000 #000000;
#X obj 567 38 r randomise_fmchannel_settings;
#X connect 0 0 1 0;
#X connect 1 0 2 0;
#X connect 2 0 3 0;
#X connect 3 0 5 0;
#X connect 3 1 5 1;
#X connect 4 0 23 0;
#X connect 5 0 13 0;
#X connect 5 1 14 0;
#X connect 6 0 24 0;
#X connect 7 0 8 0;
#X connect 8 0 9 0;
#X connect 9 0 10 0;
#X connect 10 0 11 0;
#X connect 10 0 12 0;
#X connect 11 0 5 2;
#X connect 15 0 22 0;
#X connect 16 0 15 0;
#X connect 17 0 23 1;
#X connect 18 0 21 0;
#X connect 19 0 24 1;
#X connect 20 0 19 0;
#X connect 21 0 20 0;
#X connect 22 0 17 0;
#X connect 23 0 0 0;
#X connect 24 0 7 0;
#X connect 25 0 16 0;
#X connect 26 0 18 0;
#X connect 27 0 18 0;
#X connect 27 0 16 0;
#X connect 28 0 27 0;
#X restore 268 225 pd fmchannel;
#N canvas -1484 0 1017 563 fmchannel 0;
#X obj 52 64 cos;
#X floatatom 53 88 7 0 0 0 - - - 0;
#X obj 56 109 hsl 128 15 -1 1 0 0 empty empty empty -2 -8 0 10 #fcfcfc #000000 #000000 0 1;
#N canvas -2257 32 618 659 fm_pad_panner 0;
#X obj 112 308 fmsynth 1 0.1;
#X obj 170 270 vline~;
#X floatatom 107 229 5 0 0 0 - - - 0;
#X obj 107 252 mtof;
#X obj 169 228 bng 15 250 50 0 empty empty empty 17 7 0 10 #fcfcfc #000000 #000000;
#X msg 170 249 1 1000 \, 0 3000 1000;
#X obj 109 133 metro;
#X obj 65 98 tgl 15 0 empty empty empty 17 7 0 10 #fcfcfc #000000 #000000 0 1;
#X floatatom 149 133 5 0 0 0 - - - 0;
#X obj 142 74 bng 15 250 50 0 empty empty empty 17 7 0 10 #fcfcfc #000000 #000000;
#X obj 109 154 bng 15 250 50 0 empty empty empty 17 7 0 10 #fcfcfc #000000 #000000;
#X obj 142 113 + 4000;
#X obj 142 92 random 3000;
#X obj 108 177 random 28;
#X obj 64 58 loadbang;
#X msg 64 79 1;
#X obj 105 379 outlet~;
#X obj 167 380 outlet~;
#X obj 113 353 pan 0.5;
#X obj 317 59 inlet;
#X obj 113 330 *~ 0.3;
#X obj 359 114 loadbang;
#X obj 107 200 mixolydian 36;
#X obj 330 114 bng 19 250 50 0 empty empty empty 0 -10 0 12 #fcfcfc #000000 #000000;
#X floatatom 359 198 5 0 0 0 - - - 0;
#X obj 383 65 r base_key;
#X obj 387 90 r randomise_fmchannel_settings;
#X obj 426 209 r fmchannel_max_note_range;
#X obj 358 165 + 7;
#X obj 358 137 random 21;
#X connect 0 0 20 0;
#X connect 1 0 0 1;
#X connect 2 0 3 0;
#X connect 2 0 4 0;
#X connect 3 0 0 0;
#X connect 4 0 5 0;
#X connect 5 0 1 0;
#X connect 6 0 10 0;
#X connect 7 0 6 0;
#X connect 9 0 12 0;
#X connect 10 0 12 0;
#X connect 10 0 13 0;
#X connect 11 0 6 1;
#X connect 11 0 8 0;
#X connect 12 0 11 0;
#X connect 13 0 22 0;
#X connect 14 0 15 0;
#X connect 15 0 7 0;
#X connect 18 0 16 0;
#X connect 18 1 17 0;
#X connect 19 0 18 1;
#X connect 20 0 18 0;
#X connect 21 0 29 0;
#X connect 22 0 2 0;
#X connect 23 0 29 0;
#X connect 25 0 22 1;
#X connect 26 0 29 0;
#X connect 27 0 29 1;
#X connect 28 0 13 1;
#X connect 28 0 24 0;
#X connect 29 0 28 0;
#X restore 56 155 pd fm_pad_panner;
#X obj 52 18 r count;
#X obj 50 205 stereovol;
#X obj 209 24 r count;
#X obj 209 72 cos;
#X obj 211 100 + 1;
#X obj 211 122 / 2;
#X obj 211 147 * 150;
#X obj 211 172 min 100;
#X obj 275 24 vsl 19 162 0 150 0 0 empty empty empty 0 -9 0 12 #fcfcfc #000000 #000000 0 1;
#X obj 44 254 throw~ fmleft;
#X obj 87 283 throw~ fmright;
#X obj 336 97 random 300;
#X obj 336 71 bng 19 250 50 0 empty empty empty 0 -10 0 12 #fcfcfc #000000 #000000;
#X floatatom 342 171 5 0 0 0 - - - 0;
#X obj 427 71 bng 19 250 50 0 empty empty empty 0 -10 0 12 #fcfcfc #000000 #000000;
#X floatatom 436 168 5 0 0 0 - - - 0;
#X obj 437 124 + 100;
#X obj 427 97 random 200;
#X obj 338 126 + 50;
#X obj 52 41 /, f 6;
#X obj 209 48 /;
#X obj 335 34 loadbang;
#X obj 428 35 loadbang;
#X obj 507 30 bng 19 250 50 0 empty empty empty 0 -10 0 12 #fcfcfc #000000 #000000;
#X obj 567 38 r randomise_fmchannel_settings;
#X connect 0 0 1 0;
#X connect 1 0 2 0;
#X connect 2 0 3 0;
#X connect 3 0 5 0;
#X connect 3 1 5 1;
#X connect 4 0 23 0;
#X connect 5 0 13 0;
#X connect 5 1 14 0;
#X connect 6 0 24 0;
#X connect 7 0 8 0;
#X connect 8 0 9 0;
#X connect 9 0 10 0;
#X connect 10 0 11 0;
#X connect 10 0 12 0;
#X connect 11 0 5 2;
#X connect 15 0 22 0;
#X connect 16 0 15 0;
#X connect 17 0 23 1;
#X connect 18 0 21 0;
#X connect 19 0 24 1;
#X connect 20 0 19 0;
#X connect 21 0 20 0;
#X connect 22 0 17 0;
#X connect 23 0 0 0;
#X connect 24 0 7 0;
#X connect 25 0 16 0;
#X connect 26 0 18 0;
#X connect 27 0 18 0;
#X connect 27 0 16 0;
#X connect 28 0 27 0;
#X restore 269 252 pd fmchannel;
#N canvas -1484 0 1017 563 fmchannel 0;
#X obj 52 64 cos;
#X floatatom 53 88 7 0 0 0 - - - 0;
#X obj 56 109 hsl 128 15 -1 1 0 0 empty empty empty -2 -8 0 10 #fcfcfc #000000 #000000 0 1;
#N canvas -2257 32 618 659 fm_pad_panner 0;
#X obj 112 308 fmsynth 1 0.1;
#X obj 170 270 vline~;
#X floatatom 107 229 5 0 0 0 - - - 0;
#X obj 107 252 mtof;
#X obj 169 228 bng 15 250 50 0 empty empty empty 17 7 0 10 #fcfcfc #000000 #000000;
#X msg 170 249 1 1000 \, 0 3000 1000;
#X obj 109 133 metro;
#X obj 65 98 tgl 15 0 empty empty empty 17 7 0 10 #fcfcfc #000000 #000000 0 1;
#X floatatom 149 133 5 0 0 0 - - - 0;
#X obj 142 74 bng 15 250 50 0 empty empty empty 17 7 0 10 #fcfcfc #000000 #000000;
#X obj 109 154 bng 15 250 50 0 empty empty empty 17 7 0 10 #fcfcfc #000000 #000000;
#X obj 142 113 + 4000;
#X obj 142 92 random 3000;
#X obj 108 177 random 28;
#X obj 64 58 loadbang;
#X msg 64 79 1;
#X obj 105 379 outlet~;
#X obj 167 380 outlet~;
#X obj 113 353 pan 0.5;
#X obj 317 59 inlet;
#X obj 113 330 *~ 0.3;
#X obj 359 114 loadbang;
#X obj 107 200 mixolydian 36;
#X obj 330 114 bng 19 250 50 0 empty empty empty 0 -10 0 12 #fcfcfc #000000 #000000;
#X floatatom 359 198 5 0 0 0 - - - 0;
#X obj 383 65 r base_key;
#X obj 387 90 r randomise_fmchannel_settings;
#X obj 426 209 r fmchannel_max_note_range;
#X obj 358 165 + 7;
#X obj 358 137 random 21;
#X connect 0 0 20 0;
#X connect 1 0 0 1;
#X connect 2 0 3 0;
#X connect 2 0 4 0;
#X connect 3 0 0 0;
#X connect 4 0 5 0;
#X connect 5 0 1 0;
#X connect 6 0 10 0;
#X connect 7 0 6 0;
#X connect 9 0 12 0;
#X connect 10 0 12 0;
#X connect 10 0 13 0;
#X connect 11 0 6 1;
#X connect 11 0 8 0;
#X connect 12 0 11 0;
#X connect 13 0 22 0;
#X connect 14 0 15 0;
#X connect 15 0 7 0;
#X connect 18 0 16 0;
#X connect 18 1 17 0;
#X connect 19 0 18 1;
#X connect 20 0 18 0;
#X connect 21 0 29 0;
#X connect 22 0 2 0;
#X connect 23 0 29 0;
#X connect 25 0 22 1;
#X connect 26 0 29 0;
#X connect 27 0 29 1;
#X connect 28 0 13 1;
#X connect 28 0 24 0;
#X connect 29 0 28 0;
#X restore 56 155 pd fm_pad_panner;
#X obj 52 18 r count;
#X obj 50 205 stereovol;
#X obj 209 24 r count;
#X obj 209 72 cos;
#X obj 211 100 + 1;
#X obj 211 122 / 2;
#X obj 211 147 * 150;
#X obj 211 172 min 100;
#X obj 275 24 vsl 19 162 0 150 0 0 empty empty empty 0 -9 0 12 #fcfcfc #000000 #000000 0 1;
#X obj 44 254 throw~ fmleft;
#X obj 87 283 throw~ fmright;
#X obj 336 97 random 300;
#X obj 336 71 bng 19 250 50 0 empty empty empty 0 -10 0 12 #fcfcfc #000000 #000000;
#X floatatom 342 171 5 0 0 0 - - - 0;
#X obj 427 71 bng 19 250 50 0 empty empty empty 0 -10 0 12 #fcfcfc #000000 #000000;
#X floatatom 436 168 5 0 0 0 - - - 0;
#X obj 437 124 + 100;
#X obj 427 97 random 200;
#X obj 338 126 + 50;
#X obj 52 41 /, f 6;
#X obj 209 48 /;
#X obj 335 34 loadbang;
#X obj 428 35 loadbang;
#X obj 507 30 bng 19 250 50 0 empty empty empty 0 -10 0 12 #fcfcfc #000000 #000000;
#X obj 567 38 r randomise_fmchannel_settings;
#X connect 0 0 1 0;
#X connect 1 0 2 0;
#X connect 2 0 3 0;
#X connect 3 0 5 0;
#X connect 3 1 5 1;
#X connect 4 0 23 0;
#X connect 5 0 13 0;
#X connect 5 1 14 0;
#X connect 6 0 24 0;
#X connect 7 0 8 0;
#X connect 8 0 9 0;
#X connect 9 0 10 0;
#X connect 10 0 11 0;
#X connect 10 0 12 0;
#X connect 11 0 5 2;
#X connect 15 0 22 0;
#X connect 16 0 15 0;
#X connect 17 0 23 1;
#X connect 18 0 21 0;
#X connect 19 0 24 1;
#X connect 20 0 19 0;
#X connect 21 0 20 0;
#X connect 22 0 17 0;
#X connect 23 0 0 0;
#X connect 24 0 7 0;
#X connect 25 0 16 0;
#X connect 26 0 18 0;
#X connect 27 0 18 0;
#X connect 27 0 16 0;
#X connect 28 0 27 0;
#X restore 270 276 pd fmchannel;
#X msg 1265 143 28;
#X floatatom 1056 84 5 0 0 0 - - - 0;
#X obj 917 64 random 24;
#X obj 917 92 + 20;
#X msg 917 116 \$1 300000;
#X obj 923 25 bng 19 250 50 0 empty empty empty 0 -10 0 12 #fcfcfc #000000 #000000;
#X floatatom 873 118 5 0 0 0 - - - 0;
#X obj 1056 60 line;
#X obj 761 67 metro 100000;
#X obj 764 27 tgl 19 0 empty empty empty 0 -10 0 12 #fcfcfc #000000 #000000 0 1;
#X obj 410 651 dac~;
#X obj 395 587 rev2~ 30 90 3000 20, f 23;
#X obj 396 556 catch~ noiseleft;
#X obj 527 555 catch~ noiseright;
#X obj 1237 14 loadbang;
#N canvas -1747 142 1490 834 noiseshifter 0;
#X obj 16 14 r count;
#X obj 16 38 /;
#X obj 16 62 cos;
#X floatatom 16 86 5 0 0 0 - - - 0;
#X obj 19 110 hsl 162 19 0 127 0 0 empty empty empty -2 -10 0 12 #fcfcfc #000000 #000000 0 1;
#X obj 193 761 throw~ noiseright;
#X obj 30 760 throw~ noiseleft;
#X obj 207 244 noise~;
#X obj 125 264 vline~;
#X obj 103 292 *~;
#N canvas -1270 541 450 300 filter 0;
#X obj 167 107 / 1000;
#X obj 166 127 + 0.3;
#X obj 168 85 random 700;
#X obj 118 41 t b b;
#X obj 109 169 *~;
#X obj 83 113 *;
#X obj 112 107 + 1;
#X obj 117 59 random 30;
#X obj 62 17 inlet~;
#X obj 92 211 outlet~;
#X obj 69 137 bp~ 1000 100;
#X obj 197 14 inlet;
#X obj 257 12 inlet;
#X connect 0 0 1 0;
#X connect 1 0 4 1;
#X connect 2 0 0 0;
#X connect 3 0 7 0;
#X connect 3 1 2 0;
#X connect 4 0 9 0;
#X connect 5 0 10 1;
#X connect 6 0 5 1;
#X connect 7 0 6 0;
#X connect 8 0 10 0;
#X connect 10 0 4 0;
#X connect 11 0 3 0;
#X connect 12 0 5 0;
#X restore 61 479 pd filter;
#X obj 212 268 stereovol;
#X obj 294 97 r count;
#X obj 294 145 cos;
#X obj 296 173 + 1;
#X obj 296 195 / 2;
#X obj 296 220 * 150;
#X obj 296 245 min 100;
#X obj 360 97 vsl 19 162 0 150 0 0 empty empty empty 0 -9 0 12 #fcfcfc #000000 #000000 0 1;
#X obj 421 170 random 300;
#X obj 421 144 bng 19 250 50 0 empty empty empty 0 -10 0 12 #fcfcfc #000000 #000000;
#X floatatom 427 244 5 0 0 0 - - - 0;
#X obj 512 144 bng 19 250 50 0 empty empty empty 0 -10 0 12 #fcfcfc #000000 #000000;
#X floatatom 521 241 5 0 0 0 - - - 0;
#X obj 522 197 + 100;
#X obj 512 170 random 200;
#X obj 423 199 + 50;
#X obj 294 121 /;
#X obj 420 107 loadbang;
#X obj 513 108 loadbang;
#X obj 592 103 bng 19 250 50 0 empty empty empty 0 -10 0 12 #fcfcfc #000000 #000000;
#X obj 652 111 r randomise_fmchannel_settings;
#X obj 39 144 tgl 15 0 empty empty empty 17 7 0 10 #fcfcfc #000000 #000000 0 1;
#X msg 63 141 1;
#X obj 40 175 metro 3000;
#X obj 42 717 pan 0.5;
#X obj 52 690 *~ 0.5;
#X obj 390 337 r count;
#X obj 390 385 cos;
#X obj 392 413 + 1;
#X obj 392 435 / 2;
#X obj 456 337 vsl 19 162 0 150 0 0 empty empty empty 0 -9 0 12 #fcfcfc #000000 #000000 0 1;
#X obj 390 361 /;
#X obj 392 460 * 9000;
#X obj 392 485 min 8000;
#X floatatom 395 536 5 0 0 0 - - - 0;
#X obj 487 339 loadbang;
#X obj 487 363 random 300;
#X obj 487 387 + 50;
#X floatatom 487 411 5 0 0 0 - - - 0;
#X obj 487 434 bng 19 250 50 0 empty empty empty 0 -10 0 12 #fcfcfc #000000 #000000;
#X obj 557 338 bng 19 250 50 0 empty empty empty 0 -10 0 12 #fcfcfc #000000 #000000;
#X obj 82 209 f;
#X msg 84 235 1 10 \, 0 \$1 10;
#X obj 393 510 max 200;
#X obj 25 288 + 100;
#X floatatom 25 309 5 0 0 0 - - - 0;
#X obj 25 269 random 50;
#N canvas -1270 541 450 300 filter 0;
#X obj 167 107 / 1000;
#X obj 166 127 + 0.3;
#X obj 168 85 random 700;
#X obj 118 41 t b b;
#X obj 109 169 *~;
#X obj 83 113 *;
#X obj 112 107 + 1;
#X obj 117 59 random 30;
#X obj 62 17 inlet~;
#X obj 92 211 outlet~;
#X obj 69 137 bp~ 1000 100;
#X obj 197 14 inlet;
#X obj 257 12 inlet;
#X connect 0 0 1 0;
#X connect 1 0 4 1;
#X connect 2 0 0 0;
#X connect 3 0 7 0;
#X connect 3 1 2 0;
#X connect 4 0 9 0;
#X connect 5 0 10 1;
#X connect 6 0 5 1;
#X connect 7 0 6 0;
#X connect 8 0 10 0;
#X connect 10 0 4 0;
#X connect 11 0 3 0;
#X connect 12 0 5 0;
#X restore 136 480 pd filter;
#N canvas -1270 541 450 300 filter 0;
#X obj 167 107 / 1000;
#X obj 166 127 + 0.3;
#X obj 168 85 random 700;
#X obj 118 41 t b b;
#X obj 109 169 *~;
#X obj 83 113 *;
#X obj 112 107 + 1;
#X obj 117 59 random 30;
#X obj 62 17 inlet~;
#X obj 92 211 outlet~;
#X obj 69 137 bp~ 1000 100;
#X obj 197 14 inlet;
#X obj 257 12 inlet;
#X connect 0 0 1 0;
#X connect 1 0 4 1;
#X connect 2 0 0 0;
#X connect 3 0 7 0;
#X connect 3 1 2 0;
#X connect 4 0 9 0;
#X connect 5 0 10 1;
#X connect 6 0 5 1;
#X connect 7 0 6 0;
#X connect 8 0 10 0;
#X connect 10 0 4 0;
#X connect 11 0 3 0;
#X connect 12 0 5 0;
#X restore 210 477 pd filter;
#N canvas -1270 541 450 300 filter 0;
#X obj 167 107 / 1000;
#X obj 166 127 + 0.3;
#X obj 168 85 random 700;
#X obj 118 41 t b b;
#X obj 109 169 *~;
#X obj 83 113 *;
#X obj 112 107 + 1;
#X obj 117 59 random 30;
#X obj 62 17 inlet~;
#X obj 92 211 outlet~;
#X obj 69 137 bp~ 1000 100;
#X obj 197 14 inlet;
#X obj 257 12 inlet;
#X connect 0 0 1 0;
#X connect 1 0 4 1;
#X connect 2 0 0 0;
#X connect 3 0 7 0;
#X connect 3 1 2 0;
#X connect 4 0 9 0;
#X connect 5 0 10 1;
#X connect 6 0 5 1;
#X connect 7 0 6 0;
#X connect 8 0 10 0;
#X connect 10 0 4 0;
#X connect 11 0 3 0;
#X connect 12 0 5 0;
#X restore 285 478 pd filter;
#X obj 699 271 random 3000;
#X obj 708 309 + 2000;
#X connect 0 0 1 0;
#X connect 1 0 2 0;
#X connect 2 0 3 0;
#X connect 3 0 4 0;
#X connect 4 0 35 1;
#X connect 7 0 11 0;
#X connect 8 0 9 1;
#X connect 9 0 10 0;
#X connect 9 0 58 0;
#X connect 9 0 59 0;
#X connect 9 0 60 0;
#X connect 10 0 36 0;
#X connect 11 0 9 0;
#X connect 12 0 27 0;
#X connect 13 0 14 0;
#X connect 14 0 15 0;
#X connect 15 0 16 0;
#X connect 16 0 17 0;
#X connect 16 0 18 0;
#X connect 17 0 11 2;
#X connect 19 0 26 0;
#X connect 20 0 19 0;
#X connect 21 0 1 1;
#X connect 22 0 25 0;
#X connect 23 0 27 1;
#X connect 24 0 23 0;
#X connect 25 0 24 0;
#X connect 26 0 21 0;
#X connect 27 0 13 0;
#X connect 28 0 20 0;
#X connect 29 0 22 0;
#X connect 30 0 22 0;
#X connect 30 0 20 0;
#X connect 30 0 33 0;
#X connect 30 0 61 0;
#X connect 31 0 30 0;
#X connect 32 0 34 0;
#X connect 33 0 32 0;
#X connect 34 0 10 1;
#X connect 34 0 52 0;
#X connect 34 0 57 0;
#X connect 34 0 58 1;
#X connect 34 0 59 1;
#X connect 34 0 60 1;
#X connect 35 0 6 0;
#X connect 35 1 5 0;
#X connect 36 0 35 0;
#X connect 37 0 42 0;
#X connect 38 0 39 0;
#X connect 39 0 40 0;
#X connect 40 0 43 0;
#X connect 42 0 38 0;
#X connect 43 0 41 0;
#X connect 43 0 44 0;
#X connect 44 0 54 0;
#X connect 45 0 52 1;
#X connect 46 0 47 0;
#X connect 47 0 48 0;
#X connect 48 0 49 0;
#X connect 49 0 42 1;
#X connect 49 0 50 0;
#X connect 51 0 47 0;
#X connect 52 0 53 0;
#X connect 53 0 8 0;
#X connect 54 0 45 0;
#X connect 55 0 56 0;
#X connect 56 0 10 2;
#X connect 56 0 58 2;
#X connect 56 0 59 2;
#X connect 56 0 60 2;
#X connect 57 0 55 0;
#X connect 58 0 36 0;
#X connect 59 0 36 0;
#X connect 60 0 36 0;
#X connect 61 0 62 0;
#X connect 62 0 34 1;
#X connect 62 0 33 0;
#X restore 493 231 pd noiseshifter;
#N canvas -1747 142 1490 834 noiseshifter 0;
#X obj 16 14 r count;
#X obj 16 38 /;
#X obj 16 62 cos;
#X floatatom 16 86 5 0 0 0 - - - 0;
#X obj 19 110 hsl 162 19 0 127 0 0 empty empty empty -2 -10 0 12 #fcfcfc #000000 #000000 0 1;
#X obj 193 761 throw~ noiseright;
#X obj 30 760 throw~ noiseleft;
#X obj 207 244 noise~;
#X obj 125 264 vline~;
#X obj 103 292 *~;
#N canvas -1270 541 450 300 filter 0;
#X obj 167 107 / 1000;
#X obj 166 127 + 0.3;
#X obj 168 85 random 700;
#X obj 118 41 t b b;
#X obj 109 169 *~;
#X obj 83 113 *;
#X obj 112 107 + 1;
#X obj 117 59 random 30;
#X obj 62 17 inlet~;
#X obj 92 211 outlet~;
#X obj 69 137 bp~ 1000 100;
#X obj 197 14 inlet;
#X obj 257 12 inlet;
#X connect 0 0 1 0;
#X connect 1 0 4 1;
#X connect 2 0 0 0;
#X connect 3 0 7 0;
#X connect 3 1 2 0;
#X connect 4 0 9 0;
#X connect 5 0 10 1;
#X connect 6 0 5 1;
#X connect 7 0 6 0;
#X connect 8 0 10 0;
#X connect 10 0 4 0;
#X connect 11 0 3 0;
#X connect 12 0 5 0;
#X restore 61 479 pd filter;
#X obj 212 268 stereovol;
#X obj 294 97 r count;
#X obj 294 145 cos;
#X obj 296 173 + 1;
#X obj 296 195 / 2;
#X obj 296 220 * 150;
#X obj 296 245 min 100;
#X obj 360 97 vsl 19 162 0 150 0 0 empty empty empty 0 -9 0 12 #fcfcfc #000000 #000000 0 1;
#X obj 421 170 random 300;
#X obj 421 144 bng 19 250 50 0 empty empty empty 0 -10 0 12 #fcfcfc #000000 #000000;
#X floatatom 427 244 5 0 0 0 - - - 0;
#X obj 512 144 bng 19 250 50 0 empty empty empty 0 -10 0 12 #fcfcfc #000000 #000000;
#X floatatom 521 241 5 0 0 0 - - - 0;
#X obj 522 197 + 100;
#X obj 512 170 random 200;
#X obj 423 199 + 50;
#X obj 294 121 /;
#X obj 420 107 loadbang;
#X obj 513 108 loadbang;
#X obj 592 103 bng 19 250 50 0 empty empty empty 0 -10 0 12 #fcfcfc #000000 #000000;
#X obj 652 111 r randomise_fmchannel_settings;
#X obj 39 144 tgl 15 0 empty empty empty 17 7 0 10 #fcfcfc #000000 #000000 0 1;
#X msg 63 141 1;
#X obj 40 175 metro 3000;
#X obj 42 717 pan 0.5;
#X obj 52 690 *~ 0.5;
#X obj 390 337 r count;
#X obj 390 385 cos;
#X obj 392 413 + 1;
#X obj 392 435 / 2;
#X obj 456 337 vsl 19 162 0 150 0 0 empty empty empty 0 -9 0 12 #fcfcfc #000000 #000000 0 1;
#X obj 390 361 /;
#X obj 392 460 * 9000;
#X obj 392 485 min 8000;
#X floatatom 395 536 5 0 0 0 - - - 0;
#X obj 487 339 loadbang;
#X obj 487 363 random 300;
#X obj 487 387 + 50;
#X floatatom 487 411 5 0 0 0 - - - 0;
#X obj 487 434 bng 19 250 50 0 empty empty empty 0 -10 0 12 #fcfcfc #000000 #000000;
#X obj 557 338 bng 19 250 50 0 empty empty empty 0 -10 0 12 #fcfcfc #000000 #000000;
#X obj 82 209 f;
#X msg 84 235 1 10 \, 0 \$1 10;
#X obj 393 510 max 200;
#X obj 25 288 + 100;
#X floatatom 25 309 5 0 0 0 - - - 0;
#X obj 25 269 random 50;
#N canvas -1270 541 450 300 filter 0;
#X obj 167 107 / 1000;
#X obj 166 127 + 0.3;
#X obj 168 85 random 700;
#X obj 118 41 t b b;
#X obj 109 169 *~;
#X obj 83 113 *;
#X obj 112 107 + 1;
#X obj 117 59 random 30;
#X obj 62 17 inlet~;
#X obj 92 211 outlet~;
#X obj 69 137 bp~ 1000 100;
#X obj 197 14 inlet;
#X obj 257 12 inlet;
#X connect 0 0 1 0;
#X connect 1 0 4 1;
#X connect 2 0 0 0;
#X connect 3 0 7 0;
#X connect 3 1 2 0;
#X connect 4 0 9 0;
#X connect 5 0 10 1;
#X connect 6 0 5 1;
#X connect 7 0 6 0;
#X connect 8 0 10 0;
#X connect 10 0 4 0;
#X connect 11 0 3 0;
#X connect 12 0 5 0;
#X restore 136 480 pd filter;
#N canvas -1270 541 450 300 filter 0;
#X obj 167 107 / 1000;
#X obj 166 127 + 0.3;
#X obj 168 85 random 700;
#X obj 118 41 t b b;
#X obj 109 169 *~;
#X obj 83 113 *;
#X obj 112 107 + 1;
#X obj 117 59 random 30;
#X obj 62 17 inlet~;
#X obj 92 211 outlet~;
#X obj 69 137 bp~ 1000 100;
#X obj 197 14 inlet;
#X obj 257 12 inlet;
#X connect 0 0 1 0;
#X connect 1 0 4 1;
#X connect 2 0 0 0;
#X connect 3 0 7 0;
#X connect 3 1 2 0;
#X connect 4 0 9 0;
#X connect 5 0 10 1;
#X connect 6 0 5 1;
#X connect 7 0 6 0;
#X connect 8 0 10 0;
#X connect 10 0 4 0;
#X connect 11 0 3 0;
#X connect 12 0 5 0;
#X restore 210 477 pd filter;
#N canvas -1270 541 450 300 filter 0;
#X obj 167 107 / 1000;
#X obj 166 127 + 0.3;
#X obj 168 85 random 700;
#X obj 118 41 t b b;
#X obj 109 169 *~;
#X obj 83 113 *;
#X obj 112 107 + 1;
#X obj 117 59 random 30;
#X obj 62 17 inlet~;
#X obj 92 211 outlet~;
#X obj 69 137 bp~ 1000 100;
#X obj 197 14 inlet;
#X obj 257 12 inlet;
#X connect 0 0 1 0;
#X connect 1 0 4 1;
#X connect 2 0 0 0;
#X connect 3 0 7 0;
#X connect 3 1 2 0;
#X connect 4 0 9 0;
#X connect 5 0 10 1;
#X connect 6 0 5 1;
#X connect 7 0 6 0;
#X connect 8 0 10 0;
#X connect 10 0 4 0;
#X connect 11 0 3 0;
#X connect 12 0 5 0;
#X restore 285 478 pd filter;
#X obj 699 271 random 3000;
#X obj 708 309 + 2000;
#X connect 0 0 1 0;
#X connect 1 0 2 0;
#X connect 2 0 3 0;
#X connect 3 0 4 0;
#X connect 4 0 35 1;
#X connect 7 0 11 0;
#X connect 8 0 9 1;
#X connect 9 0 10 0;
#X connect 9 0 58 0;
#X connect 9 0 59 0;
#X connect 9 0 60 0;
#X connect 10 0 36 0;
#X connect 11 0 9 0;
#X connect 12 0 27 0;
#X connect 13 0 14 0;
#X connect 14 0 15 0;
#X connect 15 0 16 0;
#X connect 16 0 17 0;
#X connect 16 0 18 0;
#X connect 17 0 11 2;
#X connect 19 0 26 0;
#X connect 20 0 19 0;
#X connect 21 0 1 1;
#X connect 22 0 25 0;
#X connect 23 0 27 1;
#X connect 24 0 23 0;
#X connect 25 0 24 0;
#X connect 26 0 21 0;
#X connect 27 0 13 0;
#X connect 28 0 20 0;
#X connect 29 0 22 0;
#X connect 30 0 22 0;
#X connect 30 0 20 0;
#X connect 30 0 33 0;
#X connect 30 0 61 0;
#X connect 31 0 30 0;
#X connect 32 0 34 0;
#X connect 33 0 32 0;
#X connect 34 0 10 1;
#X connect 34 0 52 0;
#X connect 34 0 57 0;
#X connect 34 0 58 1;
#X connect 34 0 59 1;
#X connect 34 0 60 1;
#X connect 35 0 6 0;
#X connect 35 1 5 0;
#X connect 36 0 35 0;
#X connect 37 0 42 0;
#X connect 38 0 39 0;
#X connect 39 0 40 0;
#X connect 40 0 43 0;
#X connect 42 0 38 0;
#X connect 43 0 41 0;
#X connect 43 0 44 0;
#X connect 44 0 54 0;
#X connect 45 0 52 1;
#X connect 46 0 47 0;
#X connect 47 0 48 0;
#X connect 48 0 49 0;
#X connect 49 0 42 1;
#X connect 49 0 50 0;
#X connect 51 0 47 0;
#X connect 52 0 53 0;
#X connect 53 0 8 0;
#X connect 54 0 45 0;
#X connect 55 0 56 0;
#X connect 56 0 10 2;
#X connect 56 0 58 2;
#X connect 56 0 59 2;
#X connect 56 0 60 2;
#X connect 57 0 55 0;
#X connect 58 0 36 0;
#X connect 59 0 36 0;
#X connect 60 0 36 0;
#X connect 61 0 62 0;
#X connect 62 0 34 1;
#X connect 62 0 33 0;
#X restore 609 208 pd noiseshifter;
#N canvas -1747 142 1490 834 noiseshifter 0;
#X obj 16 14 r count;
#X obj 16 38 /;
#X obj 16 62 cos;
#X floatatom 16 86 5 0 0 0 - - - 0;
#X obj 19 110 hsl 162 19 0 127 0 0 empty empty empty -2 -10 0 12 #fcfcfc #000000 #000000 0 1;
#X obj 193 761 throw~ noiseright;
#X obj 30 760 throw~ noiseleft;
#X obj 207 244 noise~;
#X obj 125 264 vline~;
#X obj 103 292 *~;
#N canvas -1270 541 450 300 filter 0;
#X obj 167 107 / 1000;
#X obj 166 127 + 0.3;
#X obj 168 85 random 700;
#X obj 118 41 t b b;
#X obj 109 169 *~;
#X obj 83 113 *;
#X obj 112 107 + 1;
#X obj 117 59 random 30;
#X obj 62 17 inlet~;
#X obj 92 211 outlet~;
#X obj 69 137 bp~ 1000 100;
#X obj 197 14 inlet;
#X obj 257 12 inlet;
#X connect 0 0 1 0;
#X connect 1 0 4 1;
#X connect 2 0 0 0;
#X connect 3 0 7 0;
#X connect 3 1 2 0;
#X connect 4 0 9 0;
#X connect 5 0 10 1;
#X connect 6 0 5 1;
#X connect 7 0 6 0;
#X connect 8 0 10 0;
#X connect 10 0 4 0;
#X connect 11 0 3 0;
#X connect 12 0 5 0;
#X restore 61 479 pd filter;
#X obj 212 268 stereovol;
#X obj 294 97 r count;
#X obj 294 145 cos;
#X obj 296 173 + 1;
#X obj 296 195 / 2;
#X obj 296 220 * 150;
#X obj 296 245 min 100;
#X obj 360 97 vsl 19 162 0 150 0 0 empty empty empty 0 -9 0 12 #fcfcfc #000000 #000000 0 1;
#X obj 421 170 random 300;
#X obj 421 144 bng 19 250 50 0 empty empty empty 0 -10 0 12 #fcfcfc #000000 #000000;
#X floatatom 427 244 5 0 0 0 - - - 0;
#X obj 512 144 bng 19 250 50 0 empty empty empty 0 -10 0 12 #fcfcfc #000000 #000000;
#X floatatom 521 241 5 0 0 0 - - - 0;
#X obj 522 197 + 100;
#X obj 512 170 random 200;
#X obj 423 199 + 50;
#X obj 294 121 /;
#X obj 420 107 loadbang;
#X obj 513 108 loadbang;
#X obj 592 103 bng 19 250 50 0 empty empty empty 0 -10 0 12 #fcfcfc #000000 #000000;
#X obj 652 111 r randomise_fmchannel_settings;
#X obj 39 144 tgl 15 0 empty empty empty 17 7 0 10 #fcfcfc #000000 #000000 0 1;
#X msg 63 141 1;
#X obj 40 175 metro 3000;
#X obj 42 717 pan 0.5;
#X obj 52 690 *~ 0.5;
#X obj 390 337 r count;
#X obj 390 385 cos;
#X obj 392 413 + 1;
#X obj 392 435 / 2;
#X obj 456 337 vsl 19 162 0 150 0 0 empty empty empty 0 -9 0 12 #fcfcfc #000000 #000000 0 1;
#X obj 390 361 /;
#X obj 392 460 * 9000;
#X obj 392 485 min 8000;
#X floatatom 395 536 5 0 0 0 - - - 0;
#X obj 487 339 loadbang;
#X obj 487 363 random 300;
#X obj 487 387 + 50;
#X floatatom 487 411 5 0 0 0 - - - 0;
#X obj 487 434 bng 19 250 50 0 empty empty empty 0 -10 0 12 #fcfcfc #000000 #000000;
#X obj 557 338 bng 19 250 50 0 empty empty empty 0 -10 0 12 #fcfcfc #000000 #000000;
#X obj 82 209 f;
#X msg 84 235 1 10 \, 0 \$1 10;
#X obj 393 510 max 200;
#X obj 25 288 + 100;
#X floatatom 25 309 5 0 0 0 - - - 0;
#X obj 25 269 random 50;
#N canvas -1270 541 450 300 filter 0;
#X obj 167 107 / 1000;
#X obj 166 127 + 0.3;
#X obj 168 85 random 700;
#X obj 118 41 t b b;
#X obj 109 169 *~;
#X obj 83 113 *;
#X obj 112 107 + 1;
#X obj 117 59 random 30;
#X obj 62 17 inlet~;
#X obj 92 211 outlet~;
#X obj 69 137 bp~ 1000 100;
#X obj 197 14 inlet;
#X obj 257 12 inlet;
#X connect 0 0 1 0;
#X connect 1 0 4 1;
#X connect 2 0 0 0;
#X connect 3 0 7 0;
#X connect 3 1 2 0;
#X connect 4 0 9 0;
#X connect 5 0 10 1;
#X connect 6 0 5 1;
#X connect 7 0 6 0;
#X connect 8 0 10 0;
#X connect 10 0 4 0;
#X connect 11 0 3 0;
#X connect 12 0 5 0;
#X restore 136 480 pd filter;
#N canvas -1270 541 450 300 filter 0;
#X obj 167 107 / 1000;
#X obj 166 127 + 0.3;
#X obj 168 85 random 700;
#X obj 118 41 t b b;
#X obj 109 169 *~;
#X obj 83 113 *;
#X obj 112 107 + 1;
#X obj 117 59 random 30;
#X obj 62 17 inlet~;
#X obj 92 211 outlet~;
#X obj 69 137 bp~ 1000 100;
#X obj 197 14 inlet;
#X obj 257 12 inlet;
#X connect 0 0 1 0;
#X connect 1 0 4 1;
#X connect 2 0 0 0;
#X connect 3 0 7 0;
#X connect 3 1 2 0;
#X connect 4 0 9 0;
#X connect 5 0 10 1;
#X connect 6 0 5 1;
#X connect 7 0 6 0;
#X connect 8 0 10 0;
#X connect 10 0 4 0;
#X connect 11 0 3 0;
#X connect 12 0 5 0;
#X restore 210 477 pd filter;
#N canvas -1270 541 450 300 filter 0;
#X obj 167 107 / 1000;
#X obj 166 127 + 0.3;
#X obj 168 85 random 700;
#X obj 118 41 t b b;
#X obj 109 169 *~;
#X obj 83 113 *;
#X obj 112 107 + 1;
#X obj 117 59 random 30;
#X obj 62 17 inlet~;
#X obj 92 211 outlet~;
#X obj 69 137 bp~ 1000 100;
#X obj 197 14 inlet;
#X obj 257 12 inlet;
#X connect 0 0 1 0;
#X connect 1 0 4 1;
#X connect 2 0 0 0;
#X connect 3 0 7 0;
#X connect 3 1 2 0;
#X connect 4 0 9 0;
#X connect 5 0 10 1;
#X connect 6 0 5 1;
#X connect 7 0 6 0;
#X connect 8 0 10 0;
#X connect 10 0 4 0;
#X connect 11 0 3 0;
#X connect 12 0 5 0;
#X restore 285 478 pd filter;
#X obj 699 271 random 3000;
#X obj 708 309 + 2000;
#X connect 0 0 1 0;
#X connect 1 0 2 0;
#X connect 2 0 3 0;
#X connect 3 0 4 0;
#X connect 4 0 35 1;
#X connect 7 0 11 0;
#X connect 8 0 9 1;
#X connect 9 0 10 0;
#X connect 9 0 58 0;
#X connect 9 0 59 0;
#X connect 9 0 60 0;
#X connect 10 0 36 0;
#X connect 11 0 9 0;
#X connect 12 0 27 0;
#X connect 13 0 14 0;
#X connect 14 0 15 0;
#X connect 15 0 16 0;
#X connect 16 0 17 0;
#X connect 16 0 18 0;
#X connect 17 0 11 2;
#X connect 19 0 26 0;
#X connect 20 0 19 0;
#X connect 21 0 1 1;
#X connect 22 0 25 0;
#X connect 23 0 27 1;
#X connect 24 0 23 0;
#X connect 25 0 24 0;
#X connect 26 0 21 0;
#X connect 27 0 13 0;
#X connect 28 0 20 0;
#X connect 29 0 22 0;
#X connect 30 0 22 0;
#X connect 30 0 20 0;
#X connect 30 0 33 0;
#X connect 30 0 61 0;
#X connect 31 0 30 0;
#X connect 32 0 34 0;
#X connect 33 0 32 0;
#X connect 34 0 10 1;
#X connect 34 0 52 0;
#X connect 34 0 57 0;
#X connect 34 0 58 1;
#X connect 34 0 59 1;
#X connect 34 0 60 1;
#X connect 35 0 6 0;
#X connect 35 1 5 0;
#X connect 36 0 35 0;
#X connect 37 0 42 0;
#X connect 38 0 39 0;
#X connect 39 0 40 0;
#X connect 40 0 43 0;
#X connect 42 0 38 0;
#X connect 43 0 41 0;
#X connect 43 0 44 0;
#X connect 44 0 54 0;
#X connect 45 0 52 1;
#X connect 46 0 47 0;
#X connect 47 0 48 0;
#X connect 48 0 49 0;
#X connect 49 0 42 1;
#X connect 49 0 50 0;
#X connect 51 0 47 0;
#X connect 52 0 53 0;
#X connect 53 0 8 0;
#X connect 54 0 45 0;
#X connect 55 0 56 0;
#X connect 56 0 10 2;
#X connect 56 0 58 2;
#X connect 56 0 59 2;
#X connect 56 0 60 2;
#X connect 57 0 55 0;
#X connect 58 0 36 0;
#X connect 59 0 36 0;
#X connect 60 0 36 0;
#X connect 61 0 62 0;
#X connect 62 0 34 1;
#X connect 62 0 33 0;
#X restore 608 233 pd noiseshifter;
#X connect 1 0 5 0;
#X connect 2 0 1 0;
#X connect 3 0 1 1;
#X connect 4 0 3 0;
#X connect 4 0 6 0;
#X connect 5 0 7 0;
#X connect 6 0 2 0;
#X connect 11 0 10 0;
#X connect 11 0 13 0;
#X connect 12 0 10 1;
#X connect 12 0 13 0;
#X connect 13 0 10 0;
#X connect 13 1 10 1;
#X connect 16 0 15 0;
#X connect 17 0 14 0;
#X connect 30 0 18 0;
#X connect 32 0 33 0;
#X connect 33 0 34 0;
#X connect 33 0 36 0;
#X connect 34 0 37 0;
#X connect 35 0 32 0;
#X connect 37 0 31 0;
#X connect 37 0 14 0;
#X connect 38 0 35 0;
#X connect 39 0 38 0;
#X connect 41 0 40 0;
#X connect 41 1 40 1;
#X connect 42 0 40 0;
#X connect 42 0 41 0;
#X connect 43 0 40 1;
#X connect 43 0 41 0;
#X connect 44 0 16 0;
#X connect 44 0 39 0;
#X connect 44 0 30 0;
#X connect 44 0 35 0;
