#N canvas 361 425 450 300 12;
#X obj 206 76 / 127;
#X obj 204 98 * 110;
#X obj 205 127 dbtorms;
#X floatatom 205 151 5 0 0 0 - - - 0;
#X floatatom 106 135 5 0 0 0 - - - 12;
#X obj 116 189 lop~ 3;
#X obj 118 240 outlet~;
#X obj 108 34 inlet;
#X obj 267 76 - 100;
#X connect 0 0 1 0;
#X connect 1 0 2 0;
#X connect 1 0 8 0;
#X connect 2 0 3 0;
#X connect 2 0 5 0;
#X connect 5 0 6 0;
#X connect 7 0 0 0;
#X connect 8 0 4 0;
#X coords 0 -1 1 1 85 60 1 100 100;
