#N canvas 359 150 666 402 12;
#X obj 80 22 inlet;
#X floatatom 80 46 5 0 0 0 - - - 0;
#X obj 89 195 phasor~;
#X obj 89 219 -~ 0.5;
#X obj 89 243 *~ 0.15;
#X obj 151 195 phasor~;
#X obj 151 219 -~ 0.5;
#X obj 151 243 *~ 0.15;
#X obj 212 195 phasor~;
#X obj 212 219 -~ 0.5;
#X obj 212 243 *~ 0.15;
#X obj 274 195 phasor~;
#X obj 274 219 -~ 0.5;
#X obj 274 243 *~ 0.15;
#X obj 334 195 phasor~;
#X obj 334 219 -~ 0.5;
#X obj 334 243 *~ 0.15;
#X obj 396 195 phasor~;
#X obj 396 219 -~ 0.5;
#X obj 396 243 *~ 0.15;
#X obj 457 195 phasor~;
#X obj 457 219 -~ 0.5;
#X obj 457 243 *~ 0.15;
#X obj 275 329 *~;
#X obj 275 353 outlet~;
#X obj 89 171 mtof;
#X obj 150 170 mtof;
#X obj 211 168 mtof;
#X obj 273 168 mtof;
#X obj 335 165 mtof;
#X obj 397 169 mtof;
#X obj 459 165 mtof;
#X obj 336 138 +;
#X obj 396 138 +;
#X obj 459 139 +;
#X obj 91 143 -;
#X obj 151 144 -;
#X obj 212 141 -;
#X obj 182 76 / 0.66;
#X obj 236 77 / 0.33;
#X obj 200 12 inlet;
#X floatatom 179 49 5 0 0 0 - - - 0;
#X obj 254 36 t b f;
#X obj 348 29 inlet~;
#X obj 460 30 inlet~;
#X obj 275 285 vcf~ 4;
#X connect 0 0 1 0;
#X connect 1 0 28 0;
#X connect 1 0 32 0;
#X connect 1 0 33 0;
#X connect 1 0 34 0;
#X connect 1 0 37 0;
#X connect 1 0 36 0;
#X connect 1 0 35 0;
#X connect 2 0 3 0;
#X connect 3 0 4 0;
#X connect 4 0 45 0;
#X connect 5 0 6 0;
#X connect 6 0 7 0;
#X connect 7 0 45 0;
#X connect 8 0 9 0;
#X connect 9 0 10 0;
#X connect 10 0 45 0;
#X connect 11 0 12 0;
#X connect 12 0 13 0;
#X connect 13 0 45 0;
#X connect 14 0 15 0;
#X connect 15 0 16 0;
#X connect 16 0 45 0;
#X connect 17 0 18 0;
#X connect 18 0 19 0;
#X connect 19 0 45 0;
#X connect 20 0 21 0;
#X connect 21 0 22 0;
#X connect 22 0 45 0;
#X connect 23 0 24 0;
#X connect 25 0 2 0;
#X connect 26 0 5 0;
#X connect 27 0 8 0;
#X connect 28 0 11 0;
#X connect 29 0 14 0;
#X connect 30 0 17 0;
#X connect 31 0 20 0;
#X connect 32 0 29 0;
#X connect 33 0 30 0;
#X connect 34 0 31 0;
#X connect 35 0 25 0;
#X connect 36 0 26 0;
#X connect 37 0 27 0;
#X connect 38 0 36 1;
#X connect 38 0 33 1;
#X connect 39 0 37 1;
#X connect 39 0 32 1;
#X connect 40 0 42 0;
#X connect 41 0 35 1;
#X connect 41 0 34 1;
#X connect 41 0 38 0;
#X connect 41 0 39 0;
#X connect 42 0 35 0;
#X connect 42 0 36 0;
#X connect 42 0 37 0;
#X connect 42 0 32 0;
#X connect 42 0 33 0;
#X connect 42 0 34 0;
#X connect 42 1 41 0;
#X connect 43 0 45 1;
#X connect 44 0 23 1;
#X connect 45 1 23 0;
