#N canvas 346 182 659 428 12;
#X obj 87 272 supersawsynth;
#X msg 38 116 60;
#X obj 118 62 vsl 19 162 0 0.5 0 0 empty empty empty 0 -9 0 12 #fcfcfc #000000 #000000 0 1;
#X floatatom 118 231 5 0 0 0 - - - 0;
#X obj 172 346 dac~;
#X msg 328 25 60;
#X obj 452 63 vsl 19 162 0 1 0 0 empty empty empty 0 -9 0 12 #fcfcfc #000000 #000000 0 1;
#X floatatom 447 235 5 0 0 0 - - - 0;
#X obj 317 286 two-op-saw;
#X obj 449 260 sig~;
#X obj 238 34 vsl 19 162 0 1 0 0 empty empty empty 0 -9 0 12 #fcfcfc #000000 #000000 0 1;
#X floatatom 233 206 5 0 0 0 - - - 0;
#X obj 235 231 sig~;
#X obj 182 29 vsl 19 162 0 10000 0 0 empty empty empty 0 -9 0 12 #fcfcfc #000000 #000000 0 1;
#X floatatom 177 201 5 0 0 0 - - - 0;
#X obj 179 226 sig~;
#X connect 0 0 4 0;
#X connect 0 0 4 1;
#X connect 1 0 0 0;
#X connect 2 0 3 0;
#X connect 3 0 0 1;
#X connect 3 0 8 1;
#X connect 5 0 8 0;
#X connect 6 0 7 0;
#X connect 7 0 9 0;
#X connect 8 0 4 0;
#X connect 8 0 4 1;
#X connect 9 0 8 3;
#X connect 10 0 11 0;
#X connect 11 0 12 0;
#X connect 12 0 0 3;
#X connect 13 0 14 0;
#X connect 14 0 15 0;
#X connect 15 0 0 2;
#X connect 15 0 8 2;
