#N canvas 818 147 471 553 12;
#X obj 49 220 phasor~;
#X obj 113 221 phasor~;
#X obj 49 168 mtof;
#X floatatom 133 169 5 0 0 0 - - - 0;
#X obj 133 118 loadbang;
#X obj 49 244 -~ 0.5;
#X obj 49 268 *~ 1.5;
#X obj 113 269 *~ 1.5;
#X obj 113 245 -~ 0.5;
#X msg 133 144 1.01;
#X text 144 196 detune;
#X text 174 241 2x sawtooth waves;
#X obj 94 369 *~;
#X obj 94 421 outlet~;
#X obj 21 22 inlet;
#X obj 71 22 inlet;
#X obj 280 16 inlet~;
#X obj 335 15 inlet~;
#X obj 91 68 t b f;
#X obj 113 197 +;
#X floatatom 291 213 5 0 0 0 - - - 0;
#X obj 93 336 vcf~ 4;
#X connect 0 0 5 0;
#X connect 1 0 8 0;
#X connect 2 0 0 0;
#X connect 2 0 19 0;
#X connect 3 0 19 1;
#X connect 4 0 9 0;
#X connect 5 0 6 0;
#X connect 6 0 21 0;
#X connect 7 0 21 0;
#X connect 8 0 7 0;
#X connect 9 0 3 0;
#X connect 12 0 13 0;
#X connect 14 0 2 0;
#X connect 15 0 18 0;
#X connect 16 0 21 1;
#X connect 17 0 12 1;
#X connect 18 0 19 0;
#X connect 18 1 3 0;
#X connect 19 0 1 0;
#X connect 19 0 20 0;
#X connect 21 0 12 0;
